<?xml version="1.0" standalone="no"?>
<!DOCTYPE svg PUBLIC "-//W3C//DTD SVG 20010904//EN"
 "http://www.w3.org/TR/2001/REC-SVG-20010904/DTD/svg10.dtd">
<svg version="1.0" xmlns="http://www.w3.org/2000/svg"
 width="512.000000" height="512.000000" viewBox="0 0 512.000000 512.000000"
 preserveAspectRatio="xMidYMid meet">

<g transform="translate(0.000000,512.000000) scale(0.100000,-0.100000)"
fill="#000000" stroke="none">
<path d="M2735 4790 c-3 -5 -17 -10 -30 -10 -13 0 -27 -4 -30 -10 -3 -5 -17
-10 -31 -10 -13 0 -24 -4 -24 -10 0 -5 -9 -10 -20 -10 -11 0 -20 -4 -20 -10 0
-5 -9 -10 -20 -10 -11 0 -35 -9 -55 -20 -20 -11 -43 -20 -53 -20 -9 0 -39 -11
-66 -25 -27 -14 -61 -25 -75 -25 -15 0 -33 -9 -41 -20 -8 -11 -19 -20 -25 -20
-7 0 -22 -12 -36 -26 -13 -14 -42 -34 -64 -44 -22 -10 -51 -30 -64 -44 -27
-28 -75 -56 -98 -56 -8 0 -23 -9 -35 -20 -12 -11 -32 -20 -44 -20 -12 0 -24
-6 -27 -12 -3 -10 -7 -10 -19 -1 -20 17 -68 -5 -68 -30 0 -31 28 -51 53 -39
12 6 39 13 60 16 47 6 50 -14 5 -33 -18 -7 -54 -34 -79 -58 -41 -40 -50 -44
-80 -38 -30 6 -38 2 -62 -24 -15 -17 -27 -36 -27 -42 0 -16 -26 -39 -44 -39
-9 0 -16 -4 -16 -10 0 -5 -9 -10 -19 -10 -10 0 -21 -7 -25 -15 -3 -8 -11 -15
-18 -15 -7 0 -27 -14 -45 -30 -18 -17 -37 -30 -42 -30 -6 0 -27 -18 -47 -40
-36 -40 -61 -49 -80 -30 -7 7 -19 6 -37 -2 -21 -10 -27 -20 -27 -45 0 -18 5
-33 10 -33 16 0 12 -36 -6 -51 -12 -10 -20 -10 -35 -1 -10 7 -26 12 -35 12
-16 0 -44 -23 -44 -37 0 -19 -126 -133 -148 -133 -19 0 -22 -5 -22 -36 0 -28
-3 -35 -15 -30 -24 9 -64 -11 -74 -36 -11 -28 -45 -68 -58 -68 -22 0 -62 -27
-67 -45 -3 -11 1 -33 9 -49 20 -38 19 -49 -5 -71 -13 -12 -20 -31 -20 -57 0
-32 -3 -38 -21 -38 -24 0 -49 -22 -49 -44 0 -9 -4 -16 -10 -16 -5 0 -10 -11
-10 -24 0 -14 -4 -28 -10 -31 -18 -11 -11 -70 10 -85 20 -15 27 -54 11 -64 -4
-3 -29 5 -55 17 l-47 22 5 65 c3 36 9 105 15 154 7 64 7 93 0 103 -6 7 -15 11
-19 8 -16 -10 -60 -109 -60 -135 0 -36 -23 -79 -59 -114 -19 -18 -31 -24 -36
-16 -12 20 -35 -10 -35 -46 0 -18 -4 -36 -10 -39 -6 -3 -10 -35 -10 -71 0 -36
-4 -64 -10 -64 -6 0 -10 -57 -10 -150 0 -93 4 -150 10 -150 6 0 10 -32 10 -75
0 -43 4 -75 10 -75 6 0 10 -15 10 -34 0 -19 4 -38 10 -41 5 -3 10 -21 10 -39
0 -19 7 -39 15 -46 10 -8 15 -31 15 -70 0 -57 18 -90 48 -90 7 0 12 -4 12 -10
0 -5 9 -10 20 -10 11 0 20 -4 20 -10 0 -5 8 -10 18 -10 28 0 41 -33 48 -129 4
-50 11 -91 15 -91 5 0 9 -11 9 -24 0 -14 4 -28 10 -31 6 -3 10 -30 10 -59 0
-53 12 -76 40 -76 9 0 26 -19 38 -42 l23 -41 -21 -22 c-11 -12 -20 -31 -20
-43 0 -15 -6 -22 -20 -22 -11 0 -20 7 -20 15 0 8 -4 15 -10 15 -19 0 -10 -21
26 -56 39 -39 64 -39 64 1 0 14 6 25 13 25 19 0 37 -21 37 -45 0 -12 5 -26 10
-31 7 -7 4 -16 -10 -29 -21 -19 -27 -50 -10 -60 5 -3 10 -13 10 -21 0 -9 13
-26 29 -40 17 -14 31 -37 33 -52 2 -21 13 -32 45 -47 24 -11 43 -26 43 -33 0
-7 10 -16 23 -21 12 -5 35 -23 51 -40 17 -17 35 -31 42 -31 6 0 27 -18 47 -40
19 -22 42 -40 51 -40 9 0 16 -4 16 -8 0 -4 15 -16 33 -27 17 -10 34 -21 37
-24 10 -12 50 -31 65 -31 8 0 15 -4 15 -9 0 -5 9 -11 20 -14 13 -3 20 -14 20
-29 0 -29 17 -48 42 -48 10 0 26 -4 36 -9 9 -6 48 -24 85 -41 38 -18 71 -38
74 -46 3 -8 19 -14 38 -14 19 0 37 -4 40 -10 3 -5 17 -10 30 -10 13 0 27 -4
30 -10 3 -5 30 -10 60 -10 30 0 57 -5 60 -10 3 -6 48 -10 99 -10 86 0 94 -2
116 -25 13 -14 34 -25 46 -25 13 0 26 -4 29 -10 3 -5 35 -10 71 -10 36 0 64
-4 64 -10 0 -6 43 -10 109 -10 63 0 112 -4 116 -10 8 -13 115 -13 115 0 0 6 6
10 13 10 8 0 22 9 32 20 10 11 28 20 40 20 11 0 25 4 31 9 5 5 27 12 49 15
141 20 192 29 207 37 10 5 29 9 42 9 14 0 28 5 31 10 3 6 21 10 40 10 19 0 37
5 40 10 3 6 22 10 41 10 19 0 34 5 34 10 0 6 11 10 24 10 14 0 28 4 31 10 3 5
14 10 25 10 10 0 35 9 57 19 75 38 106 51 122 51 9 0 23 9 31 20 8 11 22 20
32 20 10 0 18 5 18 10 0 6 6 10 14 10 7 0 19 7 26 15 7 8 40 29 74 45 34 16
70 38 81 50 10 11 24 20 32 20 7 0 13 7 13 15 0 9 8 19 18 22 9 4 37 25 60 47
24 23 52 44 63 48 11 4 24 19 29 32 5 14 39 53 75 87 36 34 65 68 65 76 0 7 7
13 15 13 8 0 15 6 15 13 0 8 9 22 20 32 11 10 20 24 20 30 0 7 7 18 15 25 9 7
25 32 36 54 11 23 28 55 39 71 10 17 19 37 19 46 1 8 10 25 21 37 11 12 20 28
20 37 0 8 3 15 8 15 8 0 32 49 32 67 0 7 9 28 20 48 11 20 20 44 20 55 0 10 4
21 9 25 6 3 13 27 16 53 3 26 10 55 16 64 5 10 9 31 9 47 0 17 4 33 10 36 6 3
10 28 10 55 0 27 5 52 10 55 6 4 10 57 10 126 0 73 -4 119 -10 119 -5 0 -10
20 -10 44 0 25 -4 48 -10 51 -5 3 -10 19 -10 34 0 38 -29 92 -51 98 -24 7 -24
31 0 80 43 85 51 108 51 145 0 21 5 38 10 38 6 0 10 12 10 26 0 17 6 28 20 31
13 3 20 14 20 29 0 13 -9 29 -20 36 -11 7 -20 20 -20 29 0 9 -8 19 -19 22 -17
4 -18 21 -23 216 -4 139 -9 216 -17 224 -6 6 -11 38 -11 70 0 49 -4 63 -22 80
-16 13 -19 21 -10 24 14 6 16 49 2 58 -5 3 -10 17 -10 30 0 13 -4 27 -10 30
-5 3 -10 17 -10 31 0 13 -4 24 -10 24 -5 0 -10 15 -10 33 0 21 -8 41 -20 52
-14 13 -20 31 -20 61 0 24 -4 46 -10 49 -5 3 -10 19 -10 34 0 23 -7 32 -35 45
-19 9 -35 23 -35 31 0 8 -4 15 -10 15 -5 0 -10 7 -10 16 0 9 -8 24 -18 33 -23
20 -37 81 -19 81 7 0 17 -4 22 -9 6 -5 20 -12 33 -16 32 -9 28 11 -8 45 -16
15 -30 34 -30 40 0 7 -8 20 -18 29 -10 9 -22 31 -25 50 -7 35 -32 71 -49 71
-5 0 -26 16 -46 35 -20 19 -50 40 -67 47 -16 6 -37 20 -46 30 -9 10 -23 18
-32 18 -8 0 -17 3 -19 8 -5 12 -129 72 -149 72 -10 0 -20 4 -23 9 -3 5 -34 12
-68 16 -43 5 -70 14 -86 28 -19 18 -26 19 -42 9 -11 -7 -29 -12 -39 -12 -11 0
-23 -4 -26 -10 -11 -17 -61 -11 -80 10 -13 14 -31 20 -62 20 -23 0 -43 5 -43
10 0 6 -9 10 -20 10 -11 0 -20 5 -20 10 0 15 -127 13 -133 -2 -4 -9 -8 -9 -14
-3 -24 30 -85 45 -98 25 -11 -17 -50 -11 -65 10 -12 17 -26 20 -82 20 -37 0
-70 -4 -73 -10z m445 -320 c0 -5 20 -10 44 -10 25 0 48 -4 51 -10 3 -5 26 -10
51 -10 24 0 44 -4 44 -10 0 -5 14 -10 30 -10 17 0 30 -3 30 -7 0 -10 49 -33
71 -33 9 0 22 -7 29 -15 7 -8 22 -15 35 -15 12 0 30 -9 40 -20 10 -11 24 -20
31 -20 8 0 19 -9 26 -20 7 -11 18 -20 25 -20 7 0 32 -18 54 -40 23 -22 45 -40
49 -40 3 0 13 -11 20 -25 7 -14 20 -25 27 -25 16 0 83 -64 83 -79 0 -6 16 -25
35 -44 19 -19 35 -40 35 -47 0 -7 8 -20 18 -29 10 -9 26 -32 35 -52 9 -20 23
-42 32 -49 8 -7 15 -18 15 -24 0 -7 15 -27 33 -44 19 -18 40 -48 47 -67 8 -19
17 -35 22 -35 4 0 8 -23 8 -52 0 -44 4 -57 30 -83 l30 -31 7 -157 c3 -87 10
-160 15 -163 11 -7 11 -151 0 -158 -5 -3 -12 -56 -16 -118 -4 -62 -11 -117
-16 -122 -6 -6 -10 -20 -10 -32 0 -13 -4 -26 -10 -29 -5 -3 -10 -16 -10 -28 0
-13 -9 -29 -20 -37 -11 -8 -20 -24 -20 -35 0 -27 -18 -45 -47 -45 -16 0 -23 6
-23 19 0 11 -4 23 -10 26 -5 3 -10 23 -10 45 0 35 -35 121 -52 128 -5 2 -8 11
-8 19 0 9 -8 23 -18 32 -10 9 -26 32 -36 51 -32 63 -43 81 -70 109 -14 15 -26
31 -26 36 0 13 -42 55 -54 55 -14 0 -136 121 -136 135 0 14 -82 95 -96 95 -6
0 -18 8 -27 18 -9 10 -32 24 -51 32 -19 7 -37 22 -40 32 -2 11 -14 22 -25 25
-12 3 -21 9 -21 14 0 5 -18 9 -40 9 -22 0 -40 5 -40 10 0 6 -6 10 -13 10 -8 0
-22 9 -32 20 -10 11 -30 20 -45 20 -14 0 -50 11 -78 25 -29 14 -58 25 -66 25
-8 0 -18 5 -21 10 -3 6 -15 10 -26 10 -10 0 -19 3 -19 8 0 21 -62 32 -187 32
-82 0 -133 4 -133 10 0 6 -28 10 -65 10 -37 0 -65 4 -65 10 0 6 -15 10 -34 10
-19 0 -38 -4 -41 -10 -3 -5 -35 -10 -71 -10 -36 0 -64 -4 -64 -10 0 -5 -20
-10 -45 -10 -25 0 -45 -4 -45 -10 0 -5 -9 -10 -20 -10 -11 0 -20 -4 -20 -10 0
-5 -7 -10 -15 -10 -9 0 -25 -9 -37 -20 -12 -11 -29 -20 -37 -20 -9 0 -29 -7
-45 -15 -15 -8 -50 -15 -77 -15 -27 0 -49 -4 -49 -10 0 -5 -9 -10 -20 -10 -11
0 -20 -4 -20 -10 0 -5 -11 -10 -24 -10 -13 0 -29 -7 -36 -15 -7 -9 -29 -23
-49 -32 -20 -9 -53 -32 -73 -52 -37 -34 -38 -34 -52 -15 -9 12 -11 23 -5 29 5
5 9 46 9 92 0 49 4 83 10 83 6 0 10 14 10 30 0 17 5 30 10 30 6 0 10 9 10 20
0 11 3 20 8 20 8 0 32 48 32 65 0 7 20 51 45 100 33 64 62 103 107 145 61 57
126 100 154 100 8 0 14 5 14 10 0 6 11 10 24 10 14 0 28 5 31 10 3 6 22 10 41
10 19 0 34 5 34 10 0 6 15 10 34 10 19 0 38 5 41 10 3 6 39 10 80 10 41 0 77
5 80 10 4 6 70 10 165 10 95 0 161 -4 165 -10 3 -5 37 -10 75 -10 38 0 72 -4
75 -10 3 -5 21 -10 40 -10 19 0 37 5 40 10 3 6 19 10 35 10 16 0 32 -4 35 -10
3 -5 22 -10 41 -10 19 0 34 -4 34 -10 0 -5 9 -10 20 -10 11 0 20 -4 20 -10 0
-5 11 -10 24 -10 14 0 28 -4 31 -10 3 -5 16 -10 29 -10 13 0 31 -9 41 -20 10
-11 23 -20 28 -20 18 0 122 -54 138 -72 9 -10 24 -18 33 -18 9 0 16 -4 16 -10
0 -5 5 -10 12 -10 7 0 24 -12 39 -26 27 -26 55 -44 94 -63 12 -5 27 -16 34
-25 7 -9 19 -16 25 -16 7 0 30 -18 51 -40 21 -22 44 -40 50 -40 6 0 31 -20 55
-45 24 -25 48 -45 52 -45 5 0 34 -25 66 -55 31 -30 62 -55 69 -55 6 0 13 -6
16 -12 3 -10 7 -10 20 1 21 17 22 35 1 52 -9 7 -20 22 -25 34 -16 34 -35 64
-52 83 -10 10 -17 23 -17 29 0 6 -18 26 -40 46 -22 19 -40 40 -40 47 0 24
-146 185 -210 230 -44 31 -79 50 -94 50 -6 0 -17 9 -24 20 -7 11 -23 20 -36
20 -14 0 -28 5 -31 10 -3 6 -14 10 -24 10 -28 0 -130 60 -139 82 -2 4 -16 8
-31 8 -15 0 -33 9 -41 20 -8 11 -24 20 -35 20 -12 0 -38 18 -59 39 -33 34 -48
41 -93 47 -29 3 -56 10 -59 15 -3 5 -29 9 -59 9 -30 0 -57 5 -60 10 -4 6 -57
10 -125 10 -68 0 -121 -4 -125 -10 -3 -5 -20 -10 -36 -10 -35 0 -35 19 -1 35
12 5 22 13 22 17 0 5 20 8 44 8 25 0 48 5 51 10 3 6 26 10 50 10 24 0 47 5 50
10 4 6 58 10 131 10 76 0 124 -4 124 -10z m-1600 -784 c0 -19 -4 -37 -9 -41
-5 -3 -13 -30 -16 -60 -4 -31 -11 -58 -16 -61 -5 -3 -9 -25 -9 -49 0 -24 -4
-47 -10 -50 -6 -4 -10 -56 -10 -123 0 -106 -2 -119 -20 -132 -11 -8 -20 -20
-20 -28 0 -7 -13 -25 -30 -39 -17 -13 -30 -35 -30 -47 0 -13 -23 -44 -60 -81
-66 -65 -90 -104 -90 -145 0 -15 -10 -36 -25 -50 -14 -13 -25 -29 -25 -37 0
-7 -4 -13 -10 -13 -5 0 -10 -16 -10 -36 0 -22 -7 -43 -17 -53 -25 -23 -43 -57
-43 -81 0 -11 -4 -20 -10 -20 -5 0 -10 -13 -10 -29 0 -17 -4 -33 -10 -36 -5
-3 -10 -23 -10 -44 0 -20 -5 -42 -11 -48 -7 -7 -13 -62 -16 -129 -2 -65 -6
-120 -7 -122 -2 -1 -11 0 -20 4 -12 5 -16 20 -16 69 0 35 -4 67 -10 70 -5 3
-10 46 -10 95 0 49 5 92 10 95 6 3 10 46 10 95 0 49 5 92 10 95 6 3 10 24 10
45 0 21 4 41 9 44 5 4 12 30 16 59 6 49 41 138 58 145 4 2 7 12 7 23 0 10 5
19 10 19 6 0 10 13 10 28 0 32 23 84 45 102 8 7 15 23 15 36 0 12 4 25 9 29 5
3 12 18 16 33 3 16 15 34 25 42 12 8 20 26 20 42 0 15 5 28 10 28 6 0 10 18
10 40 0 47 11 69 64 127 30 33 46 43 71 43 43 0 55 16 55 73 0 43 4 53 33 78
43 38 57 37 57 -5z m928 -249 c3 -36 14 -47 27 -27 3 6 17 10 30 10 13 0 27 5
30 10 11 18 102 11 140 -10 29 -16 54 -20 129 -20 71 0 97 -4 106 -15 7 -8 25
-15 41 -15 15 0 31 -4 34 -10 3 -5 15 -10 26 -10 10 0 19 -4 19 -9 0 -5 9 -11
21 -14 12 -3 19 -12 17 -19 -5 -16 -78 -24 -78 -9 0 14 -177 15 -185 1 -3 -5
-21 -10 -39 -10 -41 0 -104 -58 -84 -78 16 -16 60 -15 77 1 11 10 14 10 18 0
3 -7 13 -13 24 -13 10 0 19 -4 19 -10 0 -5 20 -10 43 -10 31 0 49 -6 62 -20
10 -11 29 -20 42 -20 12 0 23 -4 23 -10 0 -5 7 -10 15 -10 26 0 68 -47 100
-112 36 -73 54 -87 88 -69 34 18 60 11 75 -22 8 -16 25 -32 38 -37 17 -7 24
-17 24 -35 0 -14 5 -25 10 -25 6 0 10 -11 10 -24 0 -14 5 -28 10 -31 6 -4 10
-53 10 -116 0 -66 -4 -109 -10 -109 -5 0 -10 -8 -10 -18 0 -9 -12 -26 -26 -36
-14 -11 -34 -39 -45 -62 -10 -24 -23 -46 -29 -49 -5 -3 -10 -25 -10 -49 0 -39
-5 -47 -63 -102 -34 -32 -85 -70 -111 -84 -45 -23 -60 -25 -182 -25 -92 0
-137 4 -146 13 -6 6 -33 12 -60 12 -29 0 -61 8 -83 20 -20 11 -43 20 -51 20
-9 0 -33 18 -54 39 -20 22 -50 43 -65 47 -14 4 -29 14 -33 23 -3 9 -18 28 -34
43 -15 14 -28 33 -28 42 0 9 -4 16 -8 16 -13 0 -42 97 -42 141 0 21 -4 41 -10
44 -5 3 -10 17 -10 31 0 13 -6 33 -12 44 -10 16 -10 24 0 40 6 11 12 31 12 44
0 14 4 27 9 30 4 3 11 29 14 57 7 54 27 109 39 109 5 0 8 9 8 20 0 11 5 20 10
20 13 0 13 67 0 75 -17 11 -100 -47 -100 -71 0 -6 -7 -17 -15 -24 -23 -19 -65
-112 -65 -145 0 -17 -6 -37 -12 -43 -19 -19 -18 -293 1 -315 12 -15 11 -17 -7
-17 -10 0 -33 16 -49 35 -35 41 -63 46 -63 12 0 -33 18 -47 51 -40 28 5 29 4
29 -30 0 -20 4 -38 9 -41 4 -3 11 -23 15 -44 3 -21 15 -47 26 -57 11 -10 20
-24 20 -32 0 -8 12 -13 30 -13 20 0 30 5 30 15 0 8 3 15 8 15 4 0 56 -50 117
-110 60 -61 113 -110 117 -110 5 0 22 -14 40 -30 17 -17 36 -30 43 -30 6 0 26
-16 45 -35 29 -30 40 -35 81 -35 26 0 51 -4 54 -10 3 -5 17 -10 31 -10 20 0
24 -5 24 -30 0 -25 -4 -30 -24 -30 -14 0 -28 5 -31 10 -9 15 -55 12 -55 -4 0
-22 27 -38 57 -35 15 2 35 -1 43 -6 42 -27 67 -35 111 -35 26 0 51 4 54 10 3
5 21 10 40 10 19 0 36 4 39 8 3 5 67 12 142 15 76 3 141 10 147 16 6 6 26 11
43 11 18 0 36 5 39 10 3 6 17 10 31 10 13 0 24 5 24 10 0 6 9 10 20 10 11 0
20 3 20 8 0 4 15 13 33 21 17 8 41 22 52 31 11 9 27 20 35 24 8 3 29 15 45 25
17 11 39 20 51 20 11 1 29 10 39 21 10 11 23 20 29 20 7 0 18 9 26 20 8 11 22
20 32 20 10 0 18 5 18 10 0 6 6 10 14 10 8 0 16 7 20 15 3 8 17 15 31 15 22 0
25 -4 25 -35 0 -19 5 -35 10 -35 6 0 10 -24 10 -53 0 -41 5 -58 20 -72 25 -22
25 -33 2 -54 -9 -9 -24 -29 -32 -46 -8 -16 -23 -40 -34 -53 -13 -14 -20 -36
-19 -59 1 -20 -9 -55 -23 -81 -13 -25 -24 -53 -24 -62 0 -22 -108 -128 -152
-149 -18 -8 -40 -23 -49 -33 -11 -12 -31 -18 -56 -18 -31 0 -46 -7 -68 -30
-33 -35 -43 -37 -52 -12 -11 28 -36 49 -41 34 -2 -6 -9 -12 -15 -12 -16 0 -77
-61 -77 -77 0 -7 -4 -13 -10 -13 -5 0 -10 -15 -10 -34 0 -19 5 -38 10 -41 6
-3 10 -24 10 -46 0 -32 -7 -46 -35 -74 -21 -21 -44 -35 -59 -35 -14 0 -41 -9
-61 -20 -20 -11 -52 -20 -73 -20 -30 0 -43 -7 -67 -35 -21 -24 -39 -35 -57
-35 -16 0 -28 -4 -28 -10 0 -5 -11 -10 -24 -10 -14 0 -28 -4 -31 -10 -3 -5
-33 -10 -65 -10 -32 0 -62 -4 -65 -10 -4 -6 -53 -10 -115 -10 -62 0 -111 -4
-115 -10 -3 -5 -30 -10 -60 -10 -30 0 -57 5 -60 10 -3 6 -17 10 -30 10 -13 0
-27 5 -30 10 -3 6 -15 10 -26 10 -10 0 -19 5 -19 10 0 6 -11 10 -24 10 -14 0
-28 5 -31 10 -3 6 -17 10 -31 10 -13 0 -24 -4 -24 -10 0 -5 -9 -10 -20 -10
-11 0 -20 -4 -20 -9 0 -10 -120 48 -148 71 -9 8 -39 24 -65 37 -26 13 -58 33
-71 44 -12 12 -31 27 -42 33 -10 6 -24 21 -30 33 -6 12 -21 32 -33 45 -11 12
-21 32 -21 44 0 12 -4 22 -10 22 -5 0 -10 9 -10 20 0 16 -7 20 -33 20 -18 0
-38 -5 -44 -11 -9 -9 -20 -8 -45 4 -51 24 -88 76 -88 123 0 35 -22 54 -64 54
-36 0 -64 11 -99 40 -23 18 -57 91 -57 122 0 27 -21 78 -32 78 -5 0 -8 14 -8
30 0 17 -4 30 -9 30 -5 0 -11 9 -14 20 -3 11 -12 20 -21 20 -12 0 -16 10 -16
35 0 19 5 35 10 35 6 0 10 23 10 52 0 45 -4 57 -32 85 l-32 33 24 25 23 25
-22 19 c-19 16 -22 28 -19 78 3 55 4 58 31 61 23 3 27 8 27 36 0 20 8 40 20
51 21 19 27 69 10 80 -5 3 -10 24 -10 46 0 39 17 69 40 69 11 0 30 41 30 66 0
8 -7 14 -15 14 -16 0 -21 25 -6 35 5 3 12 19 16 36 4 18 16 34 29 39 12 4 28
15 35 24 7 9 18 16 24 16 15 0 57 41 57 56 0 6 6 16 13 23 18 15 37 -5 37 -39
0 -29 21 -80 33 -80 4 0 7 -13 7 -30 0 -16 5 -30 10 -30 6 0 10 -6 10 -14 0
-7 7 -19 15 -26 9 -7 25 -32 36 -54 30 -60 44 -84 62 -104 10 -10 17 -22 17
-26 0 -3 15 -22 33 -40 42 -43 97 -107 97 -112 0 -8 69 -74 78 -74 4 0 26 -18
47 -40 39 -40 165 -110 198 -110 9 0 17 -4 17 -10 0 -5 14 -10 30 -10 23 0 30
4 30 20 0 11 -7 20 -15 20 -9 0 -28 11 -43 25 -15 14 -46 35 -69 46 -24 11
-43 28 -43 36 0 9 -8 23 -18 32 -10 9 -26 32 -35 52 -17 38 -35 56 -71 74 -11
6 -22 21 -24 33 -2 12 -8 22 -13 22 -5 0 -9 8 -9 17 0 31 -72 165 -92 171 -12
3 -18 14 -18 33 0 15 -4 31 -10 34 -5 3 -10 19 -10 35 0 16 -9 45 -20 65 -11
20 -20 49 -20 64 0 16 -6 32 -12 34 -10 4 -9 8 2 16 12 9 13 14 3 31 -16 24
-17 56 -3 65 6 3 10 17 10 31 0 13 -4 24 -10 24 -5 0 -10 9 -10 20 0 11 4 20
8 20 5 0 14 16 22 35 8 20 22 43 32 52 10 9 18 26 18 38 0 27 18 45 46 45 12
0 27 7 34 15 7 8 23 15 36 15 12 0 26 5 29 10 3 6 23 10 44 10 23 0 45 7 59
20 12 11 28 20 37 20 8 0 15 3 15 8 0 4 15 13 33 21 17 8 41 21 52 30 32 25
63 41 83 41 10 0 29 11 42 25 15 16 34 25 55 25 19 0 36 7 45 20 22 31 45 21
48 -23z m752 -143 c0 -25 26 -44 59 -44 18 0 31 -5 31 -12 0 -17 46 -38 81
-38 15 0 31 -4 34 -10 3 -5 15 -10 26 -10 11 0 34 -15 52 -33 33 -32 33 -33
16 -62 -16 -29 -16 -31 4 -52 11 -13 25 -23 31 -23 14 0 56 -41 56 -55 0 -6
18 -29 40 -50 22 -21 40 -45 40 -52 0 -7 4 -13 9 -13 5 0 16 -15 24 -33 9 -18
25 -41 37 -52 11 -10 20 -24 20 -32 0 -7 5 -13 10 -13 6 0 10 -9 10 -20 0 -11
5 -20 10 -20 6 0 10 -7 10 -15 0 -8 18 -31 39 -51 22 -19 42 -48 46 -63 3 -16
19 -41 35 -56 26 -25 30 -36 30 -82 0 -29 -4 -53 -8 -53 -5 0 -15 -12 -23 -27
-33 -66 -118 -163 -141 -163 -8 0 -20 -9 -28 -20 -8 -11 -19 -20 -25 -20 -7 0
-22 -11 -35 -25 -13 -14 -32 -25 -42 -25 -10 0 -18 -4 -18 -10 0 -5 -6 -10
-14 -10 -7 0 -19 -7 -26 -15 -15 -18 -109 -65 -131 -65 -10 0 -20 -4 -24 -9
-3 -5 -19 -13 -37 -16 -17 -4 -47 -16 -65 -26 -19 -11 -42 -19 -53 -19 -10 0
-22 -5 -25 -10 -3 -6 -17 -10 -31 -10 -22 0 -25 4 -22 27 2 19 10 29 23 31 40
8 105 43 105 57 0 8 8 15 18 15 9 0 23 9 30 20 8 13 23 20 42 20 35 0 100 53
100 81 0 10 9 34 20 54 11 20 20 44 20 53 0 10 7 27 15 38 8 10 15 29 15 41 0
12 4 25 10 28 6 3 9 82 9 195 l0 190 -29 52 c-16 29 -41 78 -56 108 -16 30
-32 57 -36 58 -4 2 -8 12 -8 23 0 10 -4 19 -10 19 -5 0 -10 6 -10 14 0 15
-154 176 -168 176 -5 0 -17 9 -27 20 -10 11 -24 20 -30 20 -7 0 -18 7 -25 15
-7 8 -25 15 -39 15 -27 0 -81 20 -81 30 0 11 46 28 78 29 23 1 32 -3 32 -15z
m1110 -912 c0 -146 -1 -159 -20 -172 -11 -8 -20 -22 -20 -32 0 -10 -7 -18 -15
-18 -9 0 -19 -8 -22 -17 -9 -24 -41 -53 -58 -53 -12 0 -15 14 -15 65 0 37 -4
65 -10 65 -6 0 -10 35 -10 85 0 50 4 85 10 85 6 0 10 8 10 19 0 24 25 73 33
64 11 -10 8 -88 -4 -100 -5 -5 -9 -30 -7 -54 2 -33 8 -45 21 -47 12 -3 20 4
24 17 3 12 9 21 14 21 5 0 9 13 9 29 0 16 6 31 13 34 8 3 4 11 -12 24 -23 19
-23 22 -10 51 8 18 17 32 21 32 5 0 8 7 8 15 0 17 20 44 33 45 4 0 7 -71 7
-158z"/>
<path d="M2660 3270 c0 -20 32 -44 44 -33 3 3 6 17 6 30 0 18 -5 23 -25 23
-18 0 -25 -5 -25 -20z"/>
<path d="M2280 1962 c0 -4 6 -20 13 -35 9 -21 19 -27 43 -27 37 0 60 20 42 38
-7 7 -20 12 -29 12 -10 0 -21 5 -24 10 -7 12 -45 14 -45 2z"/>
<path d="M2520 1885 c-10 -12 -10 -18 0 -30 7 -8 17 -15 22 -15 5 0 16 7 24
15 14 13 14 17 0 30 -8 8 -19 15 -24 15 -5 0 -15 -7 -22 -15z"/>
<path d="M4362 3858 c-15 -15 -16 -38 -2 -38 6 0 10 -9 10 -20 0 -11 5 -20 10
-20 6 0 10 20 10 45 0 46 -7 54 -28 33z"/>
<path d="M945 3772 c-11 -15 -28 -44 -38 -64 -11 -21 -23 -38 -28 -38 -5 0 -9
-13 -9 -30 0 -59 46 -26 91 65 13 28 27 52 32 53 4 2 7 12 7 23 0 28 -32 23
-55 -9z"/>
<path d="M4502 2701 c-19 -15 -22 -29 -22 -85 0 -45 5 -72 14 -82 16 -15 46
-19 46 -5 0 5 9 11 19 14 22 5 37 71 26 109 -8 24 -43 68 -55 68 -4 0 -17 -8
-28 -19z"/>
<path d="M2000 335 c0 -8 -4 -15 -10 -15 -14 0 -12 -54 2 -68 20 -20 67 -14
93 13 31 30 31 36 2 63 -27 26 -87 31 -87 7z"/>
<path d="M2293 325 c-6 -14 -7 -25 -2 -25 5 0 9 -9 9 -20 0 -32 73 -28 107 6
38 38 22 58 -48 62 -49 2 -55 0 -66 -23z"/>
</g>
</svg>
