<?xml version="1.0" standalone="no"?>
<!DOCTYPE svg PUBLIC "-//W3C//DTD SVG 20010904//EN"
 "http://www.w3.org/TR/2001/REC-SVG-20010904/DTD/svg10.dtd">
<svg version="1.0" xmlns="http://www.w3.org/2000/svg"
 width="512.000000" height="512.000000" viewBox="0 0 512.000000 512.000000"
 preserveAspectRatio="xMidYMid meet">

<g transform="translate(0.000000,512.000000) scale(0.100000,-0.100000)"
fill="#000000" stroke="none">
<path d="M0 3915 l0 -1205 75 -150 75 -150 0 -415 0 -415 -75 -150 -75 -150 0
-640 0 -640 1280 0 1280 0 133 66 132 66 133 -66 132 -66 1015 0 1015 0 0
1015 0 1015 -66 133 -66 132 66 133 66 132 0 1280 0 1280 -320 0 -320 0 -130
-65 -130 -65 -130 65 -130 65 -625 0 -625 0 -150 -75 -150 -75 -415 0 -415 0
-150 75 -150 75 -640 0 -640 0 0 -1205z m2693 -816 c821 -617 1500 -1129 1509
-1138 16 -15 12 -48 -58 -536 -40 -285 -74 -520 -74 -522 0 -2 -136 -2 -302
-1 l-302 3 -192 225 -193 225 -39 163 c-22 90 -41 164 -43 166 -2 2 -72 32
-156 67 l-152 64 -897 1054 -896 1054 148 148 c82 82 150 149 152 149 1 0 674
-505 1495 -1121z m1305 898 l222 -222 -2 -448 -3 -447 -670 670 -670 670 450
0 450 0 223 -223z m-2195 -3095 l-448 -2 -227 227 -228 228 0 450 0 449 675
-674 675 -675 -447 -3z"/>
</g>
</svg>
