<?xml version="1.0" standalone="no"?>
<!DOCTYPE svg PUBLIC "-//W3C//DTD SVG 20010904//EN"
 "http://www.w3.org/TR/2001/REC-SVG-20010904/DTD/svg10.dtd">
<svg version="1.0" xmlns="http://www.w3.org/2000/svg"
 width="706.000000" height="822.000000" viewBox="0 0 706.000000 822.000000"
 preserveAspectRatio="xMidYMid meet">

<g transform="translate(0.000000,822.000000) scale(0.100000,-0.100000)"
fill="#000000" stroke="none">
<path d="M3197 8048 c-47 -84 -108 -205 -137 -268 -29 -63 -56 -119 -60 -125
-4 -5 -60 -109 -125 -230 -65 -121 -155 -276 -200 -345 -45 -69 -90 -141 -100
-160 -24 -46 -398 -589 -452 -655 -42 -52 -146 -190 -188 -249 -22 -32 -60
-85 -84 -118 -55 -78 -118 -177 -99 -158 17 17 268 353 310 415 149 217 299
428 318 445 14 13 169 221 186 249 10 17 21 31 24 31 13 0 71 62 75 80 4 21
45 82 94 140 16 19 25 37 20 41 -10 6 32 86 77 146 13 17 24 38 24 46 0 34 72
139 146 213 44 43 52 52 17 20 -34 -33 -65 -57 -68 -54 -8 8 24 80 47 105 11
12 18 25 15 30 -16 25 104 193 138 193 16 0 8 -45 -10 -60 -9 -7 -12 -23 -8
-45 4 -24 0 -43 -13 -62 -10 -16 -17 -38 -16 -49 2 -12 -3 -37 -11 -56 -8 -18
-17 -59 -21 -91 -4 -31 -12 -57 -17 -57 -6 0 -8 -8 -4 -19 3 -10 -1 -38 -8
-62 -8 -24 -15 -61 -16 -83 -1 -21 -9 -66 -17 -100 -8 -33 -17 -73 -19 -89 -3
-15 -12 -58 -21 -95 -8 -37 -17 -83 -18 -102 -2 -19 -9 -62 -15 -95 -7 -33
-14 -75 -16 -93 -10 -100 -28 -178 -43 -190 -13 -10 -14 -15 -4 -21 9 -5 10
-19 1 -57 -5 -27 -10 -62 -9 -78 0 -15 -5 -35 -12 -43 -7 -9 -11 -30 -9 -48 1
-18 -3 -36 -9 -40 -9 -6 -9 -9 0 -15 8 -5 9 -17 1 -46 -5 -21 -12 -77 -16
-123 -3 -46 -8 -88 -12 -94 -3 -5 -7 -40 -9 -78 -2 -38 -7 -85 -13 -106 -5
-21 -12 -76 -16 -123 -6 -75 -10 -88 -34 -110 -15 -14 -33 -34 -41 -45 -9 -12
-2 -9 16 8 17 15 33 27 37 27 13 0 7 -66 -9 -88 -8 -12 -10 -22 -5 -22 6 0 11
-10 11 -22 0 -51 9 -3 25 127 90 764 176 1282 326 1964 39 176 135 569 175
719 16 58 -22 8 -99 -130z m33 -64 c-14 -66 -22 -83 -64 -131 -27 -29 -51 -52
-53 -49 -6 5 119 256 128 256 3 0 -2 -34 -11 -76z"/>
<path d="M4652 8164 c-12 -23 1 -216 22 -334 14 -71 23 -158 32 -280 2 -30 11
-104 19 -165 26 -184 33 -244 49 -401 18 -180 43 -329 61 -366 9 -19 11 -37 5
-57 -10 -35 3 -204 29 -396 19 -129 62 -485 76 -615 6 -62 9 -81 30 -235 9
-60 17 -123 19 -140 3 -16 14 -100 25 -185 50 -377 76 -969 52 -1167 -39 -311
-95 -610 -121 -637 -5 -5 -43 16 -90 50 -77 55 -119 96 -182 175 -15 19 -27
31 -27 28 -1 -3 13 -24 30 -45 93 -116 130 -262 95 -374 -31 -99 -157 -302
-253 -408 -73 -80 -148 -137 -159 -121 -6 10 29 47 94 97 82 63 229 275 264
379 41 125 9 295 -79 430 -10 15 -16 36 -15 47 4 18 3 18 -13 3 -8 -9 -21 -31
-28 -49 -16 -43 -59 -118 -68 -118 -15 0 -19 51 -6 88 19 55 62 107 103 127
20 9 33 19 31 22 -3 3 -14 0 -24 -5 -14 -9 -24 -5 -50 21 -18 17 -33 26 -33
19 0 -18 -40 -14 -47 4 -3 9 -1 19 6 23 9 6 8 11 -4 21 -9 7 -36 54 -61 104
-54 106 -80 145 -169 240 -25 26 -45 52 -45 57 0 5 -7 9 -15 9 -8 0 -43 13
-77 30 -35 16 -81 34 -103 40 -23 5 -44 18 -50 29 -6 11 -33 62 -61 113 -86
156 -230 449 -257 523 -31 87 -88 326 -86 363 1 15 -4 53 -11 85 -11 49 -16
57 -37 57 -20 0 -23 -5 -23 -34 0 -19 -4 -38 -10 -41 -5 -3 -10 -22 -10 -42 0
-31 -2 -34 -15 -23 -14 11 -14 10 -5 -16 12 -30 6 -74 -9 -74 -5 0 -7 -8 -5
-17 6 -25 -11 -78 -24 -76 -7 2 -9 -10 -5 -31 3 -21 -1 -45 -10 -63 -8 -15
-19 -44 -25 -63 -10 -36 -11 -35 -30 30 -10 30 -10 25 -5 -31 5 -71 -2 -129
-18 -129 -5 0 -9 11 -9 24 0 29 -18 81 -26 74 -2 -3 1 -35 9 -70 13 -64 12
-92 -2 -84 -4 3 -5 -12 -3 -32 3 -35 2 -36 -12 -18 -9 11 -16 24 -16 30 0 5
-3 7 -6 4 -3 -4 2 -20 11 -37 15 -30 13 -51 -4 -51 -5 0 -14 14 -21 30 -19 45
-30 36 -13 -12 8 -23 12 -53 10 -67 -3 -26 -4 -26 -16 7 -18 44 -23 36 -13
-20 10 -49 -1 -94 -19 -82 -9 5 -10 -1 -5 -20 7 -30 -10 -70 -26 -60 -7 5 -9
0 -6 -14 4 -15 2 -22 -8 -22 -9 0 -14 -12 -14 -36 0 -29 -3 -35 -16 -30 -13 5
-14 1 -9 -26 6 -27 5 -30 -10 -24 -14 5 -17 2 -13 -18 7 -33 -8 -57 -22 -36
-8 11 -9 5 -4 -21 6 -39 -11 -63 -27 -38 -6 9 -7 -1 -3 -27 6 -44 -10 -69 -27
-43 -6 9 -6 1 -2 -20 5 -30 4 -34 -12 -28 -14 6 -16 3 -11 -18 9 -34 -1 -50
-21 -34 -13 11 -14 8 -8 -24 6 -29 4 -38 -9 -43 -10 -4 -16 -18 -16 -36 0 -23
-4 -29 -15 -24 -11 4 -15 -2 -15 -24 0 -16 -7 -35 -15 -44 -8 -8 -15 -22 -15
-30 0 -19 -26 -22 -33 -3 -2 6 -4 -6 -3 -28 1 -32 -2 -39 -16 -37 -12 2 -15
-3 -11 -17 5 -21 -12 -61 -27 -61 -6 0 -8 17 -4 43 4 30 3 38 -5 27 -7 -11
-10 -2 -10 35 0 28 -6 90 -15 140 -8 49 -12 92 -7 95 4 3 8 12 8 20 0 8 49
114 109 235 112 224 162 335 209 460 15 39 43 111 64 160 21 50 53 127 71 173
20 50 38 82 47 82 10 0 12 6 8 21 -8 24 13 81 26 73 12 -7 11 7 -1 26 -10 16
-18 -2 -80 -160 -18 -47 -44 -112 -57 -145 -14 -33 -36 -87 -50 -120 -31 -77
-67 -160 -110 -260 -47 -107 -207 -432 -232 -472 -21 -33 -56 -44 -64 -21 -2
7 -2 4 1 -7 2 -11 5 -52 6 -92 0 -39 4 -74 7 -77 12 -12 -1 -89 -18 -110 -18
-21 -18 -21 3 -3 21 18 22 17 28 -8 4 -15 4 -36 1 -46 -4 -11 -2 -25 3 -32 5
-7 13 -40 17 -74 6 -55 4 -66 -14 -89 -12 -15 -21 -32 -21 -38 0 -6 8 1 18 17
9 15 21 26 27 24 13 -5 15 -56 3 -79 -6 -13 -5 -18 6 -18 22 0 32 -48 16 -74
-12 -19 -12 -20 3 -7 14 11 17 11 21 0 11 -35 18 -77 20 -111 0 -21 4 -38 9
-38 4 0 7 -18 7 -40 0 -23 5 -40 11 -40 7 0 9 -10 7 -25 -3 -14 -1 -25 3 -25
9 0 24 -48 21 -66 -1 -6 5 -17 13 -24 8 -7 15 -21 15 -31 0 -10 5 -21 10 -24
6 -3 10 -16 10 -28 0 -12 7 -31 15 -41 8 -11 15 -27 15 -35 0 -9 9 -34 19 -56
11 -22 23 -47 26 -55 3 -8 11 -24 18 -35 106 -173 100 -164 184 -275 59 -78
310 -332 358 -362 38 -24 119 -87 140 -109 6 -5 21 -20 35 -32 73 -62 183
-184 210 -232 35 -60 47 -133 36 -209 -9 -55 -27 -76 -67 -76 -63 0 -116 45
-124 105 -2 21 -17 57 -32 79 -39 57 -170 188 -283 280 -230 189 -414 380
-522 541 -49 74 -59 94 -54 118 5 26 4 28 -9 17 -9 -7 -17 -11 -19 -9 -19 19
-102 177 -145 274 -29 66 -61 136 -71 155 -21 41 -89 254 -125 395 -14 55 -36
141 -50 190 -14 50 -25 106 -23 125 1 20 -1 40 -5 46 -3 6 -8 31 -11 55 -3 24
-12 107 -20 184 -31 278 -15 693 40 1060 41 271 74 456 84 476 6 10 10 32 10
49 0 17 6 46 14 65 8 18 12 35 10 38 -8 8 28 202 42 225 10 15 11 22 3 22 -15
0 -3 49 18 73 10 10 12 17 5 17 -19 0 -14 45 8 73 24 30 25 38 5 31 -16 -7
-16 -3 6 101 6 28 13 68 16 90 3 22 10 45 15 52 5 7 7 16 4 21 -2 4 -1 26 5
48 5 21 11 65 13 97 4 73 -10 75 -62 4 -21 -28 -47 -58 -56 -66 -11 -9 -13
-17 -6 -21 6 -4 0 -25 -17 -58 -46 -86 -124 -224 -158 -277 -18 -27 -65 -108
-105 -180 -40 -71 -90 -158 -111 -192 -21 -34 -39 -64 -39 -67 0 -2 -27 -52
-61 -112 -77 -137 -216 -408 -253 -494 -39 -89 -79 -216 -107 -335 -20 -86
-23 -126 -23 -285 0 -136 5 -210 19 -280 35 -184 21 -437 -31 -546 -14 -28
-13 -39 6 -110 57 -219 42 -531 -32 -651 -24 -40 -17 -56 54 -114 29 -24 103
-88 163 -144 61 -55 157 -140 214 -190 57 -49 129 -112 160 -139 31 -26 88
-76 126 -111 148 -131 176 -155 203 -172 15 -9 63 -47 107 -83 44 -36 100 -81
125 -100 25 -19 47 -37 50 -40 19 -21 162 -140 168 -140 8 0 47 -33 156 -130
71 -64 245 -205 296 -240 19 -13 49 -35 66 -49 17 -14 61 -48 98 -74 36 -27
66 -51 66 -55 0 -4 -30 -38 -66 -77 l-65 -70 -22 29 c-129 169 -261 299 -541
529 -55 45 -145 120 -201 167 -56 47 -142 118 -191 159 -49 40 -96 81 -104 90
-8 9 -44 39 -80 68 -36 28 -76 63 -90 78 -21 23 -113 96 -357 285 -17 14 -94
72 -170 129 -237 178 -334 255 -473 375 -102 88 -369 291 -382 291 -5 0 -8 3
-8 8 0 9 -51 54 -100 87 -19 13 -79 63 -133 110 -115 100 -212 177 -282 224
-27 19 -61 46 -75 61 -25 27 -60 50 -60 40 0 -4 379 -324 541 -455 94 -77 409
-350 409 -355 0 -12 -68 -37 -137 -50 -87 -17 -143 -19 -143 -6 0 4 -34 11
-75 14 -85 8 -99 13 -169 68 -47 38 -88 49 -101 29 -3 -6 1 -7 9 -4 9 3 44
-13 83 -39 37 -24 82 -52 98 -60 17 -9 41 -25 55 -36 21 -16 22 -21 11 -35 -8
-9 -11 -20 -7 -24 4 -4 13 1 20 11 14 19 46 23 46 7 0 -6 -11 -22 -26 -36 -14
-14 -24 -33 -22 -42 2 -10 13 -1 32 26 28 41 58 53 72 30 5 -7 -8 -25 -31 -45
-30 -26 -36 -36 -27 -45 9 -9 12 -9 12 0 0 16 60 82 75 82 7 0 19 -7 26 -16
12 -14 8 -21 -26 -50 -22 -18 -37 -36 -33 -39 4 -4 23 12 43 34 40 44 62 51
72 25 4 -11 -3 -23 -20 -36 -15 -11 -27 -26 -27 -34 0 -9 17 3 38 26 22 22 44
40 50 40 21 0 13 -28 -14 -49 -14 -11 -24 -26 -22 -32 2 -6 16 5 31 25 16 20
37 36 48 36 28 0 24 -11 -21 -60 -22 -23 -37 -47 -34 -52 3 -5 -3 -19 -14 -31
-54 -59 -207 -333 -251 -449 -10 -28 -10 -28 32 -27 38 1 39 2 12 8 -40 9 -37
19 38 161 111 208 274 437 367 514 65 53 88 60 74 21 -6 -15 -4 -16 13 -7 15
8 25 8 38 -2 16 -12 16 -15 -14 -56 -38 -52 -39 -68 -6 -76 14 -3 25 -11 25
-16 0 -19 -45 -47 -75 -48 -27 0 -42 -16 -134 -137 -105 -138 -121 -166 -102
-177 5 -4 66 -2 135 4 69 5 152 7 185 4 51 -6 58 -9 54 -25 -6 -23 10 -25 27
-4 14 17 45 21 34 4 -5 -8 -1 -8 14 0 26 14 55 14 47 1 -8 -13 8 -13 22 1 16
16 66 0 58 -20 -5 -13 -4 -14 6 -3 14 13 51 16 62 6 3 -4 32 -8 64 -11 73 -5
84 -15 52 -50 l-24 -26 35 26 c34 25 80 28 80 6 0 -5 11 -7 25 -3 25 6 35 -8
15 -21 -5 -3 -10 -11 -10 -17 0 -6 8 -4 18 5 20 18 52 23 52 8 0 -5 -7 -11
-15 -15 -8 -3 -15 -10 -15 -16 0 -6 12 -2 26 9 32 25 59 28 50 6 -4 -12 -2
-13 13 -6 21 11 91 -6 91 -22 0 -14 -61 -67 -76 -67 -7 0 -16 5 -19 10 -3 6
-17 7 -30 4 -24 -6 -43 10 -25 21 5 3 10 11 10 16 0 5 -13 0 -29 -12 -27 -20
-58 -19 -46 2 8 13 -9 11 -22 -2 -6 -6 -16 -8 -23 -4 -8 5 -6 13 7 28 17 20
17 20 -14 -1 -35 -25 -59 -28 -66 -9 -3 9 -7 9 -18 0 -8 -7 -25 -10 -37 -6
-18 4 -20 8 -10 27 10 20 10 20 -14 -2 -15 -14 -31 -20 -41 -16 -23 8 -21 20
5 38 12 9 18 16 14 16 -5 0 -24 -12 -43 -26 -39 -30 -68 -28 -67 4 1 20 -1 21
-16 7 -17 -16 -60 -21 -60 -7 0 4 6 14 13 21 6 7 -5 3 -26 -9 -28 -17 -43 -20
-59 -13 -19 8 -18 11 23 52 33 33 36 39 14 23 -16 -11 -41 -31 -53 -45 -23
-25 -26 -25 -180 -25 -150 0 -287 -12 -362 -32 -25 -7 -1 -8 80 -4 286 14 402
15 500 4 433 -45 676 -88 882 -155 82 -27 96 -36 235 -153 203 -170 220 -186
249 -243 139 -274 157 -644 43 -884 -17 -36 -46 -86 -64 -110 -46 -60 -33 -70
89 -69 177 2 344 81 503 239 52 51 95 89 97 86 2 -3 16 -44 31 -91 39 -121 65
-181 93 -215 26 -31 151 -135 163 -135 4 0 10 12 13 26 6 22 11 25 33 21 41
-8 73 34 177 238 67 129 88 180 78 190 -6 5 -25 -30 -138 -253 -20 -40 -53
-91 -74 -114 l-37 -42 -30 45 c-58 84 -163 320 -163 366 0 23 95 169 118 182
9 5 49 12 87 16 l71 7 40 -49 c22 -26 55 -69 73 -96 18 -26 36 -45 42 -42 13
8 -1 31 -66 111 -31 37 -60 75 -64 83 -7 11 -26 14 -76 12 -63 -2 -66 -1 -60
18 8 25 -41 73 -67 65 -10 -3 -19 2 -23 16 -11 35 -24 22 -14 -15 7 -26 6 -41
-5 -62 -28 -56 -101 -103 -156 -103 -27 0 -30 -3 -25 -20 7 -23 -7 -26 -25 -5
-16 19 29 81 132 183 l74 73 139 5 c76 3 148 3 161 0 14 -4 48 -44 94 -113 40
-58 78 -112 85 -120 8 -7 16 -21 20 -32 6 -20 -54 -202 -110 -331 -47 -109
-50 -120 -31 -96 8 10 27 50 42 88 17 44 30 66 37 61 7 -3 40 -26 74 -50 123
-87 343 -173 444 -173 32 0 99 17 99 25 0 2 -14 25 -30 52 -41 65 -95 221
-116 329 -20 111 -15 347 11 439 22 80 75 189 120 248 20 26 38 57 40 68 4 22
44 71 104 129 20 20 73 80 119 134 55 64 89 96 98 92 9 -3 19 3 25 18 8 16 44
39 118 73 131 62 151 69 151 51 0 -8 4 -6 11 5 13 22 33 22 25 0 -3 -11 5 -6
20 11 20 23 28 26 34 15 7 -11 10 -11 15 3 6 16 54 41 71 37 5 -1 22 3 38 10
38 16 45 6 16 -24 -13 -14 -21 -27 -18 -30 2 -3 19 13 37 35 25 31 38 40 59
38 15 -1 37 4 49 10 29 16 90 15 97 0 3 -9 8 -8 16 4 10 16 29 18 166 18 93 0
154 4 152 9 -1 6 -32 40 -67 77 -79 82 -206 166 -304 201 l-75 26 -38 -31
c-38 -31 -127 -62 -140 -50 -6 7 216 256 239 270 15 8 102 -29 192 -81 97 -57
179 -140 397 -404 64 -77 153 -228 142 -240 -3 -3 -16 -2 -28 3 -78 29 -511
41 -651 17 l-90 -16 80 6 c120 9 403 5 502 -7 49 -6 115 -13 147 -17 l59 -6
-7 34 c-22 110 -286 461 -453 600 l-75 63 29 20 c85 62 172 166 232 281 28 54
27 75 -4 75 -23 0 -104 -36 -115 -51 -9 -13 -147 -47 -159 -40 -7 5 23 44 81
107 267 290 639 711 508 574 -102 -107 -384 -406 -495 -525 -66 -72 -176 -188
-245 -260 -69 -71 -172 -186 -230 -254 -84 -100 -271 -311 -325 -367 -5 -6
-35 -39 -65 -74 -30 -35 -62 -70 -70 -78 -8 -8 -22 -25 -30 -37 -16 -25 -157
-185 -311 -354 -112 -122 -146 -162 -348 -402 -82 -97 -167 -203 -189 -236
-50 -74 -66 -88 -80 -71 -22 28 -72 120 -72 133 0 8 29 45 64 82 35 38 83 91
107 120 24 29 116 132 204 229 88 97 188 211 223 253 35 42 150 164 256 271
193 197 387 401 553 585 49 55 97 106 106 114 20 16 16 55 -19 181 -67 241
-88 488 -68 782 10 143 11 217 4 269 -20 139 -13 356 21 686 10 98 11 153 1
272 -13 151 -55 358 -90 435 -36 82 -122 246 -206 396 -75 134 -87 160 -82
190 4 27 3 31 -5 18 -25 -43 -46 -1 -23 45 l15 32 -20 -25 -19 -24 -14 29 c-7
17 -21 39 -30 49 -10 11 -18 23 -18 28 0 14 54 118 62 118 16 0 29 -40 18 -59
-14 -26 -13 -38 2 -23 17 17 26 15 38 -8 8 -15 7 -26 -1 -42 -11 -21 -11 -22
5 -9 9 8 18 12 20 10 3 -5 52 -92 75 -134 9 -16 73 -115 142 -220 172 -261
187 -290 268 -531 98 -293 111 -480 51 -749 -29 -134 -24 -296 11 -303 9 -1
55 28 102 65 47 37 118 86 158 107 61 33 84 40 147 44 70 4 104 0 242 -34 30
-7 56 -12 57 -10 2 2 -144 237 -323 522 -180 286 -350 555 -377 599 -28 44
-97 152 -155 239 -58 88 -133 207 -167 265 -34 58 -112 188 -173 289 -61 100
-127 217 -147 260 -43 91 -77 157 -118 232 -16 30 -36 67 -44 82 -8 15 -18 30
-23 33 -15 9 -61 106 -55 116 4 5 1 8 -6 7 -7 -2 -17 11 -23 27 -6 17 -16 36
-23 43 -6 6 -15 21 -18 32 -3 11 -11 20 -16 20 -14 0 -11 -34 6 -56 8 -10 15
-34 15 -51 0 -18 4 -33 9 -33 5 0 12 -14 16 -31 4 -17 13 -42 21 -57 8 -15 14
-35 14 -44 0 -10 4 -18 9 -18 5 0 13 -15 16 -32 4 -18 11 -37 15 -43 4 -5 11
-26 15 -45 4 -19 13 -43 21 -54 7 -10 10 -25 7 -32 -3 -8 -1 -14 5 -14 6 0 13
-13 17 -29 3 -16 26 -68 50 -115 25 -47 44 -87 43 -89 0 -1 9 -21 21 -44 26
-52 26 -73 2 -104 -10 -13 -21 -34 -25 -46 -13 -41 -22 -32 -60 57 -11 24 -36
65 -37 60 0 -3 -2 -14 -4 -25 -2 -11 0 -36 4 -56 6 -26 3 -47 -10 -80 -25 -60
-24 -80 2 -49 l21 25 -6 -25 c-3 -14 -8 -38 -12 -54 -6 -25 -5 -28 13 -22 19
6 20 4 13 -34 -6 -32 -4 -40 8 -40 12 0 13 -10 8 -60 -5 -44 -4 -60 5 -60 8 0
10 -17 6 -57 -3 -32 -2 -49 2 -39 12 31 18 9 31 -109 6 -60 20 -177 30 -260
41 -326 52 -503 53 -900 1 -214 -1 -433 -5 -485 -23 -285 -41 -425 -60 -447
-5 -7 -8 -18 -5 -25 2 -7 0 -26 -5 -43 -5 -16 -11 -42 -13 -57 -2 -15 -8 -35
-13 -45 -5 -10 -13 -38 -17 -63 -7 -49 -43 -159 -57 -175 -4 -5 -8 -19 -8 -32
0 -12 -6 -37 -14 -55 -19 -47 -36 -98 -46 -136 -4 -18 -14 -39 -21 -48 -7 -8
-14 -27 -15 -41 -2 -15 -12 -39 -24 -54 -11 -16 -20 -35 -20 -44 0 -9 -27 -63
-60 -120 -33 -57 -60 -109 -60 -115 0 -6 -17 -29 -38 -53 -21 -23 -42 -49 -45
-57 -4 -8 -35 -49 -69 -91 -35 -42 -85 -105 -113 -140 -27 -35 -65 -77 -82
-93 -18 -16 -33 -35 -33 -41 0 -7 -10 -25 -22 -41 -41 -52 -127 -215 -156
-295 -40 -111 -71 -166 -100 -178 -38 -16 -77 -1 -96 37 -14 27 -14 39 0 116
8 47 28 115 44 152 38 83 173 289 271 411 153 191 244 322 321 461 16 28 33
52 36 52 4 0 18 28 31 62 13 35 39 102 57 149 19 48 34 90 34 95 0 4 15 24 33
43 17 19 24 29 14 22 -9 -8 -20 -12 -22 -9 -3 2 6 40 19 84 47 156 109 453
109 522 0 23 4 38 7 31 7 -11 14 26 46 256 8 61 20 144 26 185 13 94 4 481
-16 680 -8 80 -17 183 -21 230 -6 71 -31 256 -76 540 -11 71 -15 113 -34 300
-18 172 -22 206 -70 550 -3 25 -8 65 -10 90 -2 25 -4 45 -5 45 -10 0 -6 54 5
82 19 45 19 59 1 44 -17 -15 -27 5 -16 34 4 11 2 31 -5 45 -7 14 -16 66 -19
115 -4 50 -12 107 -17 128 -5 20 -9 43 -8 50 1 6 0 19 -4 27 -3 8 -8 35 -11
60 -2 25 -12 90 -20 144 -9 55 -20 154 -26 220 -5 67 -14 154 -20 194 -29 211
-30 215 -12 229 16 12 16 13 0 7 -13 -4 -18 2 -22 28 -45 265 -62 418 -46 418
14 0 38 -52 56 -122 19 -72 20 -96 10 -121 -6 -13 -5 -16 8 -11 12 5 16 0 16
-21 0 -14 -5 -36 -12 -48 -10 -19 -9 -20 4 -10 20 17 28 7 28 -33 0 -18 5 -36
11 -40 7 -4 9 -20 6 -40 -3 -18 -1 -34 5 -36 5 -2 14 -39 20 -83 6 -44 14 -89
18 -100 13 -30 28 -88 28 -105 0 -13 23 -102 52 -205 11 -41 28 -88 57 -162
14 -34 23 -63 22 -65 -2 -2 4 -14 14 -28 9 -13 17 -35 17 -48 0 -12 7 -25 16
-29 9 -3 38 -54 66 -112 28 -58 68 -136 89 -173 22 -36 39 -71 39 -77 0 -6 12
-30 27 -54 14 -23 40 -67 56 -97 16 -30 35 -62 42 -70 7 -8 29 -46 50 -85 21
-38 52 -92 70 -120 18 -27 68 -106 111 -173 43 -68 165 -252 269 -409 105
-156 228 -344 274 -416 46 -73 181 -277 300 -454 119 -177 244 -364 278 -415
92 -137 161 -236 209 -298 59 -78 97 -148 89 -168 -4 -13 0 -11 16 5 l22 21
-95 134 c-249 350 -408 585 -710 1048 -123 190 -292 445 -374 568 -82 123
-156 235 -165 250 -9 15 -58 92 -109 172 -473 737 -644 1131 -790 1820 -22
103 -50 221 -61 261 -11 41 -25 95 -31 120 -5 26 -20 59 -33 75 -21 27 -23 27
-33 8z m-2197 -2536 c-4 -24 -11 -47 -15 -51 -13 -14 -22 50 -10 72 19 36 32
25 25 -21z m-38 -163 l-11 -29 -8 24 c-5 18 -7 12 -7 -25 1 -96 0 -105 -17
-105 -13 0 -15 -7 -9 -40 7 -41 -9 -109 -29 -122 -7 -5 -6 -8 3 -8 10 0 12
-10 7 -42 -17 -105 -31 -61 -48 149 -11 147 -8 184 13 153 8 -11 9 -10 4 8 -7
25 2 62 15 62 5 0 11 -15 13 -32 2 -21 4 -12 5 23 1 36 7 61 17 69 13 11 15 7
15 -25 0 -21 3 -35 7 -31 4 4 6 27 4 51 -4 71 12 77 26 10 9 -46 10 -67 0 -90z
m-122 -315 c13 -120 19 -205 16 -235 -4 -31 -20 33 -31 120 -6 55 -18 146 -26
203 -11 82 -12 108 -2 125 12 20 13 18 20 -28 4 -27 14 -111 23 -185z m3104
100 c15 -30 32 -64 38 -75 6 -11 16 -36 22 -55 10 -35 10 -35 5 -2 -3 17 -3
32 1 32 8 0 85 -160 85 -177 0 -7 -10 -17 -22 -24 -18 -10 -24 -8 -39 12 l-19
24 6 -31 c5 -26 2 -33 -14 -38 -11 -4 -23 -17 -26 -29 -5 -18 -8 -20 -16 -7
-8 12 -9 9 -5 -10 3 -14 1 -32 -5 -40 -9 -13 -11 -13 -20 0 -5 8 -10 24 -11
35 0 11 -2 31 -4 45 -4 31 -5 69 -3 95 0 11 -2 38 -7 59 -6 31 -5 37 5 31 10
-6 12 -3 8 13 -3 12 -2 22 3 24 5 2 0 27 -11 57 -24 61 -21 94 3 41 8 -19 16
-29 16 -22 1 7 -8 30 -19 52 -21 42 -29 88 -10 60 6 -8 23 -40 39 -70z m-3160
-42 c5 -46 12 -99 15 -118 2 -19 9 -69 16 -110 28 -182 30 -290 6 -290 -9 0
-10 -16 -5 -57 12 -93 10 -113 -7 -120 -9 -3 -20 0 -25 8 -6 10 -9 3 -9 -21 0
-29 -8 -43 -52 -82 -29 -27 -55 -48 -59 -48 -11 0 -19 41 -19 98 0 28 -4 52
-8 52 -8 0 -7 -52 3 -128 7 -54 -62 -110 -80 -64 -13 35 -18 219 -6 227 20 12
23 1 31 -105 9 -143 18 -133 12 15 -4 108 -3 125 11 125 8 0 18 -6 20 -12 3
-7 6 -1 6 13 1 15 7 32 15 38 12 10 15 7 19 -16 3 -25 4 -24 6 8 2 59 37 80
44 27 3 -23 4 -17 5 19 3 84 27 81 42 -5 7 -37 8 -30 3 29 -5 77 1 119 17 119
5 0 11 -12 13 -27 11 -59 -6 167 -19 271 -8 61 -14 111 -14 113 0 2 -8 3 -17
2 -11 0 -13 -3 -5 -6 14 -5 17 -33 3 -33 -4 0 -6 -11 -3 -25 2 -14 9 -25 14
-25 6 0 8 -7 5 -15 -4 -8 -3 -17 2 -19 4 -3 8 -26 9 -51 0 -45 0 -46 -19 -29
-10 9 -21 25 -24 35 -4 11 -12 16 -21 12 -7 -3 -14 0 -14 7 0 8 -10 10 -34 6
-42 -8 -54 6 -26 34 25 25 37 25 44 3 3 -10 2 6 -1 36 -5 47 -3 53 11 48 12
-5 16 0 16 21 0 26 15 52 31 52 4 0 5 -10 1 -22 -3 -14 -2 -19 6 -14 7 4 12
29 12 57 0 77 17 58 29 -33z m-139 -346 c0 -12 3 -12 15 -2 8 7 16 10 16 6 1
-3 2 -9 3 -13 1 -5 5 -14 9 -20 9 -14 -39 -123 -54 -123 -12 0 -11 7 2 31 13
25 3 59 -18 59 -8 0 -13 6 -10 13 2 7 -11 16 -32 23 l-36 10 30 16 c36 19 75
19 75 0z m1487 -119 c28 -60 72 -173 98 -252 52 -158 59 -228 31 -295 -9 -21
-16 -42 -16 -46 0 -5 30 -27 66 -50 36 -23 64 -43 62 -46 -3 -2 -31 9 -64 25
-53 27 -64 29 -109 22 -27 -5 -53 -7 -57 -4 -16 9 -7 32 19 53 53 41 83 145
63 220 -11 43 -72 222 -90 265 -5 11 -18 41 -29 68 -11 26 -24 47 -28 47 -13
0 -36 -42 -99 -181 -54 -118 -57 -128 -58 -209 -1 -110 16 -167 65 -219 50
-52 51 -71 3 -71 -29 0 -43 -7 -70 -37 -72 -78 -99 -175 -75 -263 7 -24 8 -23
37 20 16 25 46 56 67 69 38 25 44 41 8 21 -39 -21 -23 15 28 63 67 63 157 106
235 114 56 5 65 3 91 -20 l30 -25 -40 -7 c-56 -9 -108 -28 -112 -42 -2 -6 13
-14 38 -18 l41 -7 -57 -23 c-60 -25 -105 -60 -105 -82 0 -18 1 -17 72 17 34
17 72 30 85 30 34 0 29 -29 -7 -43 -48 -18 -38 -37 20 -35 94 4 80 -21 -33
-57 -73 -24 -129 -57 -116 -69 2 -2 29 6 61 20 66 28 138 41 138 26 0 -21
-131 -132 -155 -132 -4 0 -46 -18 -93 -39 -118 -53 -253 -103 -259 -97 -13 12
76 112 129 147 54 35 57 39 39 49 -17 9 -30 3 -80 -35 -33 -25 -70 -59 -81
-75 -23 -32 -40 -39 -40 -17 0 30 64 138 107 182 25 25 43 48 41 50 -2 3 -27
-16 -55 -40 -41 -36 -52 -42 -55 -28 -2 9 -15 -19 -30 -63 -14 -43 -32 -79
-40 -80 -7 0 -20 -2 -29 -2 -9 -1 -28 -13 -42 -26 l-26 -24 -41 44 c-45 49
-63 55 -58 22 2 -13 10 -23 19 -23 9 0 62 -47 118 -105 89 -92 101 -109 101
-139 l0 -35 -27 31 c-41 46 -113 107 -113 95 0 -5 20 -30 44 -54 86 -84 106
-116 106 -169 0 -27 -2 -49 -5 -49 -15 0 -73 35 -98 59 -39 36 -53 66 -67 141
-6 36 -13 73 -16 83 -3 11 0 17 10 17 13 0 13 3 0 30 -9 17 -19 30 -23 30 -18
0 -82 -80 -105 -131 -63 -137 -36 -314 69 -451 18 -25 69 -68 112 -97 80 -52
195 -138 235 -175 19 -18 73 -59 146 -111 12 -9 22 -19 22 -23 0 -9 -122 -92
-136 -92 -5 0 -44 41 -85 92 -41 51 -140 161 -220 244 -125 130 -152 163 -183
230 -46 95 -70 186 -63 236 3 20 23 73 46 117 35 71 37 79 18 68 -12 -6 -43
-32 -69 -56 -26 -25 -50 -42 -54 -39 -3 4 -9 31 -13 60 -6 50 -5 55 27 96 77
95 268 210 355 213 26 1 47 5 48 8 0 3 2 61 4 127 3 107 7 128 29 173 15 28
46 72 70 97 l44 46 -24 35 c-19 28 -24 49 -24 97 0 103 23 178 164 525 14 36
26 71 26 78 0 7 8 13 19 13 13 0 31 -28 68 -107z m-1546 53 c14 -24 25 -33 36
-29 11 4 14 2 11 -8 -3 -8 -11 -13 -17 -11 -7 1 -11 -13 -11 -38 0 -43 -18
-60 -65 -60 -58 0 -83 38 -65 100 25 86 75 107 111 46z m3479 -27 c0 -5 -7 -9
-15 -9 -15 0 -20 12 -9 23 8 8 24 -1 24 -14z m546 -51 c8 -15 22 -29 33 -33
21 -6 141 -177 141 -200 0 -8 5 -17 10 -20 6 -4 24 -33 41 -66 16 -33 34 -57
39 -54 11 7 10 10 -30 70 -26 39 -43 75 -36 75 3 0 21 -28 43 -63 21 -34 44
-72 50 -82 13 -20 65 -114 71 -127 2 -5 -1 -8 -7 -8 -5 0 -26 27 -47 60 -20
33 -40 57 -45 54 -4 -2 -16 7 -25 21 -30 46 -26 19 6 -35 42 -70 33 -73 -15
-5 -40 58 -59 78 -48 49 4 -12 3 -15 -5 -10 -7 4 -6 -7 4 -31 14 -35 13 -36
-1 -18 -26 32 -46 75 -36 75 7 0 7 9 1 25 -7 17 -6 25 1 25 8 0 8 4 2 13 -6 6
-13 23 -16 37 -6 24 -6 24 19 -5 22 -27 24 -27 13 -5 -18 36 -90 150 -96 150
-2 0 -2 -10 2 -22 5 -19 0 -16 -27 13 -23 25 -40 35 -55 33 -17 -3 -27 4 -38
25 -8 17 -12 36 -9 45 3 8 1 22 -4 32 -5 9 -7 25 -4 36 4 18 6 18 29 -4 14
-13 31 -35 39 -50z m-529 40 c-3 -8 -6 -5 -6 6 -1 11 2 17 5 13 3 -3 4 -12 1
-19z m70 -9 c7 -18 10 -36 7 -41 -10 -15 -44 23 -44 49 0 33 24 28 37 -8z
m-82 -34 c18 -13 35 -21 39 -18 3 3 9 -3 13 -13 3 -10 10 -22 15 -25 11 -7 -1
-40 -13 -33 -5 3 -9 0 -9 -5 0 -6 -13 -11 -29 -11 -40 0 -71 40 -71 91 0 46
11 48 55 14z m-102 -192 c-9 -3 -9 -10 -1 -29 15 -31 43 -33 35 -1 -5 18 -1
17 22 -11 20 -23 30 -29 34 -20 4 11 7 11 18 0 12 -11 11 -15 -3 -26 -10 -7
-18 -18 -18 -25 0 -16 -17 -14 -24 4 -7 18 -33 20 -39 3 -3 -9 -9 -7 -20 7
-29 38 -32 145 -3 114 8 -8 8 -13 -1 -16z m-3435 -119 c12 -121 11 -134 -14
-134 -11 0 -14 16 -14 73 0 39 -3 96 -6 125 -6 42 -4 52 8 52 11 0 17 -26 26
-116z m1581 11 c44 -22 54 -71 26 -124 -26 -51 -81 -56 -119 -10 -25 30 -34
81 -18 105 11 16 55 44 70 44 7 0 26 -7 41 -15z m1921 -32 c0 -18 -25 -44 -34
-36 -10 11 -7 35 4 28 7 -4 8 3 4 22 -7 25 -6 27 9 14 10 -7 17 -20 17 -28z
m-62 -40 c21 -72 23 -83 14 -83 -10 0 -42 82 -42 107 0 27 17 12 28 -24z m842
-24 c0 -6 -4 -7 -10 -4 -5 3 -10 11 -10 16 0 6 5 7 10 4 6 -3 10 -11 10 -16z
m-46 -53 c30 -52 33 -64 9 -45 -15 13 -15 12 -5 -8 15 -28 15 -33 -1 -33 -7 0
-21 15 -30 33 -10 21 -16 26 -16 14 -1 -25 -21 -11 -21 14 0 11 4 18 9 15 4
-3 6 6 3 21 -3 18 -1 24 7 19 6 -4 11 -2 11 3 0 19 8 12 34 -33z m86 -12 c18
-25 29 -48 25 -52 -3 -3 -10 0 -15 8 -7 10 -10 11 -10 3 0 -24 -16 -13 -34 24
-15 31 -15 35 -2 24 10 -8 16 -9 16 -3 0 6 -4 14 -10 17 -10 6 -14 25 -5 25 2
0 18 -21 35 -46z m-150 -41 c7 -16 15 -23 17 -15 5 13 23 7 23 -8 0 -17 -34
-20 -51 -4 -20 18 -27 6 -8 -13 7 -7 7 -13 1 -17 -6 -4 -18 4 -26 16 -20 28
-20 38 -1 38 8 0 15 7 15 15 0 24 16 17 30 -12z m-60 -54 c0 -5 -4 -9 -10 -9
-5 0 -10 7 -10 16 0 8 5 12 10 9 6 -3 10 -10 10 -16z m-2052 -118 c109 -29
155 -64 303 -229 46 -51 116 -197 107 -223 -2 -7 -18 10 -36 37 -17 27 -59 75
-92 108 -33 32 -60 62 -60 67 0 5 -4 9 -10 9 -5 0 -7 -7 -4 -15 5 -11 -1 -15
-21 -15 -24 0 -20 -5 33 -41 108 -71 192 -184 192 -257 0 -18 -3 -32 -7 -31
-5 0 -28 24 -53 53 -52 62 -152 134 -159 115 -2 -7 7 -20 20 -28 36 -23 129
-116 129 -129 0 -22 -43 -12 -116 25 -40 21 -76 34 -81 29 -9 -8 44 -56 63
-56 6 0 19 -9 29 -20 10 -12 25 -18 33 -15 21 8 62 -6 62 -21 0 -8 -7 -11 -17
-8 -10 3 11 -10 47 -29 36 -19 65 -38 65 -43 0 -23 -70 -14 -127 16 -33 18
-62 30 -64 27 -3 -3 19 -18 48 -34 l53 -28 -3 -75 c-2 -46 3 -94 12 -124 9
-31 12 -56 6 -70 -14 -33 -71 -89 -115 -111 -45 -22 -59 -40 -60 -72 -1 -21 0
-21 17 -6 10 9 17 23 16 32 -2 9 6 17 17 19 11 2 24 10 28 18 4 8 17 19 28 25
20 10 21 9 14 -33 -4 -23 -10 -47 -13 -53 -3 -5 -7 -23 -9 -40 -3 -41 -8 -63
-16 -71 -4 -4 -7 -18 -7 -30 0 -13 -15 -40 -34 -60 -19 -21 -33 -41 -30 -46 3
-4 -35 -46 -83 -93 -88 -86 -199 -155 -247 -155 -30 1 -89 30 -133 67 -21 18
-49 41 -63 52 -22 17 -23 22 -12 40 15 25 4 28 -13 4 -7 -9 -17 -13 -24 -8 -9
5 -10 10 -2 18 18 18 12 28 -9 15 -25 -16 -38 -3 -22 22 17 27 15 38 -2 15
-14 -19 -14 -19 -36 0 -13 11 -19 27 -16 38 3 14 0 17 -11 13 -10 -4 -29 7
-53 32 -31 31 -78 62 -95 62 -3 0 -5 -27 -5 -60 0 -33 -4 -60 -9 -60 -15 0
-61 52 -54 63 3 6 1 7 -6 3 -11 -7 -151 90 -151 104 0 9 60 172 69 188 14 24
23 -35 15 -96 -5 -40 -4 -53 5 -48 7 5 11 -5 12 -31 1 -21 4 -49 8 -63 14 -50
17 -2 8 115 -7 94 -6 150 7 255 8 74 18 167 21 207 9 127 42 169 38 50 l-2
-62 12 65 c12 67 23 94 36 86 7 -5 -2 -104 -20 -211 -16 -100 -27 -213 -33
-345 l-6 -125 15 85 c8 47 15 112 15 145 1 33 5 69 9 80 12 31 19 -32 18 -148
-1 -55 1 -101 6 -104 4 -2 7 17 8 44 0 26 2 66 4 88 10 93 23 104 71 60 15
-14 31 -25 36 -25 5 0 33 -16 63 -35 43 -27 55 -40 55 -60 0 -14 5 -25 10 -25
6 0 10 11 10 25 0 26 -2 28 -120 105 -90 59 -125 90 -135 119 -5 18 18 124 44
196 9 23 7 89 -3 125 -6 23 0 29 76 74 46 27 108 64 138 82 30 18 62 45 70 60
28 50 45 53 87 13 61 -58 231 -178 338 -238 37 -21 38 -22 15 -2 -24 20 -56
42 -204 140 -108 72 -195 161 -157 161 23 0 70 -24 119 -61 34 -26 52 -35 52
-25 0 18 -61 70 -108 92 -18 9 -31 18 -28 21 9 9 111 4 139 -6 27 -11 33 -6
19 16 -12 19 -89 43 -136 43 -22 0 -48 5 -56 10 -13 9 -12 12 4 25 11 8 35 15
53 15 38 0 175 -35 216 -55 32 -16 33 -13 10 15 -18 20 -155 70 -194 70 -10 0
-19 5 -19 10 0 6 5 10 11 10 5 0 7 5 4 10 -3 6 -18 10 -31 10 -36 0 -25 22 17
37 42 15 152 16 198 3 46 -13 50 -6 9 16 -26 14 -58 18 -151 18 -124 1 -137 8
-76 38 43 23 76 22 167 -1z m1450 -480 c7 -9 16 -15 20 -13 3 2 10 -5 14 -15
6 -14 7 -13 5 7 -1 14 3 26 8 28 12 3 19 -103 9 -127 -4 -9 -6 -50 -5 -91 1
-57 -1 -71 -9 -60 -12 15 -11 -26 10 -285 8 -112 6 -131 -10 -105 -8 12 -10
12 -10 -4 0 -12 -5 -16 -15 -12 -8 3 -15 2 -15 -2 0 -7 -74 -52 -85 -52 -2 0
-6 8 -8 18 -3 9 -5 2 -6 -16 -1 -19 -7 -35 -16 -38 -8 -4 -15 -12 -15 -20 0
-20 -18 -17 -23 4 -2 9 -4 2 -4 -16 0 -19 -5 -37 -10 -40 -6 -4 -13 -18 -15
-32 -2 -14 -8 -24 -13 -23 -6 1 -10 -17 -9 -40 2 -176 4 -197 18 -197 15 0 29
-84 29 -168 -1 -38 -6 -47 -49 -87 -51 -46 -68 -54 -78 -32 -3 6 -4 0 -1 -15
4 -21 -1 -31 -24 -47 -16 -12 -34 -21 -39 -21 -6 0 -14 -9 -17 -20 -3 -11 -11
-20 -17 -20 -11 0 -40 -30 -65 -67 -9 -13 -21 -23 -28 -23 -7 0 -16 -8 -19
-17 -6 -15 -8 -15 -16 -3 -8 12 -10 10 -10 -7 0 -14 -6 -23 -15 -23 -8 0 -15
-7 -15 -15 0 -9 -7 -18 -15 -21 -8 -4 -15 -12 -15 -20 0 -8 -10 -14 -25 -14
-18 0 -25 -5 -25 -18 0 -20 -33 -56 -42 -46 -4 3 -9 -4 -13 -15 -3 -12 -11
-21 -16 -21 -14 0 -11 37 4 52 8 7 20 27 28 43 8 17 19 29 24 27 6 -2 13 7 16
20 3 13 11 22 17 21 6 -1 13 11 17 27 4 17 11 30 16 30 5 0 9 8 9 18 0 20 44
64 54 55 3 -4 6 10 6 29 0 20 7 41 15 48 8 7 15 20 15 30 0 9 9 27 20 40 11
13 21 28 21 34 1 6 5 -5 9 -24 7 -33 7 -32 9 16 1 36 6 54 16 58 8 3 15 17 15
31 0 14 4 25 9 25 5 0 12 11 15 25 4 14 11 25 16 25 6 0 10 11 10 24 0 30 20
86 30 86 5 0 11 -19 13 -42 2 -28 4 -16 5 32 3 90 10 120 28 120 9 0 14 11 14
30 0 17 5 30 10 30 6 0 10 15 10 33 0 18 5 38 11 44 6 6 13 32 15 57 2 25 8
55 14 65 5 11 10 31 10 45 0 14 4 26 9 26 5 0 12 24 15 53 12 113 18 147 28
147 7 0 8 16 5 44 -4 23 -4 59 0 79 5 33 7 35 31 26 33 -13 37 -7 18 28 l-15
28 -2 -25 -1 -25 -8 25 c-12 36 -12 120 0 120 6 0 10 -14 10 -31 0 -17 4 -28
10 -24 16 10 12 47 -10 90 -16 32 -18 46 -10 69 5 16 10 40 10 53 0 13 4 22 9
19 5 -3 12 1 15 10 7 19 44 10 64 -15z m-3237 -78 c0 -32 4 -76 8 -98 l9 -40
1 40 c2 63 17 28 29 -69 11 -86 9 -112 -7 -102 -4 3 -8 -15 -8 -39 0 -39 2
-42 13 -27 12 15 15 15 24 2 11 -17 11 -53 1 -125 l-7 -50 -10 64 c-10 71 -34
97 -34 37 0 -20 5 -36 11 -36 7 0 8 -5 3 -12 -12 -17 -5 -210 7 -203 5 3 6 22
3 41 -3 21 -1 34 5 34 6 0 11 -12 12 -27 0 -16 5 -37 10 -48 6 -13 7 0 3 40
-6 56 -5 59 10 40 14 -19 15 -17 16 35 1 40 4 50 10 35 5 -11 9 -33 9 -50 1
-20 4 -26 10 -17 9 14 41 -58 41 -93 0 -10 7 -27 16 -37 10 -10 19 -41 22 -70
4 -38 7 -47 12 -33 7 17 11 14 29 -25 11 -25 21 -52 21 -62 0 -9 5 -18 11 -20
11 -4 49 -126 53 -170 2 -34 16 -49 16 -18 0 18 3 21 11 13 7 -7 12 -38 12
-70 1 -32 2 -46 5 -30 2 15 7 27 12 27 13 0 20 -28 22 -93 1 -57 2 -58 5 -14
4 47 16 61 27 31 3 -9 7 -52 8 -97 l2 -82 3 68 c2 37 7 67 12 67 12 0 31 -48
32 -83 1 -18 3 -24 6 -14 9 35 23 15 24 -35 0 -42 2 -48 9 -30 19 46 38 17 41
-63 2 -31 3 -33 6 -12 5 33 23 26 23 -9 0 -18 5 -24 18 -22 14 3 18 -6 20 -52
4 -61 -6 -145 -15 -136 -4 3 -10 36 -13 74 l-7 67 -2 -57 c-1 -61 -16 -78 -27
-30 -9 43 -12 49 -13 24 -1 -29 -21 -19 -21 11 -1 20 -2 21 -14 5 -12 -16 -14
-13 -26 25 -11 33 -15 37 -18 20 -5 -30 -20 -29 -34 2 -6 13 -15 22 -19 19
-14 -8 -53 39 -55 66 -1 14 -2 61 -3 104 -1 105 -11 92 -13 -18 -1 -47 -5 -86
-9 -86 -9 0 -22 56 -16 67 2 5 1 17 -4 28 -6 15 -8 9 -8 -22 -1 -24 -5 -43
-11 -43 -5 0 -10 6 -10 14 0 8 -10 16 -22 18 -19 3 -23 10 -25 52 -4 60 -13
75 -13 22 0 -26 -4 -36 -12 -34 -16 6 -37 256 -26 310 1 9 -1 17 -7 17 -12 1
-13 -23 -6 -177 6 -121 1 -145 -21 -97 -6 14 -17 25 -23 25 -27 0 -40 35 -46
124 l-5 91 -2 -82 c-2 -81 -13 -106 -26 -60 -3 12 -9 81 -13 154 -3 73 -10
130 -15 127 -4 -3 -8 -3 -8 0 0 2 -3 12 -7 22 -5 13 -3 16 10 11 13 -5 17 -1
17 20 l0 26 -18 -24 c-18 -22 -18 -34 -9 -157 7 -93 7 -136 -1 -144 -17 -17
-31 21 -33 90 -1 34 -5 62 -9 62 -4 0 -5 -25 -2 -56 4 -45 2 -56 -9 -52 -8 2
-18 14 -24 26 -5 12 -18 22 -27 22 -10 0 -18 7 -18 15 0 7 -6 18 -13 22 -18
10 -30 60 -17 68 5 3 10 -2 11 -12 0 -11 5 -5 12 14 15 39 27 52 27 29 0 -9 5
-14 10 -11 6 3 10 19 10 35 0 39 18 48 26 13 11 -51 12 -49 12 33 0 45 2 86 5
91 3 4 -3 33 -14 63 -14 39 -20 86 -21 165 l-2 110 -6 -105 c-3 -58 -7 -96 -9
-85 -1 12 -5 15 -8 8 -6 -15 -29 -17 -38 -3 -3 5 -8 37 -12 72 -7 83 -17 91
-11 10 4 -53 2 -62 -11 -60 -10 2 -17 16 -19 36 -2 17 -7 32 -11 32 -5 0 -6
-12 -3 -26 4 -20 1 -25 -9 -22 -8 3 -17 21 -20 41 -3 21 -9 41 -13 45 -4 4 -5
-11 -1 -33 5 -28 4 -37 -3 -30 -6 6 -12 24 -15 40 l-4 30 -2 -32 c0 -18 -5
-33 -11 -33 -5 0 -10 5 -10 10 0 6 -11 8 -25 4 -20 -5 -25 -2 -26 12 0 11 -2
71 -5 134 -2 63 -8 142 -14 175 -16 100 -16 110 0 110 8 0 18 -13 21 -30 l7
-30 1 32 c0 17 5 34 10 38 11 6 25 -30 17 -43 -3 -5 -1 -22 4 -38 8 -27 8 -26
9 14 1 26 5 41 11 37 6 -4 10 8 10 29 0 32 20 65 20 34 1 -7 7 -2 15 12 16 30
28 29 37 -2 5 -20 6 -19 7 8 1 34 17 55 37 47 8 -3 14 0 14 7 0 6 4 9 9 5 5
-3 11 5 13 17 2 15 10 23 23 23 26 1 35 -12 35 -52 0 -17 5 -35 10 -38 7 -4 9
2 6 17 -11 53 -17 119 -11 128 15 24 25 6 26 -47z m2308 18 c9 -6 10 -11 2
-15 -13 -8 -31 1 -31 15 0 11 11 11 29 0z m-1249 -227 c-12 -146 -18 -184 -30
-184 -9 0 -17 74 -23 217 -4 92 -4 92 22 101 14 5 30 6 34 2 4 -4 3 -65 -3
-136z m137 69 c-8 -64 -29 -131 -35 -114 -7 21 19 161 31 161 6 0 7 -19 4 -47z
m1013 32 c7 -8 8 -15 2 -15 -5 0 -15 7 -22 15 -7 8 -8 15 -2 15 5 0 15 -7 22
-15z m100 -130 c-9 -88 -26 -135 -48 -135 -11 0 -13 14 -10 69 3 54 9 77 31
111 16 23 30 40 32 38 2 -1 -1 -39 -5 -83z m-127 -121 c-2 -106 0 -154 7 -144
5 8 10 81 10 163 0 119 3 147 14 147 8 0 16 -7 20 -15 11 -29 -9 -422 -30
-583 -4 -32 -9 -42 -20 -38 -10 4 -14 -3 -14 -25 0 -19 -9 -39 -25 -55 -30
-30 -47 -23 -40 14 3 15 8 108 12 207 6 167 8 183 30 216 22 33 23 40 12 80
-13 44 -15 158 -5 186 3 8 12 13 19 10 9 -3 11 -43 10 -163z m415 97 c34 -27
68 -51 74 -53 8 -3 9 -19 1 -64 -11 -60 -49 -203 -55 -209 -2 -2 -18 7 -36 21
-31 24 -31 27 -26 82 7 65 -10 191 -31 232 -13 25 -11 40 4 40 3 0 34 -22 69
-49z m-1595 -144 c6 -17 -3 -67 -13 -67 -9 0 -20 61 -13 73 7 11 20 8 26 -6z
m-372 -134 c48 -79 130 -181 199 -248 39 -38 130 -136 201 -217 l130 -147 55
-158 c70 -200 75 -214 68 -224 -14 -23 -52 -4 -113 54 -36 34 -84 78 -106 97
-154 136 -358 498 -446 790 -29 99 -26 114 12 53z m1882 -234 c15 -21 27 -49
27 -60 0 -26 -75 -189 -87 -189 -5 0 -18 18 -30 40 l-20 40 -11 -38 c-6 -20
-18 -68 -27 -107 -30 -126 -67 -206 -137 -291 -36 -43 -84 -107 -107 -141 -24
-35 -48 -66 -54 -70 -7 -4 -64 -7 -127 -6 l-115 1 98 -7 c53 -4 102 -12 107
-17 5 -5 -9 -33 -38 -70 -26 -34 -54 -72 -62 -84 -47 -72 -44 -71 -190 -78
l-135 -7 -58 50 c-31 27 -74 65 -95 82 l-37 32 32 1 c17 0 67 -7 110 -15 88
-17 359 -20 383 -5 11 7 -1 10 -41 10 -31 0 -71 3 -88 6 -29 6 -31 9 -31 51 0
36 4 46 20 50 32 8 14 20 -42 28 -29 3 -66 12 -83 20 l-30 13 45 19 c25 11 66
28 93 37 26 10 66 33 88 52 43 36 65 42 72 22 2 -7 7 4 11 26 9 45 4 53 -17
32 -9 -9 -22 -13 -31 -10 -8 3 -46 -5 -83 -18 -61 -21 -85 -23 -243 -23 -130
0 -181 4 -199 14 -24 13 -24 14 -6 27 10 8 42 14 69 14 74 0 312 90 370 140
17 15 52 39 79 54 38 23 53 39 73 84 14 31 28 77 31 104 5 39 8 46 19 37 8 -6
17 -29 20 -49 4 -25 13 -40 24 -43 60 -16 22 -294 -64 -462 -44 -87 -49 -104
-26 -90 13 8 72 124 101 198 11 28 31 75 44 102 13 28 30 66 38 85 16 39 41
71 138 175 36 38 76 86 89 105 13 19 25 37 27 40 2 2 8 -2 13 -10 6 -10 10 -2
15 26 7 43 35 114 44 114 3 -1 18 -19 34 -41z m-2754 0 c20 -58 14 -95 -23
-134 -39 -41 -64 -43 -84 -5 -28 55 20 170 73 170 17 0 26 -8 34 -31z m3511 2
c0 -16 -28 -31 -46 -25 -15 5 -12 0 8 -22 20 -20 31 -25 38 -18 14 14 60 6 60
-10 0 -21 -10 -25 -41 -16 -26 8 -29 6 -29 -14 0 -29 -57 -119 -72 -114 -23 8
-46 72 -41 116 6 52 58 112 98 112 14 0 25 -4 25 -9z m880 4 c0 -30 -85 -156
-103 -152 -6 1 -13 -7 -15 -19 -2 -12 -19 -36 -38 -54 -29 -29 -34 -31 -34
-15 0 18 -1 18 -16 -3 -8 -12 -13 -26 -9 -32 7 -12 -33 -33 -51 -26 -8 3 -14
-1 -14 -9 0 -17 -2 -17 -24 -9 -9 3 -16 12 -16 20 0 8 -6 11 -15 8 -8 -4 -21
-2 -28 4 -6 5 -24 12 -39 16 -16 3 -28 11 -28 16 0 13 72 48 88 43 6 -3 12 1
12 9 1 12 93 73 217 144 29 16 61 38 70 47 16 16 43 23 43 12z m-2960 -30 c0
-9 7 -18 16 -22 9 -3 39 -28 68 -55 28 -28 78 -72 111 -98 64 -52 95 -84 95
-100 0 -5 7 -7 16 -3 8 3 25 -3 37 -15 34 -31 88 -44 149 -36 56 7 61 10 178
112 39 35 74 61 77 58 3 -3 0 -38 -7 -78 -11 -60 -18 -77 -43 -97 -39 -32
-174 -71 -247 -71 -120 0 -275 47 -303 92 -20 31 -25 82 -9 101 11 13 10 15
-6 11 -12 -4 -30 6 -51 25 -18 17 -36 31 -41 31 -4 0 -15 9 -25 20 -17 19 -17
21 1 43 17 20 16 20 -9 -2 -32 -29 -46 -22 -24 13 14 21 14 25 2 30 -20 7 -20
56 0 56 8 0 15 -7 15 -15z m-1360 -4 c0 -15 -16 -22 -34 -15 -25 9 -19 24 9
24 14 0 25 -4 25 -9z m3480 -1 c0 -5 -7 -10 -15 -10 -8 0 -15 5 -15 10 0 6 7
10 15 10 8 0 15 -4 15 -10z m-1268 -22 c-7 -7 -12 -8 -12 -2 0 6 3 14 7 17 3
4 9 5 12 2 2 -3 -1 -11 -7 -17z m-2192 -18 c0 -12 -17 -12 -45 0 -17 7 -15 9
13 9 17 1 32 -3 32 -9z m-10 -40 c0 -22 -3 -23 -37 -14 -34 9 -29 34 7 34 23
0 30 -4 30 -20z m2167 -2 c-3 -8 -6 -5 -6 6 -1 11 2 17 5 13 3 -3 4 -12 1 -19z
m1318 -8 c3 -5 -1 -10 -10 -10 -9 0 -13 5 -10 10 3 6 8 10 10 10 2 0 7 -4 10
-10z m-3496 -26 c3 -3 -1 -10 -7 -16 -9 -9 -18 -8 -37 2 -35 19 -31 33 8 25
17 -4 34 -9 36 -11z m3474 1 c13 -9 17 -20 12 -34 -9 -28 -18 -26 -38 8 -23
39 -9 53 26 26z m-3539 -21 c9 -3 16 -13 16 -20 0 -12 -4 -12 -20 -4 -11 6
-20 15 -20 20 0 12 3 12 24 4z m3509 -28 c9 -13 13 -26 10 -30 -9 -8 -43 24
-43 41 0 20 16 15 33 -11z m-3543 4 c0 -5 -7 -10 -15 -10 -8 0 -15 5 -15 10 0
6 7 10 15 10 8 0 15 -4 15 -10z m-590 -24 c0 -19 -44 -50 -48 -36 -4 12 26 50
40 50 4 0 8 -6 8 -14z m3026 -53 c7 -10 14 -24 14 -32 0 -8 -9 -2 -20 12 -11
14 -20 28 -20 31 0 12 13 6 26 -11z m-2306 -19 c0 -8 -4 -12 -10 -9 -5 3 -10
10 -10 16 0 5 5 9 10 9 6 0 10 -7 10 -16z m1440 -7 c0 -7 -23 -23 -50 -34
l-51 -22 17 -38 c34 -80 125 -356 122 -372 -3 -11 -10 -5 -23 19 -33 63 -135
358 -135 389 1 36 120 94 120 58z m-2010 -125 c0 -11 -68 -52 -85 -52 -27 0
-16 17 27 43 40 23 58 26 58 9z m61 -6 c-27 -29 -88 -63 -97 -54 -13 13 70 78
99 78 20 0 20 0 -2 -24z m1966 2 c-3 -8 -6 -5 -6 6 -1 11 2 17 5 13 3 -3 4
-12 1 -19z m-1911 -3 c4 -8 12 -15 20 -15 8 0 14 -5 14 -11 0 -7 -9 -9 -21 -6
-12 3 -22 0 -26 -9 -3 -9 -20 -14 -47 -14 l-41 1 40 34 c45 39 53 42 61 20z
m2034 -25 c0 -5 -5 -10 -11 -10 -5 0 -7 5 -4 10 3 6 8 10 11 10 2 0 4 -4 4
-10z m-45 -180 c3 -5 1 -10 -4 -10 -6 0 -11 5 -11 10 0 6 2 10 4 10 3 0 8 -4
11 -10z m87 -162 c18 -14 36 -108 22 -108 -113 -7 -113 -7 -147 28 -17 19 -45
40 -61 49 -38 20 -23 31 49 36 33 2 74 4 91 5 16 1 37 -4 46 -10z m-798 -54
c9 -24 7 -164 -3 -164 -14 0 -21 39 -21 113 0 63 11 86 24 51z m36 -100 c0
-34 -4 -53 -10 -49 -5 3 -10 28 -10 56 0 27 5 49 10 49 6 0 10 -25 10 -56z
m-660 -2 c0 -18 -59 -64 -75 -59 -13 6 -11 11 11 37 25 28 64 41 64 22z m700
-11 c5 -11 10 -41 10 -67 0 -39 -2 -45 -14 -35 -15 12 -27 121 -14 121 4 0 12
-9 18 -19z m-650 -19 c0 -5 -5 -13 -12 -20 -6 -6 -9 -15 -5 -19 4 -3 13 2 21
12 13 18 14 18 43 -3 16 -12 36 -29 44 -38 13 -16 12 -17 -16 -9 -16 4 -56 13
-88 20 -32 7 -60 14 -62 17 -2 2 5 18 16 36 17 26 24 30 40 22 10 -6 19 -14
19 -18z m2401 -55 c-16 -16 -26 0 -10 19 9 11 15 12 17 4 2 -6 -1 -17 -7 -23z
m-1709 -12 c6 -28 -6 -34 -16 -9 -8 22 -7 34 3 34 5 0 11 -11 13 -25z m57 -83
c-16 -6 -39 19 -39 42 0 19 2 18 24 -9 14 -16 20 -32 15 -33z m651 -392 c47
-51 77 -59 170 -47 41 5 122 9 180 8 91 -2 109 1 130 17 41 32 91 54 107 47
14 -5 15 -21 10 -107 -7 -111 -16 -129 -63 -130 -50 -2 -74 11 -81 43 -9 48
-29 52 -210 44 l-163 -7 -21 -29 c-21 -30 -45 -35 -107 -23 -38 8 -42 18 -49
123 -4 64 -3 85 8 92 27 17 53 8 89 -31z m-731 1 c16 -12 22 -24 18 -35 -10
-24 -25 -19 -42 14 -24 46 -17 53 24 21z m1781 -20 c0 -5 -18 -39 -40 -77 -21
-37 -37 -71 -34 -76 7 -11 -15 -105 -33 -140 -8 -17 -9 -28 -3 -28 14 0 12
-40 -4 -70 -8 -14 -11 -31 -7 -40 12 -23 12 -138 1 -145 -6 -4 -4 -13 6 -22
10 -11 14 -26 10 -44 -3 -15 -2 -29 2 -31 4 -2 17 -36 30 -76 18 -55 21 -76
12 -87 -8 -10 -7 -13 7 -11 12 1 19 -7 21 -25 4 -35 -79 -129 -114 -129 -31 0
-30 8 8 55 l31 40 -39 -37 c-47 -45 -77 -48 -137 -15 -23 13 -86 48 -141 78
-54 29 -101 59 -103 66 -6 15 22 103 40 126 11 14 20 11 82 -31 76 -51 184
-104 197 -96 9 6 48 79 48 91 0 4 -5 2 -12 -5 -21 -21 -30 -13 -24 23 5 27 4
34 -7 29 -23 -8 -28 24 -10 54 16 24 16 26 1 14 -25 -20 -31 2 -12 40 10 21
11 28 3 21 -22 -21 -32 -15 -25 17 3 17 1 30 -4 30 -11 0 -6 142 7 205 10 48
29 83 39 72 4 -4 2 -13 -4 -19 -7 -7 -12 -17 -12 -22 0 -6 20 19 45 56 25 37
45 72 45 77 0 12 112 140 123 141 4 0 7 -4 7 -9z m-1692 -59 c23 -20 42 -42
42 -48 0 -7 9 -14 19 -17 29 -7 40 -100 15 -130 -19 -22 -19 -22 2 -4 20 17
22 17 28 1 4 -9 0 -27 -9 -40 -13 -21 -13 -23 0 -18 19 8 19 -9 -1 -49 -11
-21 -12 -28 -3 -19 45 42 32 -24 -17 -83 -40 -49 -42 -59 -12 -50 17 6 20 4
15 -9 -4 -10 -1 -16 8 -16 18 0 20 -21 3 -38 -9 -9 -9 -12 1 -12 18 0 8 -47
-23 -116 -23 -49 -23 -53 -7 -68 13 -12 33 -14 80 -11 52 3 68 8 92 31 25 24
29 25 29 9 0 -18 1 -18 16 1 16 20 16 16 -3 -34 -12 -32 5 -8 40 58 19 36 44
69 55 74 11 6 33 32 48 58 30 51 44 60 44 29 0 -11 4 -22 9 -25 14 -9 21 -66
11 -87 -6 -10 -17 -19 -25 -19 -8 0 -24 -18 -35 -39 -23 -47 -39 -59 -51 -40
-6 10 -12 4 -23 -23 -18 -43 -35 -56 -46 -37 -6 9 -10 6 -15 -12 -3 -14 -16
-31 -27 -38 -20 -12 -21 -11 -15 19 9 40 -8 30 -23 -14 -6 -19 -17 -37 -25
-40 -21 -7 -19 6 6 51 l22 38 -26 -30 c-15 -16 -26 -40 -27 -52 0 -12 -9 -27
-19 -33 -29 -15 -33 -13 -25 12 6 20 5 21 -10 9 -9 -7 -16 -21 -16 -31 0 -24
-26 -30 -150 -36 -138 -7 -145 -1 -98 68 69 100 93 167 120 335 10 59 16 73
35 82 14 7 23 19 22 33 l0 23 -16 -22 c-18 -26 -33 -30 -33 -8 0 14 18 53 30
65 3 3 12 14 20 25 12 17 10 16 -11 -2 -49 -44 -53 -22 -7 45 l31 47 -29 -27
c-17 -16 -33 -28 -37 -28 -15 0 -6 38 18 70 30 40 32 49 7 27 -31 -28 -45 -21
-39 18 4 21 2 35 -5 35 -6 0 -9 14 -6 33 2 20 -2 39 -10 46 -7 7 -11 19 -8 27
3 8 1 14 -4 14 -11 0 -14 43 -3 53 13 13 28 6 71 -31z m792 -337 c0 -8 -11
-22 -24 -30 -13 -9 -41 -44 -61 -78 -21 -34 -49 -74 -62 -88 -14 -15 -25 -33
-27 -40 -3 -21 -49 -99 -58 -99 -21 0 3 75 32 100 3 3 17 23 30 45 13 22 35
51 48 65 12 14 39 51 58 83 34 54 64 74 64 42z m-158 -147 c-15 -24 -42 -64
-59 -90 -17 -26 -33 -45 -37 -41 -12 12 -6 39 14 61 11 12 20 28 20 36 0 20
55 76 74 76 14 0 12 -8 -12 -42z m-52 6 c0 -3 -7 -12 -15 -21 -20 -19 -32 -9
-15 12 12 15 30 20 30 9z m50 -168 c0 -7 8 -30 19 -52 59 -124 56 -108 24
-158 -29 -47 -53 -59 -53 -28 0 9 9 32 21 51 24 39 20 54 -5 16 -36 -55 -51
-5 -16 53 11 17 16 32 11 32 -6 0 -12 -9 -16 -19 -3 -11 -12 -22 -20 -25 -21
-8 -19 23 5 62 27 44 25 50 -6 21 l-26 -24 7 25 c16 56 55 89 55 46z m90 -219
c0 -28 -26 -67 -46 -67 -18 0 -18 23 1 60 18 36 45 40 45 7z m989 -28 c37 -60
38 -71 9 -67 -17 2 -22 9 -20 23 3 18 2 18 -19 -4 -27 -29 -40 -10 -13 20 31
35 8 30 -26 -6 -34 -36 -50 -43 -50 -25 0 13 72 110 81 110 3 0 20 -23 38 -51z
m-969 -28 c0 -10 -7 -24 -15 -31 -12 -10 -15 -10 -15 3 0 23 11 47 21 47 5 0
9 -8 9 -19z m30 -45 c0 -18 -26 -40 -34 -27 -9 14 4 41 20 41 8 0 14 -6 14
-14z m30 -37 c0 -6 -5 -19 -11 -30 -15 -28 -31 -13 -17 16 11 25 28 34 28 14z"/>
<path d="M2353 5375 c0 -22 2 -30 4 -17 2 12 2 30 0 40 -3 9 -5 -1 -4 -23z"/>
<path d="M2321 5324 c0 -11 3 -14 6 -6 3 7 2 16 -1 19 -3 4 -6 -2 -5 -13z"/>
<path d="M5416 5120 c3 -14 10 -29 15 -34 14 -16 10 6 -7 34 l-15 25 7 -25z"/>
<path d="M5484 5035 c4 -16 12 -34 17 -40 5 -5 4 6 -2 25 -15 45 -24 54 -15
15z"/>
<path d="M5410 5020 c-16 -10 -8 -23 15 -26 17 -2 19 5 7 23 -5 8 -13 9 -22 3z"/>
<path d="M5386 4935 c4 -8 8 -15 10 -15 2 0 4 7 4 15 0 8 -4 15 -10 15 -5 0
-7 -7 -4 -15z"/>
<path d="M2261 4734 c0 -11 3 -14 6 -6 3 7 2 16 -1 19 -3 4 -6 -2 -5 -13z"/>
<path d="M2231 4594 c0 -11 3 -14 6 -6 3 7 2 16 -1 19 -3 4 -6 -2 -5 -13z"/>
<path d="M2127 4499 c6 -99 11 -109 12 -24 0 39 -3 76 -8 84 -5 7 -7 -17 -4
-60z"/>
<path d="M2182 4475 c0 -16 2 -22 5 -12 2 9 2 23 0 30 -3 6 -5 -1 -5 -18z"/>
<path d="M3158 3564 c-16 -8 -28 -17 -28 -20 0 -2 12 2 28 9 15 8 34 17 42 20
13 5 13 5 0 6 -8 0 -27 -7 -42 -15z"/>
<path d="M3160 3243 c0 -22 65 -93 85 -93 6 0 -4 13 -22 28 -17 15 -38 41 -47
57 -13 26 -15 27 -16 8z"/>
<path d="M6255 4406 c10 -14 19 -26 22 -26 7 0 -17 39 -28 46 -6 3 -3 -5 6
-20z"/>
<path d="M3504 4380 c-42 -17 -40 -64 3 -81 37 -14 77 9 81 45 5 42 -31 58
-84 36z m36 -25 c0 -9 -7 -18 -16 -22 -18 -7 -39 11 -30 26 11 17 46 13 46 -4z"/>
<path d="M4239 3389 c13 -11 27 -17 30 -13 7 7 -28 34 -43 34 -6 -1 0 -10 13
-21z"/>
<path d="M3765 3324 c0 -17 6 -24 19 -24 11 0 28 -7 38 -17 10 -9 20 -14 23
-11 3 3 -14 21 -37 40 -42 34 -43 35 -43 12z"/>
<path d="M3560 3311 c-14 -4 -27 -16 -29 -26 -2 -11 -10 -29 -17 -40 -19 -26
-18 -35 4 -36 9 0 31 -9 47 -20 75 -48 119 -62 220 -68 l100 -6 -3 -27 c-4
-38 17 -36 25 2 3 18 12 30 22 30 14 1 13 2 -2 11 -14 8 -17 18 -12 40 4 18 3
29 -4 29 -6 0 -11 -3 -11 -7 0 -5 -4 -14 -9 -21 -9 -16 -69 11 -177 79 -79 50
-123 67 -154 60z m208 -128 c38 -23 42 -28 29 -38 -23 -17 -136 1 -161 25 -18
18 -18 18 10 34 34 19 62 14 122 -21z"/>
<path d="M4134 3288 l-19 -23 23 19 c21 18 27 26 19 26 -2 0 -12 -10 -23 -22z"/>
<path d="M4085 3260 c-16 -7 -17 -9 -3 -9 9 -1 20 4 23 9 7 11 7 11 -20 0z"/>
<path d="M4292 3245 c-70 -40 -231 -97 -254 -89 -11 3 -26 20 -33 37 -11 27
-15 29 -20 14 -4 -10 0 -28 9 -43 10 -14 14 -33 11 -45 -9 -28 2 -69 19 -69
10 0 13 9 11 32 l-4 31 115 -7 c102 -5 119 -4 152 13 51 26 58 37 66 99 6 46
5 52 -11 52 -10 0 -38 -11 -61 -25z m-15 -87 c-10 -38 -49 -51 -113 -38 -30 6
-54 15 -54 19 0 5 24 18 53 30 28 12 61 26 72 30 27 12 49 -10 42 -41z"/>
<path d="M3889 3000 c-4 -8 -10 -28 -15 -45 -6 -18 -18 -31 -32 -35 -22 -5
-62 -59 -62 -84 0 -10 11 -12 43 -9 29 4 54 0 75 -11 42 -22 45 -20 18 9 -14
15 -32 24 -46 23 -28 -4 -52 28 -31 42 9 5 22 5 34 -2 10 -5 21 -8 23 -5 3 3
4 33 2 68 -2 35 -6 57 -9 49z"/>
<path d="M4000 2962 c0 -25 8 -42 31 -63 20 -18 29 -35 25 -45 -3 -8 -10 -13
-15 -9 -5 3 -27 -7 -48 -21 -21 -15 -29 -23 -18 -19 11 4 34 12 50 18 17 5 40
14 52 20 11 5 27 6 33 2 16 -10 -20 52 -39 68 -11 9 -15 9 -19 -1 -6 -20 -32
5 -32 32 0 11 -5 28 -10 36 -7 11 -10 7 -10 -18z"/>
<path d="M3671 2824 c0 -11 3 -14 6 -6 3 7 2 16 -1 19 -3 4 -6 -2 -5 -13z"/>
<path d="M3414 2785 c-3 -13 -4 -30 -1 -37 3 -7 6 -2 6 13 1 14 6 30 13 37 9
9 9 12 0 12 -6 0 -14 -11 -18 -25z"/>
<path d="M4221 2748 c-5 -13 -7 -25 -5 -27 5 -6 34 26 34 38 0 20 -20 11 -29
-11z"/>
<path d="M3740 2676 c0 -8 19 -12 55 -12 61 0 54 10 -12 19 -30 3 -43 1 -43
-7z"/>
<path d="M3880 2679 c-12 -8 -10 -9 7 -4 12 3 32 1 43 -5 15 -8 25 -8 34 0 10
7 22 7 40 0 42 -16 65 -11 27 5 -39 17 -129 20 -151 4z"/>
<path d="M4203 2654 c-6 -13 -7 -24 -3 -24 9 0 25 39 18 45 -2 2 -8 -7 -15
-21z"/>
<path d="M4111 2661 c-9 -6 -3 -10 20 -14 38 -5 44 -3 34 12 -7 13 -35 14 -54
2z"/>
<path d="M3935 2630 c27 -12 35 -12 35 0 0 6 -12 10 -27 9 -25 0 -26 -1 -8 -9z"/>
<path d="M3610 2620 c-8 -5 -12 -12 -9 -15 4 -3 12 1 19 10 14 17 11 19 -10 5z"/>
<path d="M4210 2600 c-9 -6 -10 -10 -3 -10 6 0 15 5 18 10 8 12 4 12 -15 0z"/>
<path d="M3893 2593 c-48 -10 -20 -23 49 -23 52 0 69 3 61 11 -12 12 -77 20
-110 12z"/>
<path d="M5483 3330 c0 -36 2 -50 4 -32 2 17 2 47 0 65 -2 17 -4 3 -4 -33z"/>
<path d="M5522 3370 c0 -14 2 -19 5 -12 2 6 2 18 0 25 -3 6 -5 1 -5 -13z"/>
<path d="M5485 3240 c3 -5 8 -10 11 -10 2 0 4 5 4 10 0 6 -5 10 -11 10 -5 0
-7 -4 -4 -10z"/>
<path d="M5485 3130 c-3 -5 -1 -10 4 -10 6 0 11 5 11 10 0 6 -2 10 -4 10 -3 0
-8 -4 -11 -10z"/>
<path d="M5480 3091 c0 -6 5 -11 11 -11 6 0 9 -6 6 -13 -3 -8 -1 -20 4 -28 7
-10 9 -4 7 20 -3 31 -28 59 -28 32z"/>
<path d="M5375 3000 c3 -5 8 -10 11 -10 2 0 4 5 4 10 0 6 -5 10 -11 10 -5 0
-7 -4 -4 -10z"/>
<path d="M4921 1874 c0 -11 3 -14 6 -6 3 7 2 16 -1 19 -3 4 -6 -2 -5 -13z"/>
<path d="M2202 3435 c0 -16 2 -22 5 -12 2 9 2 23 0 30 -3 6 -5 -1 -5 -18z"/>
<path d="M2171 3385 c0 -11 4 -29 9 -40 l9 -20 0 20 c0 11 -4 29 -9 40 l-9 20
0 -20z"/>
<path d="M2141 3354 c0 -11 3 -14 6 -6 3 7 2 16 -1 19 -3 4 -6 -2 -5 -13z"/>
<path d="M2241 3330 c0 -8 4 -24 9 -35 l9 -20 0 20 c0 11 -4 27 -9 35 -9 13
-10 13 -9 0z"/>
<path d="M2052 3270 c0 -14 2 -19 5 -12 2 6 2 18 0 25 -3 6 -5 1 -5 -13z"/>
<path d="M2281 3274 c0 -11 3 -14 6 -6 3 7 2 16 -1 19 -3 4 -6 -2 -5 -13z"/>
<path d="M2011 3264 c0 -11 3 -14 6 -6 3 7 2 16 -1 19 -3 4 -6 -2 -5 -13z"/>
<path d="M1959 3210 c-4 -9 1 -83 11 -165 19 -158 22 -168 21 -70 l0 60 14
-45 14 -45 -5 69 c-7 78 -12 98 -25 91 -8 -5 -16 29 -21 90 -2 19 -5 25 -9 15z"/>
<path d="M1993 3165 c0 -27 2 -38 4 -22 2 15 2 37 0 50 -2 12 -4 0 -4 -28z"/>
<path d="M2201 3166 c0 -12 3 -15 6 -8 2 6 9 10 14 6 5 -3 9 1 9 9 0 7 -7 14
-15 14 -9 0 -15 -9 -14 -21z"/>
<path d="M2230 3109 c0 -11 -4 -17 -10 -14 -5 3 -10 1 -10 -4 0 -6 0 -13 0
-16 0 -3 3 -5 6 -4 4 0 11 -5 15 -13 6 -8 9 2 9 30 0 23 -2 42 -5 42 -3 0 -5
-9 -5 -21z"/>
<path d="M2111 3104 c0 -11 3 -14 6 -6 3 7 2 16 -1 19 -3 4 -6 -2 -5 -13z"/>
<path d="M2162 3100 c0 -14 2 -19 5 -12 2 6 2 18 0 25 -3 6 -5 1 -5 -13z"/>
<path d="M2032 3045 c0 -16 2 -22 5 -12 2 9 2 23 0 30 -3 6 -5 -1 -5 -18z"/>
<path d="M2171 3054 c0 -11 3 -14 6 -6 3 7 2 16 -1 19 -3 4 -6 -2 -5 -13z"/>
<path d="M2121 3014 c0 -11 3 -14 6 -6 3 7 2 16 -1 19 -3 4 -6 -2 -5 -13z"/>
<path d="M2243 2980 c0 -30 2 -43 4 -27 2 15 2 39 0 55 -2 15 -4 2 -4 -28z"/>
<path d="M2171 3004 c0 -11 3 -14 6 -6 3 7 2 16 -1 19 -3 4 -6 -2 -5 -13z"/>
<path d="M2042 2980 c0 -14 2 -19 5 -12 2 6 2 18 0 25 -3 6 -5 1 -5 -13z"/>
<path d="M2178 2945 c2 -19 6 -35 8 -35 2 0 4 16 4 35 0 19 -4 35 -8 35 -4 0
-6 -16 -4 -35z"/>
<path d="M2082 2935 c0 -16 2 -22 5 -12 2 9 2 23 0 30 -3 6 -5 -1 -5 -18z"/>
<path d="M2252 2854 c4 -37 11 -70 14 -73 4 -3 4 16 0 43 -3 27 -6 59 -6 72 0
13 -4 24 -8 24 -5 0 -5 -30 0 -66z"/>
<path d="M2183 2860 c0 -25 2 -35 4 -22 2 12 2 32 0 45 -2 12 -4 2 -4 -23z"/>
<path d="M2332 2780 c0 -14 2 -19 5 -12 2 6 2 18 0 25 -3 6 -5 1 -5 -13z"/>
<path d="M2303 2740 c0 -30 2 -43 4 -27 2 15 2 39 0 55 -2 15 -4 2 -4 -28z"/>
<path d="M2271 2677 c1 -37 6 -67 10 -67 8 0 2 120 -7 129 -3 3 -4 -25 -3 -62z"/>
<path d="M2341 2724 c0 -11 3 -14 6 -6 3 7 2 16 -1 19 -3 4 -6 -2 -5 -13z"/>
<path d="M2300 2645 c0 -19 4 -35 8 -35 4 0 6 16 4 35 -2 19 -6 35 -8 35 -2 0
-4 -16 -4 -35z"/>
<path d="M2341 2630 c0 -14 4 -32 9 -40 8 -12 10 -12 9 5 0 11 -4 29 -9 40 -8
18 -9 18 -9 -5z"/>
<path d="M2471 2614 c0 -11 3 -14 6 -6 3 7 2 16 -1 19 -3 4 -6 -2 -5 -13z"/>
<path d="M2471 2534 c0 -11 3 -14 6 -6 3 7 2 16 -1 19 -3 4 -6 -2 -5 -13z"/>
<path d="M2351 2494 c0 -11 3 -14 6 -6 3 7 2 16 -1 19 -3 4 -6 -2 -5 -13z"/>
<path d="M2472 2485 c0 -16 2 -22 5 -12 2 9 2 23 0 30 -3 6 -5 -1 -5 -18z"/>
<path d="M2242 2445 c0 -16 2 -22 5 -12 2 9 2 23 0 30 -3 6 -5 -1 -5 -18z"/>
<path d="M2203 2420 c0 -25 2 -35 4 -22 2 12 2 32 0 45 -2 12 -4 2 -4 -23z"/>
<path d="M2602 2320 c0 -19 2 -27 5 -17 2 9 2 25 0 35 -3 9 -5 1 -5 -18z"/>
<path d="M2602 2250 c0 -14 2 -19 5 -12 2 6 2 18 0 25 -3 6 -5 1 -5 -13z"/>
<path d="M2422 2185 c0 -16 2 -22 5 -12 2 9 2 23 0 30 -3 6 -5 -1 -5 -18z"/>
<path d="M2561 2184 c0 -11 3 -14 6 -6 3 7 2 16 -1 19 -3 4 -6 -2 -5 -13z"/>
<path d="M2602 2170 c0 -19 2 -27 5 -17 2 9 2 25 0 35 -3 9 -5 1 -5 -18z"/>
<path d="M2550 2081 c0 -11 5 -23 10 -26 6 -4 10 5 10 19 0 14 -4 26 -10 26
-5 0 -10 -9 -10 -19z"/>
<path d="M2712 2030 c0 -19 2 -27 5 -17 2 9 2 25 0 35 -3 9 -5 1 -5 -18z"/>
<path d="M2791 1984 c0 -11 3 -14 6 -6 3 7 2 16 -1 19 -3 4 -6 -2 -5 -13z"/>
<path d="M2791 1944 c0 -11 3 -14 6 -6 3 7 2 16 -1 19 -3 4 -6 -2 -5 -13z"/>
<path d="M2871 1904 c0 -11 3 -14 6 -6 3 7 2 16 -1 19 -3 4 -6 -2 -5 -13z"/>
<path d="M2832 1875 c0 -16 2 -22 5 -12 2 9 2 23 0 30 -3 6 -5 -1 -5 -18z"/>
<path d="M4443 2875 c0 -44 2 -61 4 -37 2 23 2 59 0 80 -2 20 -4 1 -4 -43z"/>
<path d="M4671 2574 c0 -11 3 -14 6 -6 3 7 2 16 -1 19 -3 4 -6 -2 -5 -13z"/>
<path d="M4071 1966 c-15 -8 -20 -16 -13 -20 10 -6 62 20 62 30 0 8 -26 3 -49
-10z"/>
<path d="M4166 1961 c-4 -7 -5 -15 -2 -18 9 -9 19 4 14 18 -4 11 -6 11 -12 0z"/>
<path d="M3555 2530 c-3 -5 -1 -10 4 -10 6 0 11 5 11 10 0 6 -2 10 -4 10 -3 0
-8 -4 -11 -10z"/>
<path d="M3705 1136 c-37 -56 22 -116 66 -67 10 11 14 16 7 11 -18 -15 -58
-12 -65 5 -6 17 23 55 42 55 7 0 20 -10 28 -22 11 -16 16 -18 16 -8 1 25 -13
39 -46 46 -26 5 -34 2 -48 -20z"/>
<path d="M4234 1105 c-18 -28 -13 -54 17 -81 18 -17 23 -17 46 -4 13 8 32 27
41 42 15 25 15 28 -3 47 -26 30 -80 28 -101 -4z m75 -18 c8 -11 6 -18 -8 -31
-22 -20 -41 -14 -41 13 0 32 28 42 49 18z"/>
<path d="M4640 685 c-17 -25 -29 -45 -26 -45 3 0 19 20 36 45 17 25 29 45 26
45 -3 0 -19 -20 -36 -45z"/>
<path d="M4657 643 c-4 -3 -7 -11 -7 -17 0 -6 5 -5 12 2 6 6 9 14 7 17 -3 3
-9 2 -12 -2z"/>
<path d="M4669 553 c-13 -16 -12 -17 4 -4 16 13 21 21 13 21 -2 0 -10 -8 -17
-17z"/>
<path d="M4690 419 c0 -5 5 -7 10 -4 6 3 10 8 10 11 0 2 -4 4 -10 4 -5 0 -10
-5 -10 -11z"/>
<path d="M4656 375 c-10 -15 -15 -32 -13 -38 2 -7 12 3 21 21 21 41 15 53 -8
17z"/>
<path d="M4674 308 l-19 -23 23 19 c12 11 22 21 22 23 0 8 -8 2 -26 -19z"/>
<path d="M4719 283 c-13 -16 -12 -17 4 -4 16 13 21 21 13 21 -2 0 -10 -8 -17
-17z"/>
<path d="M4626 256 c-9 -14 -12 -27 -8 -30 5 -3 16 8 26 25 21 35 5 39 -18 5z"/>
<path d="M3505 439 c-4 -6 -5 -12 -2 -15 2 -3 7 2 10 11 7 17 1 20 -8 4z"/>
<path d="M2841 7127 c-12 -14 -19 -30 -16 -40 7 -18 -8 -51 -39 -86 -11 -13
-15 -21 -8 -17 22 13 13 -19 -19 -67 -16 -25 -39 -49 -49 -52 -10 -3 -24 -13
-32 -23 -12 -15 -11 -16 5 -3 32 26 29 4 -10 -55 -21 -32 -55 -89 -76 -127
-37 -67 -259 -426 -375 -607 -126 -196 -149 -230 -227 -335 -45 -60 -107 -147
-138 -193 -32 -45 -98 -135 -148 -200 -158 -205 -234 -304 -244 -316 -6 -6
-34 -40 -63 -76 -29 -36 -63 -76 -76 -90 -13 -14 -32 -38 -42 -55 -10 -16 -25
-37 -31 -45 -7 -8 -49 -62 -93 -119 -44 -57 -102 -129 -129 -160 -26 -31 -70
-84 -97 -118 -27 -34 -80 -101 -119 -150 -38 -48 -99 -119 -135 -158 -91 -98
-116 -133 -96 -141 8 -3 68 2 133 11 136 20 244 16 343 -14 151 -45 357 -135
423 -185 l34 -26 11 38 c31 103 43 334 22 417 -5 22 -12 94 -16 160 -9 188 7
235 201 595 43 80 99 186 125 235 43 83 109 196 177 305 15 25 69 113 119 195
113 187 184 302 234 380 21 33 55 89 76 125 20 36 56 82 78 104 23 21 33 33
24 26 -13 -9 -18 -9 -18 -1 0 16 67 148 80 156 5 3 10 18 10 32 0 29 44 126
66 144 8 6 12 21 9 33 -3 12 4 36 16 56 12 19 23 50 25 68 2 18 7 38 11 45 4
6 8 24 9 38 1 14 10 38 20 54 10 15 19 35 20 44 1 9 16 54 33 101 43 117 41
148 -8 97z m-1550 -2587 c-18 -56 -26 -62 -34 -25 -3 16 3 35 15 50 30 38 36
30 19 -25z m-46 -67 c4 -21 9 -45 12 -53 3 -8 7 -44 9 -80 4 -60 23 -142 45
-198 14 -34 11 -40 -15 -35 -18 4 -26 15 -34 46 -9 36 -11 38 -10 12 0 -51 -1
-57 -19 -53 -9 2 -22 21 -29 43 l-14 40 5 -42 c5 -38 3 -43 -14 -43 -16 0 -22
13 -34 68 -31 137 -37 181 -26 209 11 31 23 23 38 -27 9 -32 10 -30 5 20 -4
40 -1 61 10 75 8 11 17 18 20 15 2 -3 12 -48 21 -100 8 -52 20 -111 25 -130
l10 -35 -4 40 c-3 22 -12 84 -21 137 -10 54 -15 104 -11 113 10 27 25 16 31
-22z m-127 -217 c12 -52 22 -106 22 -120 0 -35 -26 -34 -38 2 l-10 27 -1 -32
c-1 -23 -6 -33 -16 -33 -19 0 -28 24 -45 113 -10 53 -10 70 0 82 20 24 28 18
35 -27 11 -74 17 -100 22 -95 2 3 -1 39 -7 81 -11 72 -9 96 9 96 4 0 17 -42
29 -94z m-99 -58 c17 -67 19 -92 6 -98 -14 -7 -35 42 -42 100 -4 39 -3 50 8
50 9 0 20 -21 28 -52z m-50 -10 c15 -40 22 -98 13 -98 -13 0 -45 88 -38 105 8
21 15 19 25 -7z m-33 -54 c16 -38 14 -50 -9 -41 -22 8 -31 77 -11 77 3 0 12
-16 20 -36z m-55 -37 c-13 -13 -26 -3 -16 12 3 6 11 8 17 5 6 -4 6 -10 -1 -17z"/>
<path d="M1172 4280 c0 -19 4 -46 8 -60 6 -20 8 -21 8 -5 1 11 -3 38 -7 60
l-9 40 0 -35z"/>
<path d="M2760 7049 c-25 -23 -36 -36 -25 -31 19 10 84 73 74 72 -2 -1 -24
-19 -49 -41z"/>
<path d="M2690 6978 c-12 -22 -12 -22 6 -6 10 10 15 20 12 24 -4 3 -12 -5 -18
-18z"/>
<path d="M2599 6293 c-13 -16 -12 -17 4 -4 9 7 17 15 17 17 0 8 -8 3 -21 -13z"/>
<path d="M2500 6125 c-7 -9 -11 -17 -9 -20 3 -2 10 5 17 15 14 24 10 26 -8 5z"/>
<path d="M4946 6105 c-9 -26 -7 -32 5 -12 6 10 9 21 6 23 -2 3 -7 -2 -11 -11z"/>
<path d="M4965 6030 c-4 -12 -5 -24 -2 -27 3 -2 8 5 12 17 4 12 5 24 2 27 -3
2 -8 -5 -12 -17z"/>
<path d="M5005 5990 c-4 -12 -5 -24 -2 -27 3 -2 8 5 12 17 4 12 5 24 2 27 -3
2 -8 -5 -12 -17z"/>
<path d="M5027 5916 c-4 -10 -5 -21 -2 -24 9 -9 17 6 13 25 -3 17 -4 17 -11
-1z"/>
<path d="M5065 5855 c-3 -8 -7 -22 -10 -30 -2 -8 -1 -15 4 -15 5 0 11 14 13
30 5 32 1 40 -7 15z"/>
<path d="M3516 5718 c-8 -13 -38 -88 -66 -168 -28 -80 -62 -174 -75 -210 -37
-98 -77 -222 -72 -226 4 -4 19 24 37 74 7 17 15 32 19 32 4 0 8 10 8 22 1 13
6 32 12 43 5 11 17 46 26 78 9 31 22 57 29 57 8 0 11 10 8 29 -2 16 2 39 9 52
7 13 13 33 14 43 1 11 7 22 13 24 7 2 12 13 12 25 0 29 34 118 45 118 5 0 12
-8 16 -18 7 -16 8 -16 8 3 1 12 -5 27 -13 33 -12 10 -18 8 -30 -11z"/>
<path d="M1648 5608 c-53 -72 -83 -115 -103 -147 -5 -9 -25 -33 -42 -54 -18
-20 -33 -41 -33 -46 0 -4 -14 -26 -30 -47 -53 -69 -67 -88 -103 -139 -59 -83
-183 -268 -201 -300 -17 -29 -16 -28 14 5 17 19 38 46 48 60 26 40 96 135 103
140 15 12 149 216 149 226 0 6 10 19 21 30 12 10 42 51 67 89 25 39 67 99 92
135 59 82 84 120 77 120 -2 0 -29 -33 -59 -72z"/>
<path d="M2735 5580 c-3 -5 -2 -10 4 -10 5 0 13 5 16 10 3 6 2 10 -4 10 -5 0
-13 -4 -16 -10z"/>
<path d="M2679 5423 c-13 -16 -12 -17 4 -4 9 7 17 15 17 17 0 8 -8 3 -21 -13z"/>
<path d="M2620 5370 c-9 -6 -10 -10 -3 -10 6 0 15 5 18 10 8 12 4 12 -15 0z"/>
<path d="M2712 5274 c-7 -14 -8 -23 -2 -19 15 9 32 45 22 45 -5 0 -14 -12 -20
-26z"/>
<path d="M2761 5255 c0 -17 -8 -41 -17 -53 -8 -12 -10 -22 -5 -22 6 0 12 -10
12 -22 1 -13 5 4 10 37 5 33 7 67 5 75 -2 8 -4 1 -5 -15z"/>
<path d="M2545 5199 c-11 -17 1 -21 15 -4 8 9 8 15 2 15 -6 0 -14 -5 -17 -11z"/>
<path d="M2624 5168 l-19 -23 23 19 c21 18 27 26 19 26 -2 0 -12 -10 -23 -22z"/>
<path d="M2679 5133 c-13 -16 -12 -17 4 -4 16 13 21 21 13 21 -2 0 -10 -8 -17
-17z"/>
<path d="M2742 5080 c0 -14 2 -19 5 -12 2 6 2 18 0 25 -3 6 -5 1 -5 -13z"/>
<path d="M3291 5084 c0 -11 3 -14 6 -6 3 7 2 16 -1 19 -3 4 -6 -2 -5 -13z"/>
<path d="M3357 5079 c4 -13 8 -18 11 -10 2 7 -1 18 -6 23 -8 8 -9 4 -5 -13z"/>
<path d="M2614 5068 l-19 -23 23 19 c21 18 27 26 19 26 -2 0 -12 -10 -23 -22z"/>
<path d="M3371 5040 c0 -8 4 -22 9 -30 12 -18 12 -2 0 25 -6 13 -9 15 -9 5z"/>
<path d="M3640 5028 c0 -9 5 -20 10 -23 13 -8 13 5 0 25 -8 13 -10 13 -10 -2z"/>
<path d="M2731 5004 c0 -11 3 -14 6 -6 3 7 2 16 -1 19 -3 4 -6 -2 -5 -13z"/>
<path d="M2636 4995 c-3 -8 -1 -15 3 -15 5 0 11 7 15 15 3 8 1 15 -3 15 -5 0
-11 -7 -15 -15z"/>
<path d="M3296 4975 c4 -16 11 -34 16 -40 7 -7 8 -1 3 15 -12 40 -26 59 -19
25z"/>
<path d="M3611 4974 c0 -11 3 -14 6 -6 3 7 2 16 -1 19 -3 4 -6 -2 -5 -13z"/>
<path d="M3756 4937 c3 -10 9 -15 12 -12 3 3 0 11 -7 18 -10 9 -11 8 -5 -6z"/>
<path d="M3770 4905 c0 -5 5 -17 10 -25 5 -8 10 -10 10 -5 0 6 -5 17 -10 25
-5 8 -10 11 -10 5z"/>
<path d="M2667 4850 c-50 -67 -47 -75 4 -10 22 28 39 53 37 56 -2 2 -21 -19
-41 -46z"/>
<path d="M3261 4885 c1 -19 18 -51 18 -35 0 8 -4 22 -9 30 -5 8 -9 11 -9 5z"/>
<path d="M3331 4854 c0 -11 3 -14 6 -6 3 7 2 16 -1 19 -3 4 -6 -2 -5 -13z"/>
<path d="M1074 4793 c-15 -20 -23 -33 -16 -29 13 8 56 66 49 66 -3 0 -17 -17
-33 -37z"/>
<path d="M2687 4776 c-50 -60 -47 -72 3 -16 34 38 48 60 37 60 -1 0 -19 -20
-40 -44z"/>
<path d="M1006 4711 c-13 -21 -55 -71 -93 -112 -111 -121 -256 -300 -214 -264
23 19 99 107 230 264 104 125 123 151 112 151 -6 0 -22 -17 -35 -39z"/>
<path d="M2710 4726 c0 -9 -7 -28 -16 -41 -10 -16 -12 -25 -5 -25 11 0 10 -49
-3 -155 -9 -71 -14 -365 -6 -370 4 -2 10 73 13 168 4 95 12 231 17 301 6 71 8
131 5 134 -3 3 -5 -2 -5 -12z"/>
<path d="M3846 4717 c3 -10 9 -15 12 -12 3 3 0 11 -7 18 -10 9 -11 8 -5 -6z"/>
<path d="M3860 4681 c0 -6 4 -13 10 -16 6 -3 7 1 4 9 -7 18 -14 21 -14 7z"/>
<path d="M3270 4610 c0 -5 5 -10 11 -10 5 0 7 5 4 10 -3 6 -8 10 -11 10 -2 0
-4 -4 -4 -10z"/>
<path d="M3970 4445 c0 -5 5 -17 10 -25 5 -8 10 -10 10 -5 0 6 -5 17 -10 25
-5 8 -10 11 -10 5z"/>
<path d="M573 4208 c-39 -40 -85 -89 -104 -109 -19 -21 -119 -119 -224 -220
-104 -100 -193 -190 -196 -198 -4 -9 -4 -24 0 -33 6 -17 239 -218 253 -218 19
0 3 18 -47 54 -72 52 -174 155 -181 184 -5 19 17 45 142 164 225 214 450 448
431 448 -3 0 -36 -33 -74 -72z"/>
<path d="M2663 4057 c-8 -27 -7 -34 3 -34 9 0 14 12 14 34 0 18 -1 33 -3 33
-2 0 -8 -15 -14 -33z"/>
<path d="M6140 3869 c-15 -35 -95 -142 -109 -147 -7 -2 2 23 18 57 17 34 28
61 24 61 -8 0 -19 -18 -118 -205 -29 -55 -74 -131 -99 -170 -47 -72 -64 -122
-25 -75 l21 25 -6 -34 c-23 -132 -28 -227 -17 -334 17 -166 62 -344 91 -362
19 -12 50 16 156 138 117 134 267 305 357 403 71 79 73 94 10 94 -83 1 -186
66 -227 145 -17 31 -18 40 -7 57 11 18 11 20 -3 15 -19 -8 -32 11 -17 26 16
16 14 27 -4 21 -11 -5 -15 1 -16 22 -3 91 15 139 72 188 22 18 39 38 39 43 0
14 -40 24 -69 16 -22 -6 -22 -4 -11 18 7 13 -6 4 -28 -21 -41 -45 -57 -42 -26
6 9 13 14 27 11 31 -4 3 -11 -5 -17 -18z"/>
<path d="M6353 3878 c-20 -26 -26 -41 -15 -34 12 7 36 46 29 46 -3 0 -9 -6
-14 -12z"/>
<path d="M6500 3850 c-14 -4 -24 -13 -22 -20 6 -27 -7 -41 -26 -31 -39 21
-119 -18 -156 -74 -11 -17 -12 -32 -4 -66 5 -24 11 -50 12 -57 5 -31 81 -92
133 -107 48 -14 56 -14 84 0 21 11 39 34 54 68 29 63 22 117 -20 173 -17 22
-24 39 -18 45 13 13 43 0 43 -18 0 -8 4 -12 9 -9 14 9 59 -51 70 -92 12 -47 1
-115 -28 -170 -12 -24 -20 -47 -17 -50 3 -3 7 -3 9 -1 41 55 126 159 175 212
34 38 62 77 62 87 0 22 -37 53 -91 77 -21 9 -39 20 -39 25 0 4 -7 5 -15 2 -8
-4 -23 -3 -32 1 -24 9 -152 13 -183 5z m34 -49 c3 -5 0 -13 -7 -19 -15 -13
-42 1 -33 17 9 13 33 15 40 2z m-128 -49 c-4 -12 3 -23 23 -35 28 -16 30 -16
35 0 6 18 66 31 66 14 0 -10 -31 -37 -48 -42 -10 -3 -9 -9 3 -24 10 -14 13
-15 9 -4 -3 11 5 24 24 38 36 25 50 16 21 -15 -20 -21 -20 -24 -5 -30 11 -4
22 0 31 12 13 18 14 16 15 -18 0 -37 -33 -88 -48 -73 -4 3 -2 9 3 13 6 4 17
16 25 26 15 19 14 19 -12 2 -18 -12 -28 -27 -28 -42 0 -73 -43 -92 -115 -51
-49 27 -79 83 -79 148 0 49 14 76 49 89 31 13 37 12 31 -8z m52 -2 c-14 -23
-38 -27 -38 -7 0 19 10 27 32 27 16 0 16 -3 6 -20z m87 -220 c-3 -5 -10 -10
-16 -10 -5 0 -9 5 -9 10 0 6 7 10 16 10 8 0 12 -4 9 -10z"/>
<path d="M775 3780 c-28 -46 -59 -68 -70 -51 -2 5 9 27 26 49 43 59 22 52 -26
-8 -22 -28 -48 -50 -58 -50 -17 0 -17 4 8 36 15 19 25 37 22 40 -2 2 -19 -16
-38 -40 -37 -49 -50 -58 -67 -47 -8 5 -4 19 14 46 22 35 19 33 -24 -14 -50
-56 -79 -58 -46 -4 10 16 0 9 -23 -17 -41 -45 -65 -51 -44 -11 9 16 9 19 -2
15 -8 -3 -19 -16 -25 -30 -16 -33 -36 -32 -28 2 10 38 -10 20 -24 -21 -11 -34
-10 -37 16 -58 16 -12 50 -40 76 -62 72 -61 145 -110 165 -110 14 0 19 9 21
39 5 63 47 119 129 171 41 27 50 38 46 54 -3 12 1 29 8 39 7 9 2 7 -12 -5 -25
-23 -59 -31 -59 -15 0 5 14 28 30 50 31 44 35 52 23 52 -5 0 -21 -23 -38 -50z"/>
<path d="M859 3798 c-17 -24 -18 -29 -6 -19 18 14 42 51 33 51 -3 0 -15 -15
-27 -32z"/>
<path d="M5970 3750 c-19 -37 -111 -191 -146 -245 -13 -20 -14 -25 -3 -25 15
0 36 32 77 115 13 27 39 72 57 100 47 75 57 95 46 95 -6 0 -20 -18 -31 -40z"/>
<path d="M1109 3743 c-8 -9 -29 -22 -46 -30 -18 -7 -33 -19 -33 -26 -1 -6 -10
-23 -21 -36 -15 -18 -23 -21 -31 -13 -8 8 -1 24 27 59 l37 48 -41 -42 c-40
-42 -81 -57 -81 -30 0 7 6 19 13 27 6 8 1 5 -13 -6 -31 -26 -60 -37 -60 -22 0
6 9 26 21 44 31 51 16 41 -30 -21 -23 -31 -46 -53 -51 -50 -5 3 -21 -12 -36
-32 -15 -21 -39 -50 -52 -64 -41 -47 -37 -95 16 -151 18 -20 38 -29 78 -34 76
-9 124 17 197 106 38 46 49 65 33 54 -25 -16 -26 -16 -26 5 0 12 16 38 35 59
28 30 37 34 44 23 6 -10 6 -22 0 -33 -6 -12 -6 -18 1 -18 25 0 6 -32 -47 -79
-31 -28 -54 -53 -51 -57 4 -3 25 15 48 40 24 25 47 46 52 46 20 0 -7 -45 -63
-103 -32 -34 -59 -66 -59 -71 0 -4 14 6 30 24 17 18 34 30 37 26 4 -3 -9 -22
-27 -41 -18 -19 -36 -33 -38 -30 -3 3 -10 -2 -16 -10 -16 -21 -99 -34 -147
-24 -22 5 -53 19 -70 31 -32 24 -50 18 -28 -8 24 -30 87 -63 129 -70 28 -5 57
-20 90 -48 258 -220 471 -396 479 -396 15 0 28 24 47 82 11 36 33 76 61 108
30 34 39 50 29 50 -18 0 -21 15 -6 25 6 3 10 11 10 18 0 8 -3 8 -12 -1 -36
-36 -37 10 -1 63 19 30 21 35 6 23 -38 -34 -45 -18 -9 22 20 22 36 43 36 46 0
8 -31 -16 -46 -35 -12 -15 -34 -7 -34 12 0 6 19 31 43 56 41 43 41 44 6 18
-20 -15 -41 -27 -47 -27 -15 0 -15 25 -2 50 8 15 6 17 -10 13 -25 -7 -38 22
-21 49 11 17 10 18 -8 9 -25 -14 -35 9 -16 36 21 26 18 39 -3 20 -37 -33 -58
-12 -25 25 17 19 5 26 -14 7 -18 -18 -35 -1 -22 23 9 17 8 19 -9 14 -22 -7
-48 17 -36 35 5 9 2 10 -9 6 -25 -9 -31 12 -10 35 l18 21 -31 -16 c-40 -21
-63 -4 -36 26 16 19 16 20 -6 8 -43 -23 -70 9 -37 43 8 8 15 18 15 23 -1 4
-12 -5 -25 -22 -24 -29 -24 -29 -45 -10 -19 17 -19 19 -3 37 16 18 16 18 0 12
-9 -3 -17 -10 -17 -16 0 -5 -10 -8 -22 -6 -31 4 -34 35 -7 64 12 13 20 24 17
24 -3 0 -12 -7 -19 -17z m-39 -107 c0 -11 -52 -56 -64 -56 -17 0 -11 35 11 60
20 24 28 28 39 19 8 -6 14 -17 14 -23z m-200 -16 c0 -5 6 -10 14 -10 27 0 36
-73 14 -113 -18 -34 -40 -46 -81 -42 -49 5 -67 20 -67 57 0 41 15 64 58 93 40
26 62 31 62 15z m90 -29 c0 -12 -28 -22 -34 -12 -3 5 -3 11 1 15 9 9 33 7 33
-3z m12 -37 c3 -3 4 -14 1 -24 -4 -16 -9 -18 -24 -9 -24 13 -25 39 -1 39 10 0
21 -3 24 -6z m-7 -64 c9 -15 -14 -40 -31 -33 -22 8 -18 43 5 43 11 0 23 -5 26
-10z m-204 -40 c10 -6 19 -20 19 -31 0 -21 -1 -20 -25 2 -36 35 -33 50 6 29z
m164 -10 c11 -17 -5 -32 -21 -19 -8 6 -14 15 -14 20 0 12 27 11 35 -1z m-50
-28 c0 -18 -20 -15 -23 4 -3 10 1 15 10 12 7 -3 13 -10 13 -16z m-50 -1 c3 -5
1 -12 -5 -16 -5 -3 -10 1 -10 9 0 18 6 21 15 7z"/>
<path d="M5854 3675 c-9 -13 -14 -29 -12 -35 2 -7 11 5 21 24 19 41 15 47 -9
11z"/>
<path d="M6949 3603 c-13 -16 -12 -17 4 -4 9 7 17 15 17 17 0 8 -8 3 -21 -13z"/>
<path d="M2676 3458 l-18 -33 21 25 c18 22 26 40 18 40 -1 0 -11 -15 -21 -32z"/>
<path d="M2551 3396 c-7 -8 -9 -21 -5 -27 5 -9 10 -5 16 11 10 28 5 36 -11 16z"/>
<path d="M2614 3365 c-9 -13 -14 -29 -12 -35 2 -6 11 5 19 24 19 42 16 46 -7
11z"/>
<path d="M2696 3373 c-6 -14 -5 -15 5 -6 7 7 10 15 7 18 -3 3 -9 -2 -12 -12z"/>
<path d="M2636 3291 c-4 -7 -5 -15 -2 -18 9 -9 19 4 14 18 -4 11 -6 11 -12 0z"/>
<path d="M2666 3245 c-18 -27 -20 -35 -8 -35 4 0 13 14 19 30 14 36 11 38 -11
5z"/>
<path d="M2713 3185 c-3 -9 -3 -18 -1 -21 3 -3 8 4 11 16 6 23 -1 27 -10 5z"/>
<path d="M2740 3115 c-6 -8 -10 -19 -8 -24 1 -6 8 1 15 14 13 28 11 31 -7 10z"/>
<path d="M2761 3024 c0 -11 3 -14 6 -6 3 7 2 16 -1 19 -3 4 -6 -2 -5 -13z"/>
<path d="M2780 2959 c0 -5 5 -7 10 -4 6 3 10 8 10 11 0 2 -4 4 -10 4 -5 0 -10
-5 -10 -11z"/>
<path d="M2836 2741 c-4 -7 -5 -15 -2 -18 9 -9 19 4 14 18 -4 11 -6 11 -12 0z"/>
<path d="M4925 2710 c-10 -11 -13 -20 -7 -20 6 0 16 9 22 20 6 11 9 20 7 20
-2 0 -12 -9 -22 -20z"/>
<path d="M2865 2689 c-9 -17 -15 -34 -13 -39 2 -5 11 9 20 30 20 47 15 53 -7
9z"/>
<path d="M2885 2609 c-4 -6 -5 -12 -2 -15 2 -3 7 2 10 11 7 17 1 20 -8 4z"/>
<path d="M4969 2593 c-13 -16 -12 -17 4 -4 9 7 17 15 17 17 0 8 -8 3 -21 -13z"/>
<path d="M2871 2564 c0 -11 3 -14 6 -6 3 7 2 16 -1 19 -3 4 -6 -2 -5 -13z"/>
<path d="M4949 2524 c-13 -14 -17 -23 -9 -19 13 5 46 45 37 45 -2 0 -14 -11
-28 -26z"/>
<path d="M2886 2501 c-4 -7 -5 -15 -2 -18 9 -9 19 4 14 18 -4 11 -6 11 -12 0z"/>
<path d="M2894 2439 c-11 -23 -12 -30 -3 -27 11 4 33 58 23 58 -2 0 -11 -14
-20 -31z"/>
<path d="M1384 2424 c-18 -14 -18 -15 4 -4 12 6 22 13 22 15 0 8 -5 6 -26 -11z"/>
<path d="M4910 2425 c-7 -9 -8 -15 -2 -15 5 0 12 7 16 15 3 8 4 15 2 15 -2 0
-9 -7 -16 -15z"/>
<path d="M1326 2385 c-11 -8 -15 -15 -10 -15 6 0 19 7 30 15 10 8 15 14 9 14
-5 0 -19 -6 -29 -14z"/>
<path d="M1353 2356 c-15 -13 -26 -27 -23 -30 3 -3 18 8 34 24 34 36 28 39
-11 6z"/>
<path d="M1351 2281 c-19 -15 -32 -32 -30 -37 2 -5 19 7 38 28 40 45 38 47 -8
9z"/>
<path d="M1559 1881 c-13 -11 -21 -22 -18 -25 3 -3 16 5 29 19 28 30 22 33
-11 6z"/>
<path d="M5890 1869 c0 -5 5 -7 10 -4 6 3 10 8 10 11 0 2 -4 4 -10 4 -5 0 -10
-5 -10 -11z"/>
<path d="M4521 1849 c-13 -11 -22 -21 -20 -23 2 -3 15 4 28 15 13 11 22 21 20
23 -2 3 -15 -4 -28 -15z"/>
<path d="M5833 1858 c-20 -26 -26 -41 -15 -34 12 7 36 46 29 46 -3 0 -9 -6
-14 -12z"/>
<path d="M5660 1788 c-15 -21 -17 -28 -6 -19 16 13 41 51 33 51 -2 0 -14 -15
-27 -32z"/>
<path d="M5590 1779 c-16 -30 -8 -31 13 -3 10 13 13 24 8 24 -6 0 -15 -9 -21
-21z"/>
<path d="M2189 1753 c-13 -16 -12 -17 4 -4 9 7 17 15 17 17 0 8 -8 3 -21 -13z"/>
<path d="M4455 1751 c-6 -11 9 -23 19 -14 9 9 7 23 -3 23 -6 0 -12 -4 -16 -9z"/>
<path d="M5532 1739 c-7 -12 -19 -18 -27 -15 -9 3 -12 0 -8 -10 3 -8 -1 -22
-8 -32 -13 -15 -12 -16 4 -3 22 17 61 71 55 76 -2 2 -9 -5 -16 -16z"/>
<path d="M5823 1693 c9 -2 25 -2 35 0 9 3 1 5 -18 5 -19 0 -27 -2 -17 -5z"/>
<path d="M5496 1624 c-26 -9 -46 -17 -44 -20 3 -2 31 4 64 15 32 10 52 19 44
19 -8 0 -37 -6 -64 -14z"/>
<path d="M5381 1589 c-27 -22 -8 -25 28 -5 17 9 20 14 9 18 -7 3 -24 -3 -37
-13z"/>
<path d="M5306 1555 c-25 -19 -9 -19 24 0 14 8 19 14 10 14 -8 0 -24 -6 -34
-14z"/>
<path d="M5175 1494 c-27 -19 -51 -30 -53 -24 -5 14 -22 2 -22 -16 0 -11 18
-5 70 23 38 21 70 41 70 46 0 13 -14 7 -65 -29z"/>
<path d="M4115 827 c-10 -15 -16 -30 -13 -32 8 -9 40 33 36 47 -3 8 -11 2 -23
-15z"/>
<path d="M3966 593 c-14 -29 -22 -53 -16 -53 13 0 52 78 47 93 -2 7 -16 -12
-31 -40z"/>
<path d="M4001 565 c-24 -41 -41 -78 -39 -81 7 -6 89 137 85 149 -1 5 -22 -26
-46 -68z"/>
<path d="M3925 599 c-4 -11 -4 -23 0 -27 7 -7 25 17 25 36 0 20 -18 14 -25 -9z"/>
<path d="M4036 530 c-14 -22 -26 -43 -26 -47 0 -4 -9 -17 -21 -29 -11 -12 -19
-30 -17 -41 3 -15 6 -12 19 12 9 17 31 54 49 83 39 61 36 81 -4 22z"/>
<path d="M4259 550 c-18 -15 -20 -19 -8 -20 9 0 24 9 34 20 23 26 4 26 -26 0z"/>
<path d="M4073 488 c-39 -44 -115 -149 -111 -154 5 -4 91 101 122 149 22 33
17 35 -11 5z"/>
<path d="M4083 432 c-77 -96 -123 -161 -123 -174 0 -7 5 -4 12 7 6 11 42 60
81 108 38 48 67 90 65 92 -3 3 -18 -12 -35 -33z"/>
<path d="M4145 170 c3 -5 11 -10 16 -10 6 0 7 5 4 10 -3 6 -11 10 -16 10 -6 0
-7 -4 -4 -10z"/>
<path d="M3980 53 c0 -13 5 -23 10 -23 13 0 13 11 0 30 -8 12 -10 11 -10 -7z"/>
</g>
</svg>
