<?xml version="1.0" standalone="no"?>
<!DOCTYPE svg PUBLIC "-//W3C//DTD SVG 20010904//EN"
 "http://www.w3.org/TR/2001/REC-SVG-20010904/DTD/svg10.dtd">
<svg version="1.0" xmlns="http://www.w3.org/2000/svg"
 width="282.000000" height="258.000000" viewBox="0 0 282.000000 258.000000"
 preserveAspectRatio="xMidYMid meet">

<g transform="translate(0.000000,258.000000) scale(0.100000,-0.100000)"
fill="#000000" stroke="none">
<path d="M1310 2560 c-8 -5 -11 -10 -6 -10 6 0 1 -7 -10 -15 -10 -8 -14 -15
-9 -15 6 0 -1 -7 -15 -15 l-25 -15 30 5 c114 19 109 19 102 1 -4 -10 -7 -48
-7 -85 l0 -68 -35 2 c-18 0 -44 10 -56 21 l-23 19 21 -30 c11 -16 30 -39 42
-49 20 -18 20 -20 3 -32 -9 -7 -26 -14 -37 -14 l-20 -1 20 -9 c11 -5 35 -9 53
-9 25 -1 32 -5 32 -22 0 -11 5 -17 10 -14 6 3 10 -3 10 -14 0 -11 5 -23 10
-26 6 -3 10 -21 11 -38 1 -31 1 -31 9 -7 4 14 8 40 9 59 l1 34 23 -20 c19 -18
57 -28 57 -15 0 2 -12 18 -26 35 -31 37 -21 47 49 47 30 0 46 4 42 10 -3 6 -1
10 4 10 16 0 13 -61 -4 -90 -25 -44 -17 -57 15 -23 50 55 69 172 30 193 -16 9
-19 8 -15 -7 3 -10 -2 -4 -10 12 -15 30 -15 30 -9 -23 l6 -53 -84 7 c-45 4
-84 7 -85 8 -1 1 -5 50 -9 110 l-7 108 44 -7 c24 -4 63 -16 86 -28 51 -25 69
-14 31 18 -59 51 -214 84 -258 55z m17 -36 c-3 -3 -12 -4 -19 -1 -8 3 -5 6 6
6 11 1 17 -2 13 -5z m8 -204 c10 -11 16 -20 13 -20 -3 0 -13 9 -23 20 -10 11
-16 20 -13 20 3 0 13 -9 23 -20z"/>
<path d="M1194 2375 c-24 -36 -43 -95 -44 -132 0 -32 24 -68 40 -58 5 3 10 -1
13 -7 3 -7 2 23 0 67 -4 63 -2 88 11 113 19 36 20 42 6 42 -5 0 -17 -11 -26
-25z"/>
<path d="M2495 2089 c-22 -12 -48 -29 -57 -39 -9 -10 -37 -33 -62 -51 -25 -18
-46 -37 -46 -42 0 -6 -2 -8 -5 -5 -9 8 -65 -48 -65 -65 0 -9 -5 -19 -11 -22
-6 -4 -8 -13 -5 -21 6 -16 -10 -19 -19 -4 -25 40 -35 -82 -12 -128 33 -64 48
-100 51 -114 5 -39 88 -98 154 -110 26 -5 59 -11 74 -15 39 -8 155 30 205 67
49 36 93 117 99 182 l4 43 -22 -45 -23 -45 -3 32 c-2 17 4 45 12 61 35 69 27
206 -16 251 -10 12 -14 21 -8 21 5 0 10 4 10 10 0 15 -58 41 -103 45 -23 2
-58 6 -77 9 -24 4 -47 -1 -75 -15z m159 -43 c18 -7 50 -35 71 -60 31 -38 39
-57 43 -100 3 -35 -1 -63 -11 -81 l-14 -28 -14 39 c-7 21 -13 42 -14 45 0 3
-8 13 -18 23 -9 10 -15 21 -12 25 2 5 -5 17 -16 27 -31 28 -190 29 -236 2 -42
-25 -44 -6 -5 41 25 31 33 34 98 38 76 6 119 -9 183 -62 38 -33 41 -18 4 20
-35 35 -98 68 -143 76 l-35 6 43 2 c23 0 58 -5 76 -13z m-285 -131 c-6 -22
-22 -53 -35 -68 -19 -23 -24 -40 -24 -88 0 -42 -3 -58 -11 -53 -17 10 -6 112
16 159 20 42 57 97 62 92 1 -2 -2 -21 -8 -42z m256 -26 c36 -21 66 -53 90 -96
18 -31 18 -33 -1 -54 -19 -21 -94 -64 -94 -54 0 3 12 16 27 29 50 43 24 144
-42 166 -37 12 -63 6 -29 -6 10 -4 32 -16 48 -27 25 -18 28 -24 23 -59 -7 -55
-31 -78 -79 -78 -58 0 -92 37 -85 93 4 27 2 36 -4 26 -25 -39 -1 -100 50 -126
20 -10 38 -21 39 -25 7 -16 71 -7 116 17 l46 24 0 -25 c0 -40 -27 -81 -60 -92
-16 -6 -30 -17 -30 -25 0 -18 -63 -47 -103 -47 -50 0 -106 19 -120 41 -6 10
-17 19 -23 19 -16 0 -37 46 -31 69 3 13 -1 24 -10 29 -18 10 -20 64 -4 105 11
29 31 37 31 12 0 -18 68 -95 84 -95 6 1 1 9 -11 19 -13 11 -23 26 -23 35 0 8
-4 18 -10 21 -22 13 -10 67 20 95 45 42 124 46 185 9z"/>
<path d="M209 2076 c-95 -34 -158 -100 -186 -195 -29 -102 -1 -205 80 -297 40
-46 120 -104 141 -104 6 0 -8 12 -31 26 -24 14 -43 29 -43 35 0 5 10 3 23 -5
27 -17 80 -33 57 -17 -13 9 -13 11 0 11 8 0 -10 15 -40 33 -105 63 -156 171
-131 282 21 93 105 164 194 165 133 1 204 -162 106 -245 -25 -20 -27 -25 -12
-25 15 0 16 -2 3 -10 -8 -6 -50 -9 -93 -8 l-77 2 -30 60 -30 61 0 -41 c0 -74
70 -147 153 -159 49 -8 111 11 156 46 127 100 79 335 -78 388 -44 14 -117 13
-162 -3z m279 -235 c-3 -39 -11 -66 -28 -89 -28 -38 -93 -72 -138 -72 -34 0
-109 26 -100 35 3 3 19 -2 37 -11 43 -22 113 -12 156 20 47 36 68 87 63 153
-3 38 -2 50 5 38 5 -10 7 -43 5 -74z m-258 -301 c8 -5 11 -10 5 -10 -5 0 -17
5 -25 10 -8 5 -10 10 -5 10 6 0 17 -5 25 -10z"/>
<path d="M1235 2070 c-8 -13 79 -68 128 -81 41 -11 149 -9 145 3 -2 4 6 14 17
22 19 15 19 15 -5 10 -14 -2 -7 2 14 11 73 28 62 29 -74 5 -73 -13 -116 -7
-172 21 -43 22 -45 22 -53 9z"/>
<path d="M742 1939 c139 -178 242 -361 254 -450 11 -79 -44 -213 -96 -234 -37
-16 -134 140 -166 268 -9 38 -20 65 -23 60 -4 -4 -33 -40 -64 -80 -69 -85
-146 -147 -223 -178 -45 -18 -60 -30 -72 -57 -13 -31 -15 -32 -24 -12 -5 11
-34 35 -64 52 -30 17 -52 27 -48 21 4 -7 -1 -7 -15 0 -22 12 -30 27 -9 16 7
-4 4 1 -6 9 -32 26 -38 4 -17 -64 11 -35 18 -66 16 -68 -7 -7 -47 137 -41 146
5 8 -45 47 -121 95 -32 20 80 -310 155 -456 75 -147 155 -241 295 -344 26 -19
66 -74 125 -173 86 -143 88 -145 227 -267 163 -142 256 -198 352 -208 l61 -7
5 28 4 29 2 -27 1 -28 159 0 c158 0 160 0 164 23 4 22 4 22 6 -2 1 -23 3 -23
63 -17 97 11 189 66 353 209 139 122 141 124 227 267 59 99 99 154 125 173
140 103 220 197 295 344 75 146 187 476 155 456 -75 -48 -126 -87 -121 -94 6
-10 -25 -124 -31 -117 -2 2 2 26 10 53 17 54 9 73 -21 49 -10 -8 -13 -13 -6
-9 21 11 13 -4 -9 -16 -17 -9 -20 -8 -14 3 4 7 -3 2 -15 -12 -12 -14 -18 -19
-14 -11 4 9 -8 6 -34 -9 -22 -12 -45 -32 -50 -44 -9 -20 -11 -19 -24 12 -12
27 -27 39 -72 57 -77 31 -154 93 -223 178 -31 40 -60 76 -64 80 -3 5 -14 -22
-23 -60 -32 -128 -129 -284 -166 -268 -52 21 -107 155 -96 234 12 89 115 272
254 450 36 47 58 82 48 78 -10 -4 -24 -7 -32 -7 -22 0 -120 -96 -171 -167 -25
-35 -47 -63 -49 -63 -11 0 64 99 114 153 30 31 52 57 49 57 -28 0 -120 -49
-152 -80 -22 -22 -68 -62 -102 -89 -68 -56 -69 -56 -98 21 -20 55 -7 55 -172
3 l-103 -33 -102 33 c-166 52 -153 52 -173 -3 -29 -77 -30 -77 -98 -21 -34 27
-80 67 -102 89 -32 31 -124 80 -152 80 -3 0 19 -26 49 -57 50 -54 125 -153
114 -153 -2 0 -24 28 -49 63 -51 71 -149 167 -171 167 -8 0 -22 3 -32 7 -10 4
12 -31 48 -78z m701 -366 c-18 -2 -48 -2 -65 0 -18 2 -4 4 32 4 36 0 50 -2 33
-4z m-123 -13 c-34 -11 -60 -11 -35 0 11 5 29 8 40 8 16 0 15 -2 -5 -8z m231
-5 c24 -9 55 -25 69 -36 l25 -21 -30 18 c-16 10 -55 26 -85 35 -30 10 -48 18
-39 18 8 1 35 -6 60 -14z m-292 -9 c-2 -2 -15 -9 -29 -15 -24 -11 -24 -11 -6
3 16 13 49 24 35 12z m-144 -96 c28 28 57 56 66 60 9 5 -11 -19 -45 -53 -128
-128 -286 -373 -310 -479 -4 -16 -3 -28 1 -28 12 1 122 143 191 246 62 93 115
140 149 131 14 -4 13 -5 -4 -6 -34 -2 -80 -47 -144 -142 -32 -48 -90 -127
-129 -175 -73 -92 -77 -101 -60 -181 40 -189 60 -296 59 -316 0 -12 -18 64
-40 168 -52 246 -51 286 11 410 58 117 56 112 38 98 -12 -11 -18 -9 -34 10
l-19 22 21 -18 c21 -18 22 -17 76 42 75 83 108 151 110 226 l1 60 6 -63 6 -63
50 51z m278 62 c-6 -4 -13 -21 -16 -37 -4 -27 -4 -27 -6 8 -1 29 3 37 17 37
11 0 13 -3 5 -8z m56 -29 c-2 -35 -2 -35 -6 -8 -3 16 -10 33 -16 37 -8 5 -6 8
6 8 13 0 17 -8 16 -37z m318 -45 c-2 -18 -4 -6 -4 27 0 33 2 48 4 33 2 -15 2
-42 0 -60z m-1057 68 c0 -23 -161 -181 -208 -205 -58 -29 -66 -26 -12 5 70 40
127 91 168 149 32 46 52 66 52 51z m1428 -16 c12 -19 11 -20 -8 -8 -11 7 -20
16 -20 20 0 15 15 8 28 -12z m-368 -97 c0 6 12 -13 27 -42 15 -29 52 -79 81
-112 54 -59 55 -60 76 -42 l21 18 -19 -22 c-16 -19 -22 -21 -34 -10 -18 14
-20 19 38 -98 61 -123 63 -164 11 -410 -21 -104 -40 -180 -40 -168 -1 20 19
126 59 316 17 80 13 89 -60 181 -39 48 -97 126 -129 174 -76 113 -99 133 -169
149 l-57 13 49 -5 c75 -8 104 -31 179 -140 72 -107 189 -257 195 -251 7 7 -20
91 -45 141 -47 92 -165 260 -253 360 l-53 60 62 -62 c33 -33 61 -56 61 -50z
m-350 77 c0 -5 -4 -10 -10 -10 -5 0 -10 5 -10 10 0 6 5 10 10 10 6 0 10 -4 10
-10z m900 -158 c60 -35 62 -43 2 -13 -46 23 -124 91 -154 134 -13 18 4 5 37
-29 33 -33 85 -75 115 -92z m-940 69 c-29 -57 -31 -51 -6 13 11 30 22 48 24
41 2 -7 -6 -32 -18 -54z m71 2 c10 -24 16 -43 13 -43 -8 0 -44 83 -43 100 1
13 1 13 6 0 3 -8 14 -34 24 -57z m-711 12 c0 -5 -5 -3 -10 5 -5 8 -10 20 -10
25 0 6 5 3 10 -5 5 -8 10 -19 10 -25z m1351 8 c-12 -20 -14 -14 -5 12 4 9 9
14 11 11 3 -2 0 -13 -6 -23z m-739 -20 c-6 -10 -20 -27 -33 -38 -17 -16 -16
-12 7 21 29 42 44 52 26 17z m147 -28 c9 -12 4 -8 -11 7 -16 16 -28 34 -28 41
0 6 6 3 12 -8 6 -11 18 -29 27 -40z m-666 -115 c17 -19 18 -21 3 -10 -22 17
-96 128 -96 143 0 6 16 -16 36 -49 19 -32 45 -70 57 -84z m1216 75 c-19 -31
-45 -66 -58 -78 -14 -13 -8 -1 14 28 21 28 45 65 53 82 9 18 18 31 20 28 3 -2
-10 -30 -29 -60z m-811 18 c-10 -2 -26 -2 -35 0 -10 3 -2 5 17 5 19 0 27 -2
18 -5z m49 -9 c-3 -3 -12 -4 -19 -1 -8 3 -5 6 6 6 11 1 17 -2 13 -5z m55 -6
c-9 -9 -9 -15 1 -27 11 -14 10 -14 -6 -2 -13 10 -15 17 -6 27 6 8 14 14 17 14
3 0 1 -5 -6 -12z m147 -2 c9 -10 7 -17 -6 -27 -16 -12 -17 -12 -6 2 10 12 10
18 1 27 -7 7 -9 12 -6 12 3 0 11 -6 17 -14z m68 8 c-3 -3 -12 -4 -19 -1 -8 3
-5 6 6 6 11 1 17 -2 13 -5z m-1276 -41 c13 -16 12 -17 -3 -4 -10 7 -18 15 -18
17 0 8 8 3 21 -13z m2279 13 c0 -2 -8 -10 -17 -17 -16 -13 -17 -12 -4 4 13 16
21 21 21 13z m-1109 -34 c-5 -10 -17 -25 -26 -32 -13 -11 -19 -10 -35 5 -11
10 -20 23 -20 29 1 6 10 0 20 -13 l20 -23 21 26 c24 30 34 34 20 8z m-101 -17
c13 -14 21 -25 18 -25 -2 0 -15 11 -28 25 -13 14 -21 25 -18 25 2 0 15 -11 28
-25z m1 -60 c73 -38 207 -95 225 -95 4 0 1 6 -5 14 -6 7 22 -4 62 -25 84 -44
83 -41 94 -191 l6 -87 -31 -18 c-18 -10 -32 -21 -32 -25 0 -5 -26 -8 -57 -7
-44 0 -53 3 -38 10 16 7 13 8 -13 4 -18 -2 -31 -1 -28 3 3 5 -8 13 -25 19 -16
6 -27 7 -24 3 3 -5 -8 -4 -26 2 -18 6 -26 13 -20 18 6 3 -4 6 -23 6 -19 -1
-32 -4 -30 -7 4 -7 -45 -24 -58 -21 -5 1 -8 -3 -8 -9 0 -6 -9 -8 -21 -4 -14 5
-19 3 -15 -4 5 -7 -4 -9 -26 -6 -26 4 -29 3 -13 -4 15 -7 6 -10 -37 -10 -32
-1 -58 3 -58 7 0 4 -14 16 -31 26 l-32 19 7 82 c6 88 31 230 46 271 6 16 29
34 62 49 29 14 56 25 59 25 4 0 44 -20 90 -45z m-1141 -10 c0 -5 -5 -3 -10 5
-5 8 -10 20 -10 25 0 6 5 3 10 -5 5 -8 10 -19 10 -25z m2411 8 c-12 -20 -14
-14 -5 12 4 9 9 14 11 11 3 -2 0 -13 -6 -23z m-2261 -273 c27 -36 61 -81 76
-100 24 -31 23 -31 -11 5 -65 70 -126 158 -171 247 -24 48 -44 91 -44 95 1 5
23 -35 50 -87 28 -52 72 -124 100 -160z m2207 154 c-46 -91 -106 -178 -172
-249 -34 -36 -35 -36 -11 -5 15 19 49 64 76 100 28 36 71 106 97 157 26 50 49
90 51 88 2 -1 -17 -43 -41 -91z m-729 2 c-1 -2 -12 -8 -23 -14 -19 -9 -20 -6
-23 41 l-3 52 27 -38 c14 -21 24 -40 22 -41z m-815 11 c6 -36 5 -37 -16 -26
-12 7 -23 13 -25 14 -2 2 4 15 14 29 20 31 20 32 27 -17z m-5 -180 c5 -6 15
-55 21 -108 7 -53 18 -120 26 -150 8 -29 12 -55 10 -58 -3 -2 -36 29 -75 69
-70 73 -130 173 -130 217 0 12 -4 23 -10 23 -5 0 16 35 48 78 l57 78 21 -68
c12 -38 26 -74 32 -81z m940 -5 c-4 -2 -8 -15 -8 -29 0 -42 -60 -140 -131
-216 -38 -39 -70 -69 -73 -66 -3 3 1 29 9 57 7 29 19 94 25 145 6 51 20 111
30 134 11 22 24 62 31 87 l11 45 57 -77 c32 -42 54 -78 49 -80z m-1409 -197
c9 3 12 3 8 -1 -8 -8 11 -34 25 -34 6 0 4 8 -3 18 -11 14 -11 15 1 5 17 -16
23 -46 7 -36 -37 21 -129 98 -172 144 -34 36 -23 28 34 -24 55 -51 90 -76 100
-72z m1856 94 c-43 -44 -137 -122 -171 -142 -19 -11 -11 23 10 40 21 18 21 18
2 -4 -11 -13 -16 -23 -11 -23 11 0 125 93 170 139 21 23 41 41 44 41 3 0 -17
-23 -44 -51z m-1285 -198 c0 -59 -1 -63 -15 -45 -11 14 -14 47 -13 129 l0 110
14 -65 c7 -36 13 -94 14 -129z m592 -50 l-18 -30 3 62 c2 34 9 94 16 132 l12
70 3 -102 c2 -84 0 -107 -16 -132z m-1181 182 c13 -16 12 -17 -3 -4 -10 7 -18
15 -18 17 0 8 8 3 21 -13z m1769 3 c0 -2 -8 -10 -17 -17 -16 -13 -17 -12 -4 4
13 16 21 21 21 13z m-1413 -246 c13 0 87 -85 128 -150 42 -64 96 -186 94 -212
0 -7 -9 10 -19 39 -57 159 -149 279 -271 352 -69 40 -209 139 -209 146 0 2 61
-37 135 -86 74 -49 137 -89 142 -89z m1323 176 c0 -8 -109 -85 -196 -139 -52
-32 -114 -81 -143 -112 -48 -53 -140 -218 -142 -254 0 -9 -3 -11 -5 -4 -17 42
166 331 212 334 5 0 68 40 139 89 139 95 135 92 135 86z m-1219 -113 c13 -16
12 -17 -3 -4 -10 7 -18 15 -18 17 0 8 8 3 21 -13z m859 13 c0 -2 -8 -10 -17
-17 -16 -13 -17 -12 -4 4 13 16 21 21 21 13z m-1034 -128 c4 -7 -9 1 -29 16
-20 16 -37 30 -37 33 0 7 58 -36 66 -49z m1254 48 c0 -2 -17 -16 -37 -31 l-38
-26 35 30 c34 31 40 35 40 27z m-1204 -88 l29 -33 -32 29 c-31 28 -38 36 -30
36 2 0 16 -15 33 -32z m1124 29 c0 -2 -15 -16 -32 -33 l-33 -29 29 33 c28 30
36 37 36 29z m-353 -89 c-3 -8 -6 -5 -6 6 -1 11 2 17 5 13 3 -3 4 -12 1 -19z
m-504 -108 c4 -29 -1 -18 -13 30 -11 41 -19 80 -19 85 2 19 27 -71 32 -115z
m562 4 c-14 -60 -22 -89 -19 -64 6 57 35 183 40 178 2 -2 -8 -53 -21 -114z
m-68 54 c-3 -8 -6 -5 -6 6 -1 11 2 17 5 13 3 -3 4 -12 1 -19z m-10 -40 c-3 -8
-6 -5 -6 6 -1 11 2 17 5 13 3 -3 4 -12 1 -19z m-597 -72 c0 -12 -5 -7 -19 24
-11 24 -11 24 3 6 9 -11 16 -24 16 -30z m587 22 c-3 -8 -6 -5 -6 6 -1 11 2 17
5 13 3 -3 4 -12 1 -19z m206 -13 c-9 -19 -18 -33 -21 -31 -4 5 26 66 33 66 3
0 -3 -16 -12 -35z m-666 -42 c-3 -10 -5 -4 -5 12 0 17 2 24 5 18 2 -7 2 -21 0
-30z m80 5 c-3 -8 -6 -5 -6 6 -1 11 2 17 5 13 3 -3 4 -12 1 -19z m370 0 c-3
-8 -6 -5 -6 6 -1 11 2 17 5 13 3 -3 4 -12 1 -19z m-547 -43 c0 -5 -5 -3 -10 5
-5 8 -10 20 -10 25 0 6 5 3 10 -5 5 -8 10 -19 10 -25z m731 8 c-12 -20 -14
-14 -5 12 4 9 9 14 11 11 3 -2 0 -13 -6 -23z m-544 -25 c-3 -7 -5 -2 -5 12 0
14 2 19 5 13 2 -7 2 -19 0 -25z m350 0 c-3 -7 -5 -2 -5 12 0 14 2 19 5 13 2
-7 2 -19 0 -25z m-430 -15 c-3 -10 -5 -4 -5 12 0 17 2 24 5 18 2 -7 2 -21 0
-30z m510 5 c-3 -7 -5 -2 -5 12 0 14 2 19 5 13 2 -7 2 -19 0 -25z"/>
<path d="M1593 990 c-32 -13 -29 -21 5 -10 56 18 58 18 37 19 -11 0 -30 -4
-42 -9z"/>
<path d="M1210 979 c19 -6 40 -15 45 -21 7 -7 4 -8 -10 -4 -11 3 -26 2 -34 -3
-27 -17 29 -40 98 -39 62 1 62 1 28 13 -19 6 -48 21 -65 33 -17 12 -45 24 -64
27 l-33 5 35 -11z"/>
<path d="M1533 953 c-49 -34 -8 -63 48 -34 38 19 36 37 -3 35 -16 -1 -25 2
-22 7 7 12 3 11 -23 -8z"/>
<path d="M1458 913 c7 -3 16 -2 19 1 4 3 -2 6 -13 5 -11 0 -14 -3 -6 -6z"/>
<path d="M290 1951 c25 -4 55 -12 68 -19 12 -7 22 -10 22 -8 0 14 -63 36 -97
35 l-38 -2 45 -6z"/>
<path d="M292 1920 c14 -4 32 -11 40 -15 7 -3 4 1 -6 9 -11 9 -29 16 -40 15
-17 -1 -16 -2 6 -9z"/>
<path d="M402 1855 c0 -16 2 -22 5 -12 2 9 2 23 0 30 -3 6 -5 -1 -5 -18z"/>
<path d="M371 1786 l-24 -31 28 27 c16 15 27 29 24 31 -2 3 -15 -10 -28 -27z"/>
</g>
</svg>
