<?xml version="1.0" standalone="no"?>
<!DOCTYPE svg PUBLIC "-//W3C//DTD SVG 20010904//EN"
 "http://www.w3.org/TR/2001/REC-SVG-20010904/DTD/svg10.dtd">
<svg version="1.0" xmlns="http://www.w3.org/2000/svg"
 width="915.000000" height="793.000000" viewBox="0 0 915.000000 793.000000"
 preserveAspectRatio="xMidYMid meet">

<g transform="translate(0.000000,793.000000) scale(0.100000,-0.100000)"
fill="#000000" stroke="none">
<path d="M4755 7879 l-40 -6 37 -2 36 -1 6 -97 c8 -136 8 -138 -12 -159 -9
-10 -32 -43 -51 -71 l-33 -53 -69 69 c-112 112 -286 185 -470 198 -104 7 -170
-11 -217 -60 -36 -38 -62 -94 -62 -137 l0 -30 -60 0 c-32 0 -82 -5 -110 -11
-60 -13 -120 -60 -120 -93 1 -16 4 -14 15 12 20 47 78 70 184 73 l84 3 17 -69
c30 -127 79 -195 139 -195 71 0 161 77 161 137 0 71 -72 118 -207 136 -91 13
-93 15 -71 78 26 77 68 112 156 129 99 19 325 -37 448 -111 61 -37 174 -150
174 -175 0 -8 5 -12 10 -9 22 14 8 -22 -23 -59 l-33 -39 -32 17 c-18 9 -62 20
-100 25 -80 10 -242 3 -259 -11 -19 -15 -16 -42 7 -63 11 -10 20 -21 20 -24 0
-4 -26 -25 -58 -49 -32 -23 -75 -65 -97 -93 -37 -49 -40 -50 -49 -29 -7 15 -6
28 4 43 12 20 12 21 -3 8 -15 -12 -19 -9 -34 19 -39 69 -41 61 -8 -24 l35 -89
-25 -62 c-13 -34 -27 -80 -31 -103 -7 -47 -13 -51 -39 -22 -10 11 -39 33 -64
50 -33 21 -51 40 -60 67 -7 21 -27 53 -44 71 -17 18 -38 51 -47 74 -20 53 -58
83 -97 74 -15 -4 -54 -35 -87 -69 -38 -40 -89 -79 -145 -110 -86 -48 -78 -56
11 -11 55 28 65 30 48 9 -8 -9 -8 -15 -2 -15 6 0 20 13 30 28 13 17 50 41 97
61 l77 34 22 -24 c13 -13 31 -46 40 -72 12 -32 32 -60 63 -85 25 -20 53 -54
64 -74 11 -21 22 -38 25 -38 2 0 0 9 -6 19 -27 52 -6 53 52 1 44 -38 45 -41
53 -117 9 -96 9 -103 0 -180 -7 -59 -6 -63 20 -87 15 -14 43 -30 63 -37 46
-14 129 -93 137 -130 5 -22 1 -35 -18 -55 l-25 -27 -45 26 c-25 15 -61 45 -80
67 -40 47 -97 150 -97 174 0 10 -4 15 -9 12 -5 -4 -30 32 -56 79 -25 47 -48
85 -51 85 -2 0 25 -57 60 -127 50 -102 68 -150 86 -235 12 -60 25 -108 29
-108 124 -4 208 -11 256 -23 60 -15 60 -15 18 -16 -23 -1 -44 -5 -47 -9 -3 -5
0 -26 5 -48 7 -28 20 -46 41 -58 30 -18 30 -18 52 5 13 14 14 18 3 9 -15 -11
-22 -11 -42 0 -14 7 -25 19 -25 26 0 7 -3 19 -6 28 -5 12 5 17 45 22 28 4 51
10 51 15 0 5 11 9 24 9 20 0 27 -8 41 -47 8 -27 22 -59 31 -73 l15 -25 -7 25
c-4 14 -13 45 -19 70 l-12 45 55 3 c43 2 62 -1 81 -16 24 -18 26 -25 23 -84
-1 -41 3 -79 13 -102 22 -51 38 -47 29 9 -8 57 2 58 16 3 6 -24 13 -50 16 -60
3 -11 -19 -35 -71 -78 l-76 -62 -102 6 c-353 22 -365 21 -264 -30 l52 -27 -28
-10 c-22 -7 -32 -5 -49 9 -21 19 -21 19 -9 -3 6 -12 14 -24 19 -26 11 -8 112
15 112 24 0 5 -19 19 -42 31 -39 21 -41 23 -19 26 14 2 53 1 88 -3 l62 -7 -21
-28 c-26 -35 -36 -123 -17 -146 7 -8 38 -29 68 -45 l56 -28 -60 5 c-37 4 -64
12 -70 21 -47 71 -77 82 -92 36 l-10 -28 -17 28 c-24 35 -14 74 19 83 15 4 32
1 42 -7 14 -12 16 -12 12 0 -13 38 -81 29 -101 -14 -9 -21 -8 -32 5 -60 l17
-35 -48 0 c-26 1 -67 5 -92 10 -25 4 -47 6 -50 4 -11 -12 27 -21 128 -33 99
-11 109 -14 139 -44 25 -24 36 -48 47 -97 8 -36 14 -59 15 -51 1 11 4 11 16 1
9 -7 26 -9 45 -5 20 4 30 3 30 -5 0 -6 10 -10 23 -8 31 4 37 62 8 78 -12 6
-21 20 -21 31 0 12 -14 34 -30 49 l-30 28 62 -5 c80 -6 112 -18 143 -55 29
-34 32 -75 10 -118 -21 -40 -57 -57 -140 -65 -80 -9 -105 -16 -125 -39 -9 -12
-22 -15 -44 -10 -51 11 -57 20 -40 66 25 70 18 105 -23 127 -13 6 -23 21 -23
32 0 11 -7 33 -15 49 -30 58 -95 25 -95 -47 l0 -32 -44 47 c-25 26 -64 58 -88
72 -40 22 -38 20 30 -46 89 -85 99 -122 20 -74 -41 25 -43 25 -68 0 -14 -14
-20 -33 -20 -64 0 -56 24 -76 91 -76 45 0 51 -4 107 -60 44 -46 66 -60 88 -60
l29 -1 -29 -15 c-27 -15 -33 -14 -140 27 -61 23 -129 54 -151 69 -66 45 -78
45 -115 3 -56 -63 -90 -125 -116 -210 -13 -44 -31 -86 -38 -92 -11 -9 -28 3
-79 56 -155 162 -373 417 -503 590 -83 109 -87 113 -202 181 -190 114 -444
253 -449 248 -13 -13 10 -35 64 -64 32 -16 155 -84 273 -149 l215 -119 117
-145 c65 -79 117 -148 117 -154 0 -11 -57 51 -162 177 -78 94 -67 87 -428 297
-203 118 -193 114 -171 56 12 -34 28 -54 53 -71 33 -20 100 -104 99 -122 -1
-4 -21 16 -46 43 l-46 50 7 -35 c4 -19 8 -47 9 -61 2 -15 59 -105 133 -210
244 -344 407 -608 534 -867 78 -159 112 -250 130 -345 12 -68 13 -297 1 -309
-4 -4 -36 4 -70 18 -103 42 -133 9 -67 -72 31 -37 34 -46 25 -69 -5 -14 -10
-45 -10 -68 0 -24 -7 -52 -15 -64 -18 -25 -197 -163 -212 -163 -28 0 -293 340
-379 487 -90 152 -106 205 -111 363 -4 141 -11 191 -30 197 -6 2 -13 -5 -15
-15 -4 -15 -88 -69 -88 -56 0 1 4 13 9 26 4 13 11 43 15 67 6 38 5 42 -8 32
-22 -19 -36 -5 -37 37 -1 45 -21 104 -37 110 -9 3 -10 -3 -3 -22 6 -13 13 -58
16 -98 5 -61 3 -79 -13 -108 -27 -50 -53 -50 -110 0 -68 60 -76 83 -46 142 25
49 33 141 14 153 -6 4 -10 -5 -10 -20 0 -33 -28 -45 -47 -19 -19 26 -8 62 30
102 39 40 27 42 -23 2 -41 -32 -70 -83 -70 -122 0 -13 -6 -32 -13 -41 -11 -17
-14 -17 -45 -1 -19 9 -43 13 -57 10 -20 -5 -26 -2 -31 19 -7 30 -15 31 -32 5
-17 -28 -39 -25 -47 8 -7 27 -65 126 -71 119 -2 -1 3 -25 11 -52 22 -70 20
-158 -3 -178 -26 -24 -40 -21 -35 6 2 12 0 33 -5 47 l-9 24 -14 -29 c-18 -38
-63 -65 -80 -48 -10 10 -9 17 4 31 23 25 21 35 -4 22 -11 -7 -30 -27 -41 -47
-17 -28 -23 -32 -33 -21 -7 7 -15 25 -19 41 -5 22 -3 27 13 27 18 0 18 2 5 47
-15 50 -11 83 11 83 19 0 45 -28 61 -65 13 -29 13 -29 14 -5 0 14 -11 49 -25
78 -25 54 -32 115 -16 141 7 11 10 10 15 -6 4 -11 15 -28 26 -38 20 -18 20
-17 20 43 0 50 3 62 16 62 9 0 18 -9 21 -20 3 -11 9 -20 14 -20 12 0 11 32 -2
126 -7 49 -7 80 -1 86 6 6 12 6 16 -1 14 -22 24 -10 36 41 10 38 10 53 2 56
-8 2 -7 11 3 26 8 12 13 25 10 28 -4 3 -1 45 6 93 7 57 8 90 1 97 -6 6 -12 1
-16 -15 -5 -23 -8 -24 -31 -14 -19 9 -25 20 -25 43 0 50 21 146 37 171 10 15
17 57 20 124 5 111 -3 182 -18 158 -5 -8 -9 -27 -9 -44 0 -16 -6 -38 -14 -47
-11 -14 -12 0 -8 87 2 57 1 121 -3 142 -7 37 -8 37 -17 13 -6 -14 -11 -56 -11
-95 -1 -38 -5 -73 -10 -76 -9 -7 -10 -19 -7 -112 3 -75 -3 -89 -27 -65 -27 27
-29 142 -4 206 25 62 28 170 6 217 l-13 30 -1 -41 c-1 -22 -4 -44 -7 -47 -19
-19 -84 56 -84 97 0 17 1 17 25 2 l25 -16 0 47 c0 99 -23 119 -60 56 -21 -35
-21 -45 -15 -154 4 -73 3 -119 -3 -123 -14 -8 -22 55 -17 132 3 47 2 58 -4 37
-4 -16 -18 -50 -31 -74 -22 -41 -22 -44 -7 -71 21 -34 21 -40 4 -40 -28 0 -49
39 -57 104 -9 77 -40 146 -81 180 -16 13 -25 26 -20 28 11 4 14 52 12 181 -1
78 -4 99 -16 104 -9 3 -18 3 -21 0 -12 -12 -11 -85 2 -127 16 -53 18 -100 4
-100 -19 0 -10 -52 15 -82 14 -16 25 -35 25 -42 0 -14 -37 -19 -45 -5 -12 18
-25 -2 -25 -37 0 -19 -4 -34 -10 -34 -5 0 -10 6 -10 13 0 9 -3 8 -9 -2 -9 -14
-31 -7 -31 10 0 6 4 8 9 4 6 -3 5 9 -1 27 -14 40 -15 83 -6 163 6 50 5 54 -3
25 -6 -19 -17 -48 -25 -65 l-15 -30 7 40 c9 53 14 234 7 262 -7 32 -23 18 -24
-20 0 -18 -4 -40 -8 -50 -6 -17 -8 -17 -20 -3 -9 11 -10 16 -2 16 13 0 14 188
1 230 -7 23 -8 22 -16 -15 -5 -22 -8 -71 -8 -109 1 -39 -2 -63 -6 -56 -11 18
-24 -52 -16 -85 8 -30 -12 -42 -43 -26 -19 11 -21 22 -23 154 -3 122 -5 142
-19 145 -23 4 -30 -69 -12 -131 8 -27 12 -58 10 -70 -3 -16 -7 -9 -17 26 -8
26 -17 47 -21 47 -10 0 10 -106 32 -171 23 -66 20 -82 -11 -54 -20 18 -20 18
-20 -18 0 -27 -4 -37 -16 -37 -9 0 -18 -10 -22 -22 -5 -21 -6 -21 -13 -2 -4
10 -8 37 -8 60 -1 41 -61 176 -100 224 -25 30 -26 25 -6 -29 28 -80 37 -158
25 -217 -6 -30 -14 -54 -17 -54 -2 0 -13 10 -23 23 -19 23 -25 19 -32 -28 -2
-11 -9 -21 -16 -21 -6 -1 -16 -2 -21 -3 -4 0 -8 -22 -8 -48 0 -96 -6 -163 -15
-163 -4 0 -8 -7 -8 -15 0 -17 -37 -61 -45 -54 -8 8 -8 62 0 98 6 25 5 32 -3
27 -9 -5 -12 8 -12 44 0 36 -4 52 -15 57 -9 3 -18 3 -20 1 -11 -11 -12 -76 -3
-123 10 -46 8 -59 -25 -160 -20 -60 -36 -104 -37 -97 0 9 -5 10 -18 3 -14 -8
-23 -5 -36 10 -26 31 -39 13 -33 -42 3 -27 2 -49 -2 -49 -5 0 -6 -12 -4 -27 3
-22 -2 -18 -22 20 -29 54 -48 57 -53 8 -3 -29 -6 -32 -28 -27 -28 7 -28 11 -9
-45 11 -32 23 -48 45 -57 17 -8 28 -17 26 -20 -2 -4 -1 -26 4 -50 4 -23 3 -42
-1 -42 -5 0 -9 5 -9 10 0 6 -4 10 -10 10 -5 0 -10 -7 -10 -15 0 -9 -6 -12 -17
-8 -14 5 -15 1 -10 -33 4 -23 15 -45 27 -53 11 -7 20 -22 20 -32 0 -10 5 -21
10 -24 6 -4 9 -19 8 -33 -3 -22 1 -27 18 -24 13 2 24 -4 28 -15 3 -10 9 -24
12 -32 5 -10 1 -11 -15 -6 -11 3 -21 2 -21 -2 0 -16 40 -93 48 -93 12 0 72
-88 72 -105 0 -18 -12 -19 -29 -2 -11 10 -12 5 -7 -28 11 -65 26 -93 56 -104
22 -7 38 -28 66 -83 33 -64 39 -70 43 -48 4 14 14 26 25 28 13 3 17 -1 13 -12
-4 -9 4 -23 20 -35 27 -22 43 -20 43 5 0 8 6 15 13 16 23 2 32 5 60 17 25 10
31 8 48 -11 15 -18 20 -20 28 -9 7 11 21 10 82 -4 41 -9 115 -17 166 -18 90
-1 91 -1 77 -21 -20 -29 -17 -39 6 -26 26 14 82 9 87 -7 3 -7 -18 -23 -46 -37
-28 -15 -55 -35 -61 -47 -14 -26 -7 -35 10 -14 19 22 63 18 88 -8 28 -29 28
-66 1 -118 -15 -29 -19 -56 -18 -97 2 -31 -1 -68 -5 -80 -7 -21 -6 -23 12 -13
10 6 25 24 32 42 13 29 14 30 27 13 7 -10 13 -33 13 -51 0 -41 22 -86 52 -107
34 -24 40 -19 23 15 -20 37 -38 144 -30 170 4 10 12 19 20 19 16 0 50 -53 59
-92 4 -19 17 -32 41 -42 27 -12 35 -21 35 -40 0 -26 19 -76 29 -76 3 0 14 19
25 41 10 22 29 47 43 56 39 26 57 7 64 -66 6 -65 29 -110 29 -57 0 15 7 56 16
90 9 33 14 77 11 96 -4 32 -1 38 34 63 44 32 59 29 59 -12 0 -26 26 -61 46
-61 5 0 9 20 9 45 1 58 21 81 58 64 21 -9 25 -17 21 -35 -5 -18 -1 -23 18 -26
34 -5 32 -50 -2 -59 l-25 -6 23 -10 c21 -8 22 -10 8 -22 -9 -8 -20 -11 -23 -7
-4 4 -12 -7 -18 -23 -14 -43 -30 -38 -30 8 0 28 -3 37 -11 30 -15 -12 -34 -87
-34 -130 l0 -32 -21 27 c-23 30 -45 36 -31 9 30 -58 18 -188 -16 -181 -11 2
-18 15 -20 38 -2 19 -8 40 -14 45 -10 10 -10 4 8 -171 l7 -62 -47 -27 c-69
-41 -142 -65 -211 -72 l-62 -6 -12 32 c-13 30 -15 31 -76 31 -48 0 -66 -4 -79
-19 -17 -18 -17 -23 -2 -74 16 -54 15 -56 -9 -109 -20 -43 -25 -69 -25 -134 0
-56 -4 -83 -13 -87 -58 -22 -182 126 -227 272 l-17 54 -139 73 -139 73 -7 -32
c-4 -18 -3 -47 2 -64 13 -50 -5 -40 -35 20 -31 59 -62 97 -81 97 -7 0 -17 7
-22 16 -5 8 -27 18 -50 21 -40 5 -41 4 -50 -28 -7 -30 -13 -34 -42 -36 -20 -1
-48 8 -72 23 l-39 25 17 -33 c9 -18 29 -51 43 -73 14 -22 30 -49 37 -60 6 -11
26 -47 44 -80 59 -106 159 -197 617 -555 210 -163 264 -213 176 -159 -142 86
-674 498 -735 569 -81 94 -170 229 -230 348 -33 68 -76 143 -95 167 -39 51
-40 55 -13 55 18 0 19 3 10 20 -14 26 -43 25 -75 -3 l-27 -23 38 -37 c21 -20
42 -37 46 -37 4 0 29 -44 55 -98 134 -268 219 -380 514 -672 302 -299 615
-636 821 -887 138 -168 438 -568 438 -584 0 -15 -113 -66 -206 -93 -83 -25
-301 -57 -474 -71 -41 -4 -113 -10 -160 -15 -47 -5 -191 -16 -320 -26 -129 -9
-239 -21 -244 -25 -5 -4 3 -22 18 -39 14 -17 26 -38 26 -46 0 -8 14 -40 31
-72 17 -31 37 -68 44 -80 12 -21 75 -72 90 -72 3 0 -2 16 -10 36 -22 53 -20
91 6 99 34 11 71 -34 93 -112 28 -99 32 -105 92 -140 58 -34 67 -33 33 3 -28
30 -19 54 21 54 37 0 61 -23 113 -109 21 -34 43 -61 49 -59 7 3 19 -3 29 -13
9 -9 53 -31 97 -48 91 -35 214 -94 344 -164 94 -52 111 -50 83 11 -10 20 -30
65 -46 98 -29 62 -36 107 -21 132 7 10 12 8 23 -5 17 -19 69 -134 69 -151 0
-5 6 -15 14 -21 8 -7 18 -26 21 -42 7 -31 35 -52 57 -44 7 3 23 20 36 38 31
47 30 115 -3 172 -21 36 -24 49 -17 77 11 43 33 42 45 -1 10 -39 50 -96 74
-105 9 -4 22 -1 29 6 12 13 54 144 54 170 0 24 17 41 31 32 8 -5 34 -9 59 -9
l46 0 -6 40 c-7 48 8 85 43 104 23 12 33 9 119 -37 126 -68 340 -165 473 -214
l110 -41 240 -7 c185 -6 261 -13 333 -29 115 -25 243 -77 346 -139 160 -97
210 -162 211 -274 0 -37 3 -68 7 -68 15 0 205 114 269 161 86 63 155 138 180
194 l20 45 115 0 114 0 -26 -52 c-61 -121 -159 -239 -264 -319 -38 -30 -70
-57 -70 -61 0 -4 8 -13 18 -20 10 -7 31 -53 46 -103 15 -49 33 -96 39 -103 6
-7 12 -30 14 -50 4 -48 31 -157 50 -204 13 -34 19 -38 50 -38 31 0 34 2 28 23
-19 65 -19 63 -2 49 22 -18 31 0 22 46 -7 40 -56 132 -80 152 -26 22 -18 47
17 54 22 4 37 1 50 -11 21 -19 89 -127 92 -146 1 -7 14 -32 28 -57 15 -25 30
-58 34 -73 6 -26 10 -28 38 -23 17 4 83 11 146 16 120 10 213 24 242 35 14 5
15 11 6 30 -11 24 3 78 23 91 14 8 38 -21 53 -63 12 -35 16 -38 52 -37 22 0
56 4 77 8 l37 7 -15 29 c-18 34 -19 49 -5 85 9 23 13 25 25 15 8 -7 15 -23 15
-35 0 -13 11 -37 25 -53 23 -28 28 -29 64 -20 38 10 38 11 56 86 22 89 28 100
49 82 19 -15 46 -6 46 15 0 9 9 15 24 15 17 0 44 -20 85 -61 42 -43 65 -59 78
-56 10 3 68 20 130 38 l112 32 7 51 c5 28 7 61 6 73 -2 17 4 23 30 29 18 4 49
6 68 5 24 -1 42 4 57 18 20 19 20 23 9 63 -17 55 -8 83 11 38 10 -26 16 -31
25 -22 18 18 45 14 61 -8 16 -22 64 -43 84 -35 22 8 13 71 -19 140 -15 33 -28
65 -28 72 0 6 -16 41 -36 77 -22 42 -39 90 -44 129 -15 101 11 99 46 -3 10
-30 21 -57 24 -60 4 -3 17 -36 31 -74 14 -39 31 -72 37 -74 18 -6 14 20 -12
79 -12 30 -35 99 -49 154 -15 55 -36 132 -47 170 -24 87 -24 85 -1 85 20 0 23
-7 37 -95 8 -51 29 -133 42 -165 5 -14 22 -63 37 -110 15 -47 34 -98 42 -114
14 -26 18 -28 56 -22 23 4 52 17 65 29 26 24 25 50 -2 110 -25 55 -27 75 -16
118 l11 41 45 -5 c65 -7 71 8 36 85 -30 63 -36 85 -33 123 2 18 3 17 16 -5 7
-14 25 -32 38 -39 14 -7 40 -33 58 -57 18 -24 41 -44 50 -44 11 0 24 -15 35
-37 76 -175 101 -210 118 -166 6 15 -49 202 -77 261 -8 18 -7 26 5 38 14 14
14 19 -2 52 -20 43 -64 172 -74 219 -7 28 -4 34 17 44 21 9 28 7 49 -14 22
-22 68 -137 68 -171 0 -7 9 -25 20 -38 10 -14 17 -28 14 -30 -2 -3 3 -40 11
-83 32 -152 76 -234 110 -205 9 7 13 20 11 29 -18 61 -18 71 -1 64 43 -16 -14
157 -65 200 -27 23 -22 39 19 51 27 8 35 5 57 -15 26 -24 84 -119 88 -143 1
-7 9 -25 19 -39 9 -15 17 -31 17 -36 0 -5 4 -12 10 -16 7 -5 363 168 450 219
14 8 68 36 120 61 52 26 104 56 115 66 19 19 18 19 -72 19 -68 0 -95 -4 -106
-15 -9 -8 -17 -11 -19 -6 -2 5 -82 14 -178 20 -211 14 -322 32 -455 72 -185
57 -295 118 -295 164 0 23 44 85 53 75 3 -3 7 -24 10 -48 5 -50 15 -59 113
-107 167 -82 360 -109 739 -103 184 3 287 9 302 16 11 6 42 48 68 93 47 82 75
104 36 29 -12 -23 -24 -61 -28 -85 -5 -38 -3 -44 16 -50 27 -8 27 -25 -4 -85
-14 -28 -23 -50 -20 -50 6 0 73 48 85 60 3 3 32 25 65 50 96 71 245 202 245
215 0 20 -94 36 -285 51 -86 6 -69 -10 20 -20 143 -16 209 -29 186 -37 -13 -5
-47 -3 -84 5 -83 19 -235 37 -272 32 -16 -2 -73 2 -125 10 -52 7 -122 14 -155
15 -36 1 -47 4 -27 6 71 9 22 21 -180 42 -331 35 -558 80 -589 117 -9 11 -6
22 15 55 21 31 26 48 21 70 -4 16 -10 29 -15 29 -5 0 -12 14 -15 32 -9 41 -26
68 -42 68 -31 0 -91 33 -96 52 -4 14 -11 19 -21 15 -20 -8 -20 -4 2 60 13 40
27 59 62 84 25 18 54 42 65 53 11 12 36 33 55 48 23 18 35 36 35 53 1 15 8 31
16 36 11 7 8 9 -9 9 -24 0 -201 -78 -353 -156 -47 -24 -89 -44 -94 -44 -30 0
230 154 342 204 73 32 136 63 141 70 14 19 31 86 21 86 -5 0 -39 -19 -76 -41
-38 -23 -180 -98 -318 -166 -137 -68 -272 -141 -300 -162 -52 -40 -271 -227
-389 -334 -212 -190 -456 -612 -456 -788 0 -52 -8 -67 -44 -86 -42 -22 -147
-53 -158 -47 -13 8 -9 58 7 81 9 12 22 40 30 63 8 22 47 86 87 143 40 56 96
146 125 200 29 53 66 114 82 135 16 20 38 57 47 82 28 71 43 91 206 278 144
165 188 222 172 222 -3 0 -58 -38 -121 -85 -83 -62 -123 -85 -144 -85 -25 0
-32 -6 -48 -42 -11 -24 -35 -55 -55 -71 -46 -36 -80 -97 -95 -172 -23 -115
-54 -191 -127 -315 -41 -69 -85 -138 -98 -155 -22 -27 -25 -28 -31 -12 -5 11
-1 25 9 36 22 24 11 55 -14 41 -25 -13 -39 -60 -47 -156 -8 -108 -53 -207 -96
-212 -17 -2 -29 2 -33 12 -9 23 33 265 50 291 8 13 86 159 172 326 86 167 168
320 182 339 83 112 113 139 210 189 53 27 133 70 177 96 130 76 566 289 823
401 261 115 352 162 362 188 5 14 18 31 30 38 11 7 20 18 20 25 0 7 5 13 10
13 6 0 10 7 10 15 0 11 12 15 43 15 41 1 65 14 96 53 13 17 13 17 -13 6 -23
-11 -29 -10 -36 1 -10 16 23 45 39 36 12 -8 42 4 36 14 -8 13 6 40 21 40 8 0
14 7 14 16 0 11 6 14 23 9 14 -4 18 -3 9 3 -39 27 42 61 96 41 14 -6 40 -9 57
-8 28 2 64 -8 75 -20 16 -18 138 -81 157 -81 9 0 13 -6 9 -15 -13 -35 37 -4
64 40 12 20 65 71 119 114 124 101 191 167 191 186 0 9 20 35 45 59 38 37 56
66 42 66 -2 0 -66 -50 -143 -111 -96 -76 -165 -123 -223 -150 -46 -22 -86 -37
-88 -35 -2 2 47 35 109 74 87 55 139 97 221 180 119 121 122 130 84 203 -24
45 -44 56 -104 58 -22 1 -33 6 -33 16 0 8 5 15 10 15 6 0 10 11 10 25 0 18 5
25 19 25 16 0 31 18 31 36 0 13 -43 0 -68 -21 -17 -14 -34 -25 -40 -25 -5 0
-17 -11 -26 -25 -13 -20 -14 -25 -2 -25 7 0 19 -6 25 -14 10 -12 7 -15 -18
-14 -23 1 -31 6 -31 20 0 15 -3 16 -19 6 -26 -16 -71 7 -71 36 -1 20 -1 20
-20 -3 -11 -13 -20 -30 -20 -38 0 -16 -22 -13 -27 4 -2 6 10 27 26 46 36 40
41 63 11 47 -29 -15 -99 -118 -112 -164 -17 -60 -38 -79 -72 -66 -25 9 -27 14
-20 38 9 33 7 94 -5 124 -7 16 -9 2 -8 -49 2 -95 -12 -109 -43 -42 -33 69 -70
99 -123 99 -105 0 -252 38 -360 92 -56 28 -60 28 -72 11 -17 -23 -33 -8 -17
17 10 17 8 21 -18 37 -36 21 -38 31 -5 43 29 11 81 -4 89 -26 3 -8 15 -14 26
-14 11 0 20 -4 20 -10 0 -15 89 -56 161 -75 62 -17 186 -16 245 1 14 4 31 -3
52 -21 30 -25 44 -18 24 11 -13 21 -77 54 -103 54 -14 0 -34 6 -45 14 -18 14
-15 18 57 93 42 43 88 101 102 129 47 92 90 115 287 150 76 14 100 22 121 43
29 30 49 102 49 182 0 44 -3 51 -31 68 -17 10 -71 28 -120 40 -113 26 -150 44
-172 80 -19 33 -22 107 -7 163 13 46 79 104 134 119 124 33 270 154 334 275
66 127 80 309 34 439 -27 74 -101 184 -156 231 -188 163 -461 185 -666 54 -73
-47 -164 -149 -200 -226 -95 -197 -66 -424 75 -597 53 -65 107 -105 220 -162
107 -54 125 -81 125 -187 0 -93 18 -135 78 -190 42 -38 70 -49 166 -68 65 -13
116 -52 116 -88 0 -32 -46 -79 -93 -95 -23 -8 -76 -19 -117 -25 -98 -12 -162
-44 -224 -110 -129 -137 -133 -140 -203 -162 -126 -39 -143 -38 -288 19 -125
50 -226 75 -242 61 -15 -14 -63 -21 -63 -10 0 6 -13 -1 -29 -17 -18 -18 -25
-30 -17 -35 17 -11 -40 -120 -62 -116 -10 2 -17 13 -18 27 -1 24 52 147 76
176 9 10 7 20 -5 39 -19 29 -39 25 -29 -6 4 -13 2 -18 -4 -14 -5 3 -12 -3 -15
-14 -7 -25 -22 -25 -47 0 l-20 20 0 -26 c0 -22 -2 -25 -15 -14 -9 8 -12 17 -7
24 5 6 12 24 16 40 5 22 10 26 16 16 6 -9 12 -1 19 28 13 46 13 46 -66 131
-37 40 -43 43 -43 24 0 -12 -4 -25 -10 -28 -5 -3 -10 -34 -10 -69 0 -93 -78
-294 -134 -345 -31 -29 -33 -23 -7 27 24 48 87 245 95 300 9 59 -10 53 -23 -8
-6 -28 -11 -57 -11 -63 0 -17 -67 -178 -124 -299 -46 -98 -112 -180 -303 -380
l-55 -57 -71 62 c-40 34 -102 84 -139 112 -58 42 -68 53 -68 79 0 17 -5 38
-10 46 -7 11 -1 24 24 50 18 19 38 49 44 67 15 44 0 55 -66 44 -62 -10 -62 -9
-62 100 0 112 24 218 75 329 163 354 209 449 270 555 108 189 142 242 222 348
72 95 123 196 123 243 0 24 42 64 67 64 22 0 81 68 88 101 4 16 20 71 36 122
16 50 29 96 29 100 0 10 -9 4 -243 -141 l-167 -104 25 -25 c13 -14 22 -30 18
-36 -3 -5 -2 -7 3 -4 6 3 16 2 23 -2 9 -6 5 -14 -18 -30 -17 -12 -31 -31 -31
-41 0 -10 -5 -22 -11 -26 -7 -4 -9 0 -5 13 5 15 -3 30 -28 55 -29 29 -38 33
-63 26 -16 -4 -38 -17 -48 -28 -18 -19 -17 -21 1 -41 10 -12 18 -29 16 -39 -2
-13 10 -24 43 -40 49 -24 64 -54 46 -88 -15 -29 -14 -34 8 -23 10 6 24 23 32
38 8 15 28 48 44 72 25 38 30 41 33 24 3 -22 -69 -176 -88 -188 -5 -3 -10 -11
-10 -16 0 -6 10 -3 22 5 25 18 38 20 38 7 0 -5 -17 -16 -39 -24 -21 -9 -49
-29 -62 -45 -52 -62 -158 -214 -258 -367 -101 -155 -232 -317 -239 -296 -5 16
144 314 242 484 70 123 81 147 63 142 -12 -4 -34 -15 -49 -26 -33 -23 -64 -24
-72 -2 -5 11 -10 13 -17 6 -12 -12 -75 -1 -92 16 -30 30 -66 0 -171 -144 -65
-89 -144 -175 -161 -175 -6 0 -17 17 -24 37 -8 21 -38 88 -68 151 -61 125 -89
155 -126 132 -85 -54 -247 -125 -308 -135 -21 -3 -48 -14 -62 -25 -25 -20 -25
-20 -83 1 -33 11 -111 28 -174 39 -116 19 -200 44 -200 61 0 5 12 9 26 9 17 0
40 14 65 39 22 22 39 33 39 24 0 -8 7 -27 15 -44 l16 -30 -28 7 c-50 12 -11
-12 65 -39 110 -40 131 -34 111 35 -5 18 -9 34 -9 35 0 12 41 -1 55 -17 34
-37 75 -19 75 32 0 37 -20 75 -59 112 -17 17 -31 35 -31 41 0 6 16 30 35 52
51 60 43 73 -9 14 -24 -27 -45 -54 -47 -59 -2 -6 -17 -8 -32 -5 -27 5 -28 8
-22 41 4 20 13 49 21 64 44 86 -28 121 -161 78 -44 -14 -52 -19 -32 -19 16 -1
48 4 72 10 50 13 93 6 101 -16 3 -8 -7 -40 -22 -71 -34 -69 -27 -101 25 -119
25 -8 37 -20 42 -38 7 -25 5 -27 -26 -27 -49 0 -80 -17 -98 -53 l-15 -32 -17
39 c-14 34 -15 46 -4 84 16 58 16 126 -1 156 -7 14 -33 34 -59 46 -66 30 -159
84 -178 102 -25 25 -9 35 79 48 161 23 259 83 296 182 l19 51 25 -54 c14 -30
39 -71 56 -91 37 -42 36 -43 -70 -102 -60 -33 -72 -37 -113 -31 -51 8 -51 20
-1 29 36 7 126 79 114 92 -4 4 -49 -12 -100 -36 -51 -24 -124 -51 -163 -61
-69 -18 -70 -19 -19 -14 28 2 55 0 60 -5 11 -9 105 -30 139 -30 53 0 225 121
240 169 3 9 22 23 43 30 91 31 172 65 172 71 0 4 -10 15 -22 23 -13 8 -42 32
-66 54 -23 21 -60 51 -82 67 -22 17 -40 35 -40 40 0 10 62 56 76 56 3 0 3 -8
0 -17 -3 -10 5 -4 19 12 24 28 33 55 19 55 -4 0 -30 -14 -60 -30 l-53 -31 -3
23 c-2 14 -11 24 -23 25 -16 1 -16 1 -2 -3 10 -3 17 -15 17 -29 0 -29 -21 -47
-40 -34 -14 8 -80 4 -122 -8 -32 -8 -19 20 42 94 46 55 75 80 130 108 38 21
91 56 117 79 29 26 72 50 117 66 l71 25 6 90 c15 197 16 234 9 230 -4 -2 -13
-72 -20 -154 l-12 -150 -46 -15 c-62 -22 -63 -21 -46 19 8 19 23 73 34 120 19
82 41 133 110 255 45 80 -1 20 -54 -70 -25 -41 -51 -97 -59 -125 -45 -155 -59
-196 -75 -213 -9 -11 -47 -30 -84 -42 -56 -18 -73 -29 -112 -74 -54 -64 -166
-136 -166 -107 0 45 23 81 71 112 27 17 73 57 102 89 28 31 66 64 82 73 46 24
112 97 136 152 19 42 24 74 29 210 l6 160 42 85 c23 47 44 100 48 117 4 20 11
30 18 26 6 -3 6 0 -1 8 -7 7 -13 21 -13 31 0 25 -45 69 -63 63 -7 -3 -22 3
-32 15 -16 17 -16 20 -2 20 9 0 42 10 74 22 208 77 162 251 -67 251 -85 0
-129 -15 -183 -62 -34 -30 -87 -123 -87 -153 0 -7 13 14 28 47 16 33 44 75 63
93 104 101 359 69 359 -45 0 -92 -164 -153 -411 -153 -129 0 -218 22 -242 61
-6 10 -17 19 -24 19 -21 0 -15 23 14 54 15 16 41 50 59 76 l32 47 -10 119 c-5
65 -13 121 -16 124 -4 3 -25 3 -47 -1z m-681 -390 c53 -15 96 -59 96 -97 0
-56 -76 -122 -139 -122 -52 0 -100 78 -126 209 l-7 34 68 -6 c38 -4 87 -11
108 -18z m697 -93 c24 -14 60 -28 81 -31 25 -5 38 -13 42 -28 9 -36 7 -55 -10
-72 -15 -14 -19 -14 -51 6 -19 12 -63 31 -98 44 l-63 22 26 41 c15 23 28 42
28 42 1 0 21 -11 45 -24z m409 -31 c0 -3 -14 -32 -30 -65 -32 -63 -57 -86
-106 -96 -29 -5 -32 -2 -76 69 l-46 74 111 10 c62 5 120 11 130 11 9 1 17 0
17 -3z m-670 -15 c11 -7 5 -10 -25 -10 -22 0 -71 -12 -110 -25 l-70 -25 -24
27 -24 28 24 6 c37 11 212 10 229 -1z m753 -60 c35 -27 29 -56 -31 -180 l-47
-95 2 -115 c4 -205 -21 -289 -109 -364 -23 -20 -43 -35 -44 -33 -2 2 8 26 22
55 61 127 68 288 19 418 -15 38 -31 91 -35 117 -5 26 -12 56 -15 66 -4 14 4
21 35 34 44 17 48 11 24 -34 -29 -56 -7 -41 26 18 34 62 96 133 116 133 6 0
23 -9 37 -20z m-284 -60 l22 -40 -28 0 c-15 0 -41 10 -56 23 l-29 22 19 32
c16 28 20 30 33 18 9 -8 26 -33 39 -55z m-1264 -50 c22 -24 14 -36 -12 -20
-16 10 -28 7 -74 -16 -75 -40 -77 -40 -49 -9 30 33 79 65 101 65 9 0 24 -9 34
-20z m1301 -35 c23 -56 16 -63 -21 -20 -40 47 -42 55 -14 55 13 0 25 -11 35
-35z m-1186 -143 c0 -12 -7 -9 -25 8 -14 13 -25 30 -25 38 0 12 7 9 25 -8 14
-13 25 -30 25 -38z m271 -529 c18 -20 -4 -16 -42 10 -35 24 -45 51 -34 95 6
24 8 22 36 -33 16 -32 34 -64 40 -72z m989 -98 c0 -8 -92 -65 -104 -65 -16 0
28 42 59 56 33 14 45 17 45 9z m-998 -109 l43 -36 -52 0 c-52 0 -52 0 -62 38
-6 21 -14 54 -17 73 l-6 34 25 -36 c15 -20 45 -53 69 -73z m306 -21 c4 -16 -2
-17 -45 -10 -26 4 -68 7 -93 6 l-45 -2 33 34 34 35 56 -23 c34 -14 58 -30 60
-40z m86 -16 c15 -12 25 -23 23 -25 -8 -8 -75 18 -81 31 -8 23 27 19 58 -6z
m119 -1 c22 -11 22 -12 -7 -19 -26 -7 -86 11 -86 26 0 10 72 5 93 -7z m-199
-29 c8 -8 -5 -9 -54 -4 -97 11 -120 26 -31 21 41 -3 79 -10 85 -17z m456 7 c0
-2 -13 -20 -30 -41 -25 -32 -31 -35 -37 -20 -4 13 2 25 23 42 26 21 44 29 44
19z m-205 -26 c7 -12 -2 -12 -30 0 -19 8 -19 9 2 9 12 1 25 -3 28 -9z m42 -49
c18 -23 43 -109 42 -145 0 -17 -6 -47 -13 -66 l-13 -35 -12 45 c-6 25 -21 65
-33 90 -11 25 -26 67 -34 93 l-13 48 32 -7 c17 -3 37 -14 44 -23z m218 -89
c-26 -28 -29 -28 -39 5 -6 18 -2 22 21 25 42 5 45 0 18 -30z m-49 -27 c4 -23
2 -41 -6 -50 -11 -13 -10 -15 1 -10 9 3 20 -8 29 -28 21 -46 63 -50 84 -8 9
16 16 46 16 66 0 19 2 35 6 35 11 0 74 -55 74 -65 0 -10 -87 -145 -100 -155
-3 -3 -9 -13 -13 -23 -10 -26 -23 -14 -73 64 -51 78 -76 168 -54 194 19 23 29
18 36 -20z m106 22 c2 -31 -15 -107 -26 -116 -11 -9 -18 -7 -30 11 -9 12 -16
32 -16 44 0 37 70 96 72 61z m163 -121 l40 -35 -37 -15 c-21 -9 -43 -16 -50
-16 -7 0 -22 -7 -32 -15 -31 -23 -44 -17 -16 7 16 14 19 19 8 15 -10 -4 -18
-4 -18 0 0 12 51 93 58 93 4 0 25 -16 47 -34z m-455 -70 c-22 -25 -88 -61 -96
-54 -5 6 110 87 115 82 3 -2 -6 -15 -19 -28z m-410 -297 c0 -5 -7 -9 -15 -9
-9 0 -15 9 -15 21 0 18 2 19 15 9 8 -7 15 -16 15 -21z m-115 -79 c17 -34 20
-60 5 -60 -6 0 -16 -11 -22 -25 -15 -34 -25 -31 -34 8 -10 47 -7 89 8 98 21
14 27 11 43 -21z m223 -18 c11 -14 18 -72 8 -72 -2 0 -11 -3 -19 -6 -10 -4
-17 7 -26 40 -6 25 -11 49 -11 55 0 14 32 2 48 -17z m-1491 -193 c64 -98 119
-177 120 -175 4 4 -69 171 -117 266 -23 45 -39 84 -37 87 15 14 160 -234 337
-573 103 -198 148 -296 183 -402 l48 -140 -29 -45 -29 -46 -33 112 c-52 175
-85 248 -213 462 -66 110 -171 290 -235 400 -63 110 -123 212 -133 227 -11 14
-19 29 -19 34 0 21 51 -46 157 -207z m1097 116 c23 -17 72 -20 81 -4 4 6 14
-4 23 -23 23 -44 47 -47 67 -9 15 30 38 40 49 23 3 -5 -2 -35 -10 -66 -14 -53
-14 -60 1 -76 9 -10 30 -21 48 -24 31 -7 31 -8 13 -21 -42 -31 -101 -5 -155
69 -41 56 -49 59 -131 68 -26 3 -38 33 -26 64 7 18 16 17 40 -1z m932 -133 c4
-13 4 -25 1 -28 -10 -10 -27 6 -27 25 0 10 -7 24 -15 31 -8 7 -15 22 -15 34 1
19 3 18 26 -9 13 -16 27 -40 30 -53z m-133 -2 c-3 -11 0 -34 7 -50 7 -17 10
-33 8 -36 -7 -6 -98 18 -98 26 0 11 67 80 78 80 6 0 8 -9 5 -20z m-907 -31
c13 -12 62 -37 111 -56 84 -32 86 -34 38 -28 -27 4 -68 13 -90 21 -22 7 -54
14 -72 14 -45 0 -90 -57 -143 -181 -47 -109 -71 -136 -111 -120 -30 11 -109
95 -109 116 0 25 14 17 59 -30 41 -44 43 -45 70 -30 22 11 39 39 77 127 48
112 102 188 132 188 9 0 26 -10 38 -21z m1504 11 c28 -15 63 -80 105 -197 43
-119 53 -131 95 -113 36 15 140 123 200 208 23 34 45 60 48 57 16 -15 -191
-276 -239 -301 -89 -45 -137 10 -179 206 -21 96 -45 117 -97 83 -65 -43 -183
-90 -213 -85 -41 6 -33 12 80 56 52 21 113 50 135 66 47 34 41 33 65 20z
m-683 -116 c198 -29 393 -102 527 -198 177 -127 318 -337 352 -525 15 -85 19
-230 6 -215 -5 5 -32 76 -60 158 -28 82 -53 150 -54 151 -186 140 -397 314
-503 415 -140 133 -206 159 -425 167 -158 6 -297 -6 -453 -38 -55 -11 -101
-18 -103 -16 -3 2 22 14 53 25 233 84 443 109 660 76z m-1003 -340 c-130 -194
-197 -390 -214 -628 -4 -68 -13 -134 -19 -145 -11 -19 -49 -47 -55 -39 -7 8
15 182 35 273 52 245 136 435 255 573 20 24 38 41 40 39 2 -2 -17 -35 -42 -73z
m853 -18 c65 -29 147 -66 183 -82 39 -17 100 -58 154 -104 184 -156 253 -214
310 -264 32 -28 64 -55 71 -61 7 -5 18 -37 24 -70 6 -33 14 -71 18 -85 4 -16
-38 21 -128 112 -124 126 -228 213 -339 284 -207 132 -329 185 -630 273 -19 6
-1 13 80 29 58 11 113 21 122 21 9 1 70 -23 135 -53z m-602 -146 c-76 -76
-141 -138 -142 -136 -2 2 -1 22 3 45 6 35 21 57 85 125 57 60 88 85 116 93 84
23 80 15 -62 -127z m1931 -2 c-63 -111 -87 -270 -62 -416 28 -161 22 -189 -46
-217 -40 -16 -43 -16 -55 1 -20 28 -17 240 6 349 23 110 54 180 115 263 52 71
79 83 42 20z m-3447 -184 c1 -138 13 -189 73 -309 69 -136 166 -270 338 -466
81 -91 85 -99 85 -143 0 -25 -1 -46 -1 -46 -6 0 -204 233 -251 296 -130 172
-230 359 -270 506 -22 77 -23 258 -3 303 l13 30 7 -25 c5 -14 8 -79 9 -146z
m-105 44 c-308 -410 -605 -628 -856 -628 -115 0 -203 60 -134 91 26 12 76 5
76 -10 0 -5 -9 -7 -20 -4 -33 9 -24 -24 12 -43 95 -49 364 63 482 201 82 97
480 479 484 466 2 -5 -18 -38 -44 -73z m1461 -228 c-5 -105 -14 -156 -57 -320
-50 -193 -51 -196 -45 -305 6 -95 3 -120 -15 -183 -13 -44 -24 -68 -28 -60 -4
7 -15 101 -25 209 l-18 196 41 144 c32 110 120 475 122 509 1 3 8 -11 16 -30
12 -28 14 -59 9 -160z m699 -168 c2 -15 7 -44 11 -64 l6 -38 -71 0 c-69 0
-138 22 -155 50 -9 15 1 13 47 -10 79 -38 128 -22 128 44 0 57 24 70 34 18z
m166 -2 c0 -39 19 -78 40 -85 10 -3 37 2 59 11 23 9 45 14 48 11 12 -12 -54
-30 -124 -35 -40 -2 -73 -2 -73 0 0 13 23 124 27 131 9 15 23 -5 23 -33z
m-594 -3 c99 -40 288 -137 281 -143 -2 -2 -40 9 -83 25 -121 44 -180 61 -216
61 -41 0 -51 -7 -71 -46 -20 -38 -45 -60 -56 -48 -15 16 37 184 57 184 5 0 45
-15 88 -33z m1117 -19 c23 -61 41 -138 34 -145 -10 -9 -35 16 -59 59 -36 63
-53 62 -251 -9 -54 -19 -101 -32 -103 -30 -6 6 199 111 276 143 78 32 85 30
103 -18z m-1926 -78 c127 -71 235 -191 268 -297 9 -32 -8 -29 -22 5 -21 45
-72 100 -165 178 -67 56 -96 74 -119 74 -22 0 -34 8 -49 33 -11 17 -20 35 -20
40 0 16 39 4 107 -33z m2663 5 c-29 -20 -55 -33 -57 -31 -7 7 78 66 95 66 7 0
-10 -16 -38 -35z m-1785 -22 c21 -14 63 -34 92 -43 30 -9 55 -21 55 -26 2 -13
-46 -21 -134 -23 -77 -1 -128 12 -128 33 0 22 52 86 70 86 3 0 23 -12 45 -27z
m949 -14 c51 -60 30 -71 -135 -70 -73 0 -134 3 -136 5 -6 5 209 96 229 96 9 0
28 -14 42 -31z m321 -3 c12 -4 36 -34 58 -75 l38 -70 0 -143 c0 -79 -2 -183
-5 -233 -3 -49 -11 -182 -17 -295 -9 -171 -15 -220 -37 -295 l-27 -90 -5 70
c-5 67 0 276 15 695 6 168 4 201 -10 240 -9 25 -18 54 -21 64 -3 16 -11 42
-40 134 -2 9 2 12 14 8 9 -2 26 -7 37 -10z m510 -43 c-25 -33 -34 -53 -30 -68
21 -68 17 -101 -19 -173 -20 -40 -40 -88 -44 -108 -4 -19 -12 -34 -17 -32 -17
5 -5 90 19 143 27 57 38 106 28 122 -4 5 -17 13 -29 17 -13 4 -23 13 -23 19 0
13 112 122 132 130 23 8 20 -1 -17 -50z m-1465 -38 c0 -39 -26 -82 -67 -110
-57 -38 -60 -30 -9 25 28 30 46 58 46 73 0 13 3 27 7 30 13 14 23 6 23 -18z
m265 -33 c9 -55 38 -98 82 -121 29 -16 33 -20 17 -21 -21 0 -66 29 -92 60 -23
26 -64 119 -57 130 13 20 43 -9 50 -48z m-1426 -56 c6 -34 10 -85 10 -112 l-1
-49 -9 50 c-5 28 -14 78 -19 112 -6 34 -13 70 -16 80 -5 17 -5 17 9 0 8 -10
20 -47 26 -81z m3187 -32 c-61 -114 -129 -206 -182 -243 -41 -30 -74 -40 -74
-22 0 47 16 75 62 105 46 32 154 150 208 229 42 62 34 22 -14 -69z m-3151 81
c13 -11 20 -29 21 -63 4 -108 24 -251 38 -287 20 -48 20 -66 0 -40 -36 45 -55
106 -60 193 -3 49 -11 117 -18 150 -13 66 -12 70 19 47z m2373 -42 c-97 -100
-140 -223 -113 -326 9 -34 9 -47 1 -44 -6 2 -15 30 -20 62 -16 107 28 228 114
313 72 71 88 66 18 -5z m-2261 -91 c-28 -5 -67 40 -67 76 0 26 2 25 44 -23 41
-46 42 -50 23 -53z m2319 76 c-8 -13 -25 -50 -37 -82 -18 -50 -20 -65 -10 -91
16 -45 14 -81 -9 -125 -22 -42 -59 -75 -72 -62 -5 5 -9 44 -9 88 -1 103 27
180 89 246 47 50 73 64 48 26z m-1238 -156 c-14 -32 -128 -160 -128 -143 0 10
73 106 89 116 13 7 26 59 38 140 l8 60 3 -72 c2 -42 -2 -83 -10 -101z m1473
93 c50 -87 35 -111 -30 -47 -36 34 -38 40 -34 80 4 36 7 41 20 30 8 -6 28 -35
44 -63z m-2849 -47 c-11 -25 -47 -70 -88 -107 l-68 -64 -8 38 c-5 21 -7 39 -6
40 66 39 111 72 142 104 22 22 41 39 44 37 2 -3 -5 -24 -16 -48z m-27 -117
c-71 -72 -144 -154 -162 -183 -32 -51 -34 -59 -34 -149 0 -144 23 -216 108
-338 24 -35 41 -66 38 -69 -8 -8 -90 74 -125 123 -40 58 -60 135 -67 255 l-6
105 62 82 c33 44 89 108 123 141 144 139 181 172 186 167 3 -3 -52 -63 -123
-134z m371 1 c3 -15 11 -22 22 -20 24 4 30 -83 7 -102 -21 -17 -27 -9 -59 82
-19 57 -24 83 -17 100 5 13 13 32 17 43 5 15 9 9 16 -30 5 -27 11 -60 14 -73z
m2527 32 c49 -26 115 -83 163 -142 l44 -54 0 -88 c0 -97 2 -94 -94 -197 -21
-23 -45 -52 -53 -63 -8 -11 -18 -20 -23 -20 -5 0 -52 -21 -105 -46 -53 -25
-98 -44 -101 -42 -2 2 33 34 79 70 128 103 223 194 241 232 22 46 20 107 -4
159 -20 43 -122 156 -170 189 -32 22 -18 23 23 2z m-2675 -145 c16 -40 103
-127 152 -152 25 -13 46 -31 48 -40 4 -21 -15 -15 -84 28 -84 54 -147 150
-159 245 l-5 45 18 -50 c11 -27 24 -62 30 -76z m2530 65 c-35 -82 -149 -216
-250 -294 l-28 -21 0 22 c0 21 12 34 149 164 35 33 79 84 98 113 36 56 52 64
31 16z m-1378 -114 c0 -4 -21 -7 -47 -7 l-46 0 28 24 c26 23 28 23 46 7 11 -9
19 -20 19 -24z m213 12 c15 -16 13 -17 -29 -19 -40 -1 -43 0 -34 18 13 24 42
25 63 1z m-991 -208 c13 -95 40 -412 37 -422 -3 -7 -11 -5 -24 4 -17 12 -20
32 -26 167 -4 83 -10 187 -13 230 -4 59 -3 78 7 74 6 -2 15 -26 19 -53z m-627
-133 c94 -100 218 -186 440 -305 50 -27 114 -62 143 -78 l53 -30 -31 -20 -32
-19 -81 47 c-125 72 -302 195 -397 277 -85 73 -190 199 -190 227 1 9 9 3 23
-15 12 -16 44 -54 72 -84z m1516 62 c46 5 62 3 80 -12 13 -9 44 -25 69 -35 85
-33 150 -91 133 -119 -2 -4 -29 6 -58 23 -95 54 -157 70 -276 70 -106 0 -108
0 -188 -42 -45 -22 -84 -38 -88 -34 -16 16 41 65 133 112 78 40 103 49 118 41
11 -5 45 -7 77 -4z m-3187 -152 c125 -78 286 -185 358 -238 105 -78 162 -111
298 -174 250 -115 367 -185 565 -335 337 -254 577 -549 674 -827 17 -49 31
-91 31 -93 0 -3 -9 0 -19 6 -11 5 -25 27 -31 47 -21 64 -103 225 -161 314
-229 349 -578 623 -1082 851 -198 89 -257 124 -487 288 -107 77 -197 140 -199
140 -4 0 8 -16 61 -81 68 -84 40 -66 -73 46 -123 123 -202 212 -179 203 9 -3
118 -70 244 -147z m4789 117 c-37 -61 -235 -240 -249 -226 -6 6 235 238 248
238 5 0 6 -6 1 -12z m-2372 -156 c20 -55 54 -136 75 -179 37 -73 44 -82 134
-146 52 -38 118 -83 145 -101 67 -45 132 -114 199 -214 74 -109 115 -192 122
-246 6 -40 4 -46 -21 -62 -32 -21 -67 -15 -203 34 -133 48 -154 70 -165 169
-14 121 -132 414 -211 524 -18 26 -54 103 -79 170 -25 68 -49 132 -53 143 -5
14 -3 17 7 14 8 -3 30 -50 50 -106z m786 15 c7 -5 30 -15 50 -23 l38 -13 -36
-1 c-19 0 -62 5 -94 11 -58 11 -60 10 -82 -16 -13 -14 -23 -35 -23 -45 0 -10
-4 -22 -10 -25 -6 -4 -10 10 -10 34 0 29 6 46 22 61 39 37 110 45 145 17z
m1273 -51 c0 -16 -213 -183 -281 -221 -103 -57 -123 -75 -153 -139 -40 -84
-297 -934 -294 -969 5 -48 29 -40 52 18 10 28 41 124 67 215 l48 165 0 -75 c1
-59 -8 -103 -38 -205 -21 -71 -62 -237 -91 -367 l-53 -238 -64 0 c-71 0 -70
-2 -48 80 21 74 62 335 71 440 8 106 56 281 141 519 80 223 123 364 123 403 0
16 -7 42 -15 59 -12 23 -13 30 -3 33 7 3 38 12 68 22 109 34 257 111 310 160
60 57 160 119 160 100z m-1193 -82 c-20 -20 -27 -38 -29 -77 l-3 -52 -78 -3
c-97 -4 -135 12 -54 22 60 8 102 33 113 69 8 29 44 67 62 67 10 0 6 -8 -11
-26z m582 -71 c-32 -91 -26 -86 -348 -254 -94 -49 -161 -69 -86 -26 137 79
297 186 337 225 26 25 62 67 80 94 18 26 35 43 36 38 2 -6 -7 -41 -19 -77z
m736 39 c-6 -5 -39 -29 -75 -54 -36 -26 -108 -85 -160 -132 -52 -48 -119 -100
-148 -117 -58 -34 -72 -58 -198 -333 -32 -70 -60 -123 -62 -117 -2 6 15 62 37
124 50 145 81 274 81 342 0 50 2 55 44 92 44 38 183 119 192 111 2 -3 -27 -26
-66 -52 -63 -41 -69 -49 -60 -67 13 -23 4 -27 132 63 53 38 136 86 185 108 86
39 117 49 98 32z m-3706 -117 c76 -31 182 -86 252 -130 66 -41 128 -75 137
-75 23 0 171 -71 225 -109 23 -15 92 -55 154 -88 115 -63 135 -80 232 -207
156 -205 293 -461 370 -696 37 -114 62 -226 54 -247 -9 -22 -67 -10 -110 23
-24 18 -43 25 -64 22 -20 -3 -34 1 -46 14 -11 13 -30 18 -64 18 l-47 0 -11 68
c-60 350 -280 704 -555 891 -57 38 -148 109 -202 157 -118 103 -159 130 -369
244 -194 106 -237 131 -232 137 3 2 31 -7 63 -20 33 -14 115 -44 184 -67 69
-24 163 -60 209 -81 46 -22 89 -39 95 -39 28 0 -163 113 -286 170 -76 35 -138
65 -138 67 0 8 26 -1 149 -52z m1022 0 c27 -14 74 -48 105 -76 53 -48 89 -69
120 -69 24 0 16 18 -27 65 -23 25 -36 45 -30 45 23 0 91 -41 126 -75 33 -34
35 -38 29 -88 -7 -62 10 -128 72 -274 34 -80 44 -114 43 -155 l-1 -53 -21 46
c-12 25 -49 112 -82 193 -69 170 -90 199 -213 289 -92 69 -205 177 -184 177 7
0 35 -11 63 -25z m454 -219 c13 -45 32 -117 42 -161 9 -44 49 -161 89 -259
l72 -179 -21 -44 c-25 -50 -28 -46 -51 53 -8 39 -37 125 -62 190 -29 75 -61
184 -85 294 -21 96 -41 186 -45 200 -5 24 -5 24 15 5 12 -10 32 -55 46 -99z
m1392 57 c-3 -32 -23 -141 -44 -243 l-39 -185 -35 -17 c-19 -10 -50 -21 -69
-24 l-34 -7 23 34 c75 114 155 394 107 376 -8 -3 -32 -9 -53 -13 -36 -6 -37
-5 -22 11 25 25 153 124 163 124 4 1 6 -25 3 -56z m-491 -100 c46 -7 47 -8 19
-14 -41 -9 -241 -10 -290 -2 l-40 7 35 7 c49 9 218 10 276 2z m-2642 -367 c55
-81 113 -206 96 -206 -4 0 -75 -11 -156 -25 -199 -32 -273 -39 -331 -29 l-48
8 76 7 c66 7 341 77 369 94 6 3 10 25 10 48 0 34 -10 57 -55 124 -30 46 -55
86 -55 89 0 16 40 -31 94 -110z m1924 -538 c35 -83 52 -107 52 -73 0 9 7 30
16 47 22 42 36 18 24 -38 -15 -64 -12 -107 20 -249 17 -74 30 -137 30 -139 0
-2 -28 7 -62 19 -55 20 -63 26 -66 51 -2 16 -21 99 -42 184 -21 85 -46 191
-54 235 -28 140 -56 296 -55 308 0 7 23 -49 50 -123 27 -74 67 -174 87 -222z
m56 110 c-6 -67 -17 -87 -27 -49 -5 22 1 155 10 191 11 44 24 -67 17 -142z
m2782 25 c-150 -142 -379 -264 -686 -363 -98 -32 -115 -41 -120 -61 -5 -22 -7
-22 -13 -5 -8 20 -25 19 -140 -8 -57 -14 -58 -14 -55 7 2 18 15 24 76 38 83
19 90 23 72 44 -7 8 -8 15 -2 15 5 0 15 -7 23 -16 16 -20 43 -15 197 36 139
46 311 121 414 181 84 48 257 169 277 193 8 9 17 14 20 10 3 -3 -25 -35 -63
-71z m-4475 13 c19 -13 186 -81 370 -151 184 -70 366 -140 404 -155 39 -15
103 -39 143 -54 62 -24 72 -31 72 -52 0 -13 -2 -24 -5 -24 -5 0 -536 209 -830
327 -78 31 -124 57 -160 88 -54 48 -51 60 6 21z m2438 -213 c118 15 215 26
216 24 1 -1 0 -20 -3 -43 l-4 -41 -212 -28 -213 -28 -187 29 c-181 28 -187 30
-192 54 -3 14 -8 32 -10 41 -4 13 20 12 193 -10 l198 -25 214 27z m176 -179
c-39 -95 -25 -86 -190 -118 -164 -31 -264 -35 -433 -18 -57 6 -105 12 -107 14
-2 2 -8 34 -13 71 l-9 67 31 -5 c37 -6 213 -23 311 -30 52 -4 110 2 225 24 85
16 165 29 178 30 22 1 22 0 7 -35z m630 -252 c16 -11 61 -93 69 -125 10 -44
-4 -52 -26 -15 -40 66 -68 88 -115 88 -51 0 -54 11 -10 38 34 21 65 27 82 14z"/>
<path d="M5000 4952 c0 -25 126 -124 210 -167 38 -19 86 -55 116 -86 88 -93
100 -97 36 -12 -46 61 -77 91 -124 119 -35 21 -98 66 -141 101 -44 35 -83 63
-88 63 -5 0 -9 -8 -9 -18z"/>
<path d="M5637 3553 c-4 -3 -7 -27 -7 -52 1 -43 2 -45 15 -27 16 22 19 54 7
74 -5 7 -11 9 -15 5z"/>
<path d="M2996 2118 c90 -93 106 -116 238 -358 32 -58 77 -134 101 -170 50
-76 115 -197 115 -214 0 -15 127 -139 133 -129 2 5 7 21 11 36 4 19 12 27 21
24 7 -3 16 1 19 9 8 21 -8 55 -42 87 -33 32 -48 23 -37 -21 6 -24 5 -25 -8
-12 -28 28 -115 204 -183 370 -62 153 -73 172 -151 267 -83 102 -85 103 -190
153 -58 27 -108 50 -111 50 -3 0 35 -42 84 -92z"/>
<path d="M4941 7404 c0 -11 3 -14 6 -6 3 7 2 16 -1 19 -3 4 -6 -2 -5 -13z"/>
<path d="M3591 7384 c0 -11 3 -14 6 -6 3 7 2 16 -1 19 -3 4 -6 -2 -5 -13z"/>
<path d="M3600 7355 c0 -5 5 -17 10 -25 5 -8 10 -10 10 -5 0 6 -5 17 -10 25
-5 8 -10 11 -10 5z"/>
<path d="M875 7129 c-8 -36 8 -80 35 -97 19 -11 20 -9 20 35 0 66 -9 93 -30
93 -12 0 -21 -10 -25 -31z"/>
<path d="M1186 6934 c-10 -40 2 -81 30 -98 l24 -16 0 39 c0 65 -11 101 -30
101 -11 0 -20 -10 -24 -26z"/>
<path d="M1120 6708 c1 -31 1 -32 15 -13 17 21 15 37 -3 43 -8 2 -12 -8 -12
-30z"/>
<path d="M1344 6715 c-4 -16 -8 -63 -8 -103 1 -40 -2 -68 -6 -62 -13 20 -20
-18 -15 -75 6 -55 28 -129 45 -150 6 -7 9 -21 8 -31 -5 -31 16 -29 32 2 10 20
15 63 16 134 2 148 -13 192 -31 88 -3 -21 -10 -38 -15 -38 -5 0 -11 -12 -13
-27 -3 -23 -4 -21 -6 10 0 20 4 37 9 37 12 0 12 194 0 225 -7 18 -9 17 -16
-10z"/>
<path d="M548 6708 c-8 -21 11 -75 28 -82 17 -7 16 12 -6 69 -11 28 -16 31
-22 13z"/>
<path d="M680 6691 c-18 -34 -11 -70 20 -103 l29 -33 1 52 c0 85 -26 129 -50
84z"/>
<path d="M480 6621 c-18 -34 -11 -70 20 -103 l29 -33 1 52 c0 85 -26 129 -50
84z"/>
<path d="M590 6593 c0 -10 4 -25 10 -33 5 -9 5 -19 -1 -26 -14 -17 1 -23 29
-13 l23 9 -23 40 c-25 43 -38 51 -38 23z"/>
<path d="M1430 6508 c1 -31 2 -32 15 -15 7 11 11 25 8 33 -10 25 -23 15 -23
-18z"/>
<path d="M350 6231 c0 -40 9 -61 27 -61 10 0 13 6 8 18 -3 9 -9 29 -12 45 -7
36 -23 35 -23 -2z"/>
<path d="M148 6178 c-8 -21 11 -75 28 -82 17 -7 16 12 -6 69 -11 28 -16 31
-22 13z"/>
<path d="M395 6128 c8 -27 9 -40 4 -53 -5 -11 3 -15 31 -15 26 0 25 12 -2 55
-26 39 -44 46 -33 13z"/>
<path d="M196 6072 c-4 -7 -2 -20 3 -30 5 -10 8 -28 4 -40 -4 -17 -1 -20 16
-15 25 6 26 18 2 62 -11 21 -21 30 -25 23z"/>
<path d="M1720 6021 c0 -36 5 -39 19 -12 8 14 7 22 -4 31 -13 11 -15 8 -15
-19z"/>
<path d="M5120 6029 c0 -5 5 -7 10 -4 6 3 10 8 10 11 0 2 -4 4 -10 4 -5 0 -10
-5 -10 -11z"/>
<path d="M6730 5997 c-240 -147 -370 -230 -366 -235 3 -3 29 10 58 28 29 18
123 75 208 127 85 52 159 98 165 104 20 20 -13 8 -65 -24z"/>
<path d="M4437 5940 l-27 -29 -42 15 c-48 18 -155 21 -171 5 -16 -16 0 -39 42
-61 48 -24 93 -25 151 -5 40 14 45 14 62 -2 14 -12 17 -25 13 -47 -5 -29 -5
-30 5 -6 26 59 -17 93 -90 71 -20 -6 -47 -11 -60 -11 -28 0 -90 29 -90 42 0
10 81 6 161 -8 33 -5 38 -3 57 30 26 44 23 45 -11 6z"/>
<path d="M1731 5854 c0 -11 3 -14 6 -6 3 7 2 16 -1 19 -3 4 -6 -2 -5 -13z"/>
<path d="M1699 5773 c-25 -54 -26 -57 -10 -94 27 -65 38 -48 38 56 0 52 -1 95
-1 95 -1 -1 -13 -26 -27 -57z"/>
<path d="M4470 5630 c0 -5 7 -7 15 -4 8 4 15 8 15 10 0 2 -7 4 -15 4 -8 0 -15
-4 -15 -10z"/>
<path d="M4029 5590 c-13 -10 -19 -19 -13 -20 6 0 19 9 29 20 23 26 14 26 -16
0z"/>
<path d="M4909 5534 c-97 -65 -111 -75 -106 -81 3 -2 47 21 100 52 53 30 99
55 103 55 4 0 29 -14 56 -31 28 -16 52 -28 55 -26 4 5 -90 75 -111 83 -7 3
-50 -21 -97 -52z"/>
<path d="M6273 5384 c-4 -10 0 -22 9 -28 12 -9 13 -17 7 -29 -16 -28 -2 -19
21 14 22 29 22 31 4 44 -25 19 -33 18 -41 -1z"/>
<path d="M4301 5304 c0 -11 3 -14 6 -6 3 7 2 16 -1 19 -3 4 -6 -2 -5 -13z"/>
<path d="M6234 5276 c-10 -8 -16 -17 -13 -20 3 -4 17 2 30 13 27 23 13 28 -17
7z"/>
<path d="M750 4930 c0 -5 5 -10 11 -10 5 0 7 5 4 10 -3 6 -8 10 -11 10 -2 0
-4 -4 -4 -10z"/>
<path d="M708 4923 c-21 -5 -23 -14 -6 -31 18 -18 38 -14 38 7 0 23 -8 29 -32
24z"/>
<path d="M6734 4595 c-8 -20 4 -34 15 -17 5 9 19 -1 46 -35 74 -93 147 -161
133 -124 -6 17 -132 152 -160 172 -25 18 -29 19 -34 4z"/>
<path d="M8948 4262 c-31 -9 -60 -21 -64 -25 -11 -11 18 -28 31 -18 5 5 19 11
30 13 11 3 28 9 38 13 15 6 14 1 -6 -43 -13 -27 -31 -62 -41 -76 -9 -15 -16
-37 -14 -49 2 -16 15 -4 58 58 59 85 82 130 73 139 -10 10 -44 6 -105 -12z"/>
<path d="M8754 4150 c-32 -12 -38 -40 -14 -62 11 -11 18 -23 15 -29 -4 -5 1
-9 9 -9 20 0 36 31 36 68 0 33 -15 43 -46 32z"/>
<path d="M719 4036 c7 -8 51 -31 99 -51 48 -21 111 -48 140 -61 l52 -24 76
-152 c41 -84 79 -154 84 -156 15 -5 49 40 65 86 19 57 19 132 0 158 -13 17
-14 13 -15 -51 -1 -71 -17 -136 -35 -142 -5 -1 -38 56 -72 127 l-61 130 -152
75 c-147 72 -207 93 -181 61z"/>
<path d="M8612 4030 c-31 -13 -56 -73 -41 -101 6 -12 8 -32 5 -45 -7 -28 1
-30 31 -9 17 12 21 22 17 44 -4 17 1 41 10 59 17 33 21 62 9 61 -5 0 -18 -4
-31 -9z"/>
<path d="M8586 3817 c-15 -11 -17 -19 -9 -43 l10 -29 16 32 c27 51 20 67 -17
40z"/>
<path d="M8652 3744 c-35 -24 -90 -113 -85 -135 8 -28 16 -24 63 25 62 65 81
97 68 113 -13 17 -19 16 -46 -3z"/>
<path d="M7525 3080 c-3 -5 -2 -10 4 -10 5 0 13 5 16 10 3 6 2 10 -4 10 -5 0
-13 -4 -16 -10z"/>
<path d="M7885 3050 c-3 -5 -2 -10 4 -10 5 0 13 5 16 10 3 6 2 10 -4 10 -5 0
-13 -4 -16 -10z"/>
<path d="M7702 2957 c-8 -10 -6 -13 9 -13 10 0 19 6 19 13 0 7 -4 13 -9 13 -5
0 -13 -6 -19 -13z"/>
<path d="M7830 2880 c-36 -33 -60 -60 -53 -60 15 0 130 106 123 113 -3 3 -35
-21 -70 -53z"/>
<path d="M7576 2895 c-3 -9 1 -18 10 -22 21 -8 25 -1 9 20 -11 15 -13 16 -19
2z"/>
<path d="M7707 2864 c-15 -8 -27 -19 -27 -24 0 -19 16 -17 42 5 33 28 24 39
-15 19z"/>
<path d="M7285 2821 c-9 -8 -466 -231 -700 -341 -78 -36 -87 -43 -68 -50 17
-7 62 7 190 59 161 66 441 189 524 231 32 17 89 84 89 105 0 8 -25 6 -35 -4z"/>
<path d="M7621 2816 c-18 -10 -20 -15 -10 -19 22 -9 -11 -28 -36 -20 -17 5
-18 4 -6 -10 14 -18 27 -14 69 22 21 19 30 41 15 41 -5 -1 -19 -7 -32 -14z"/>
<path d="M7745 2800 c-3 -5 -1 -10 4 -10 6 0 11 5 11 10 0 6 -2 10 -4 10 -3 0
-8 -4 -11 -10z"/>
<path d="M7050 2224 c0 -8 5 -12 10 -9 6 3 10 10 10 16 0 5 -4 9 -10 9 -5 0
-10 -7 -10 -16z"/>
<path d="M8148 1723 c6 -2 18 -2 25 0 6 3 1 5 -13 5 -14 0 -19 -2 -12 -5z"/>
<path d="M7869 1230 c-359 -169 -459 -219 -459 -230 0 -6 10 -21 23 -34 13
-13 30 -39 37 -57 7 -19 15 -36 16 -38 7 -8 358 194 376 217 10 13 10 14 1 8
-18 -10 -17 34 0 58 12 16 14 16 27 -8 16 -31 22 -32 62 -8 37 21 118 174 91
171 -4 0 -83 -36 -174 -79z"/>
<path d="M2368 1238 c37 -60 107 -192 157 -293 27 -55 55 -110 63 -123 15 -23
15 -23 33 19 19 41 18 59 -4 59 -7 0 -45 60 -86 133 -71 125 -152 237 -173
237 -5 0 -1 -15 10 -32z"/>
<path d="M775 1231 c-7 -12 65 -62 77 -55 15 10 8 22 -26 43 -38 24 -42 25
-51 12z"/>
<path d="M2524 1176 c-7 -17 96 -233 125 -264 22 -22 22 -22 49 -3 15 10 40
33 56 50 28 29 80 51 154 66 17 4 32 12 32 20 0 9 -23 14 -78 17 -83 5 -164
35 -263 99 -51 32 -67 36 -75 15z"/>
<path d="M970 1113 c0 -15 16 -32 53 -57 46 -31 48 -32 44 -5 -5 28 -97 86
-97 62z"/>
<path d="M1690 1090 c0 -5 5 -10 11 -10 5 0 7 5 4 10 -3 6 -8 10 -11 10 -2 0
-4 -4 -4 -10z"/>
<path d="M2955 1020 c-103 -50 -172 -112 -216 -192 -32 -59 -34 -69 -34 -153
1 -93 8 -115 81 -244 82 -146 288 -240 563 -258 70 -5 92 -3 87 5 -4 7 -22 12
-39 12 -104 0 -309 57 -413 115 -71 40 -165 137 -193 199 -50 108 -52 214 -8
302 29 57 123 152 205 207 91 62 83 64 -33 7z"/>
<path d="M3182 1039 c-181 -23 -309 -156 -320 -331 -7 -108 33 -170 143 -225
91 -46 315 -59 437 -25 204 57 326 223 294 397 -10 53 -77 116 -146 138 -134
42 -299 61 -408 46z"/>
<path d="M3620 1046 c0 -3 26 -19 58 -37 73 -42 192 -160 221 -221 30 -64 41
-140 29 -216 -13 -81 -8 -92 39 -92 78 0 111 43 112 140 2 156 -69 252 -254
344 -72 36 -205 89 -205 82z"/>
<path d="M4557 922 c-29 -30 -54 -89 -42 -100 4 -4 10 -2 12 5 10 29 48 65 91
88 42 21 44 24 20 25 -14 0 -33 2 -40 5 -8 3 -26 -7 -41 -23z"/>
<path d="M1293 926 c4 -10 7 -21 7 -26 0 -17 507 -280 539 -280 6 0 11 6 11
13 0 8 -46 36 -102 62 -91 43 -291 150 -417 223 -38 22 -44 23 -38 8z"/>
<path d="M4671 858 c-76 -93 -222 -207 -384 -298 -86 -48 -61 -49 39 -1 164
78 292 183 371 302 38 58 23 57 -26 -3z"/>
<path d="M4588 879 c-16 -9 -26 -39 -13 -39 15 0 54 33 49 41 -7 11 -15 11
-36 -2z"/>
<path d="M4410 776 c-36 -28 -111 -78 -165 -110 -55 -33 -110 -65 -122 -73
-21 -12 -33 -53 -16 -53 7 0 55 27 217 123 107 64 120 75 137 115 11 25 18 46
17 47 -2 1 -32 -21 -68 -49z"/>
<path d="M3739 512 c-79 -79 -200 -160 -284 -188 -75 -26 -53 -53 30 -34 124
28 240 119 303 238 18 34 32 62 30 61 -2 0 -37 -35 -79 -77z"/>
<path d="M4330 533 c-53 -24 -170 -53 -214 -53 -34 0 -45 -7 -113 -77 l-74
-78 5 -60 c3 -33 8 -69 11 -80 2 -11 10 -41 16 -67 14 -53 25 -58 139 -58 61
0 68 2 73 21 5 19 11 21 46 16 27 -3 44 -1 51 9 14 16 5 64 -20 108 -10 17
-22 49 -26 70 l-7 39 57 -54 c32 -30 64 -66 72 -81 8 -16 23 -28 34 -28 14 0
26 -12 36 -37 9 -21 20 -45 24 -53 4 -8 24 -16 44 -18 36 -3 37 -2 30 25 -4
15 -14 44 -22 63 -8 19 -16 45 -17 58 0 13 -7 28 -15 33 -13 8 -12 12 4 24 20
15 20 13 -19 110 -25 61 -55 153 -55 169 0 19 -14 19 -60 -1z"/>
<path d="M3360 290 c-12 -8 -11 -10 8 -10 12 0 22 5 22 10 0 13 -11 13 -30 0z"/>
<path d="M3825 233 c-33 -24 -98 -63 -145 -86 l-85 -42 45 -6 c25 -4 87 -10
138 -14 81 -7 92 -6 92 9 0 22 17 20 30 -4 6 -11 19 -20 30 -20 17 0 19 5 13
33 -3 17 -14 51 -25 75 -10 24 -18 54 -18 67 0 13 -3 26 -8 29 -4 2 -34 -16
-67 -41z"/>
</g>
</svg>
