<?xml version="1.0" standalone="no"?>
<!DOCTYPE svg PUBLIC "-//W3C//DTD SVG 20010904//EN"
 "http://www.w3.org/TR/2001/REC-SVG-20010904/DTD/svg10.dtd">
<svg version="1.0" xmlns="http://www.w3.org/2000/svg"
 width="512.000000" height="512.000000" viewBox="0 0 512.000000 512.000000"
 preserveAspectRatio="xMidYMid meet">

<g transform="translate(0.000000,512.000000) scale(0.100000,-0.100000)"
fill="#000000" stroke="none">
<path d="M2545 4970 c-3 -6 -44 -10 -95 -10 -49 0 -92 -4 -95 -10 -3 -5 -24
-10 -45 -10 -21 0 -42 -4 -45 -10 -3 -5 -24 -10 -46 -10 -21 0 -39 -4 -39 -10
0 -5 -18 -10 -39 -10 -22 0 -43 -4 -46 -10 -3 -5 -15 -10 -26 -10 -11 0 -40
-11 -65 -25 -25 -14 -53 -25 -64 -25 -10 0 -22 -4 -25 -10 -3 -5 -14 -10 -24
-10 -10 0 -85 -34 -167 -76 -202 -103 -203 -104 -209 -115 -4 -5 -10 -7 -15
-4 -5 3 -11 1 -15 -5 -3 -5 -26 -19 -51 -30 -24 -11 -44 -26 -44 -33 0 -12
-53 -47 -71 -47 -5 0 -63 -54 -127 -120 -64 -66 -125 -120 -135 -120 -10 0
-17 -8 -17 -20 0 -13 -7 -20 -20 -20 -12 0 -20 -7 -20 -17 -1 -10 -25 -43 -55
-73 -30 -30 -55 -60 -55 -66 0 -6 -7 -17 -15 -24 -8 -7 -13 -16 -10 -19 2 -4
-16 -27 -40 -51 -25 -24 -45 -49 -45 -56 0 -6 -7 -17 -15 -24 -8 -7 -26 -37
-40 -67 -14 -30 -33 -57 -41 -60 -7 -3 -14 -11 -14 -19 0 -16 -44 -89 -60 -99
-5 -3 -10 -19 -10 -36 0 -16 -4 -29 -10 -29 -5 0 -10 -9 -10 -20 0 -11 -4 -20
-10 -20 -5 0 -10 -13 -10 -29 0 -17 -4 -33 -10 -36 -5 -3 -10 -17 -10 -30 0
-13 -5 -27 -10 -30 -5 -3 -10 -26 -10 -50 0 -29 -9 -60 -25 -89 -17 -31 -25
-60 -25 -95 0 -27 -4 -53 -10 -56 -5 -3 -10 -24 -10 -45 0 -21 -5 -42 -10 -45
-6 -3 -10 -42 -10 -85 0 -43 -5 -82 -10 -85 -6 -4 -10 -70 -10 -165 0 -95 4
-161 10 -165 6 -3 10 -48 10 -100 0 -52 4 -97 10 -100 6 -3 10 -37 10 -74 0
-39 5 -72 12 -79 7 -7 11 -28 9 -47 -1 -20 4 -44 13 -57 9 -12 16 -32 16 -45
0 -12 5 -25 10 -28 6 -3 10 -28 10 -56 0 -27 5 -49 10 -49 6 0 10 -9 10 -19 0
-11 4 -23 10 -26 6 -3 10 -17 10 -30 0 -13 4 -27 10 -30 6 -3 10 -19 10 -35 0
-16 5 -32 10 -35 6 -3 10 -15 10 -25 0 -11 11 -39 25 -64 14 -25 25 -52 25
-60 0 -8 9 -20 20 -26 11 -6 20 -17 20 -25 0 -16 52 -118 72 -144 8 -9 19 -27
25 -41 6 -14 18 -41 26 -60 9 -19 28 -46 42 -60 15 -14 35 -43 45 -65 10 -22
32 -53 49 -69 17 -17 31 -35 31 -42 0 -7 23 -35 50 -62 27 -27 50 -53 50 -58
0 -13 41 -57 73 -77 15 -10 27 -22 27 -27 0 -16 205 -217 240 -235 17 -9 34
-23 37 -31 3 -7 13 -14 23 -14 10 0 24 -7 31 -16 7 -9 24 -20 36 -25 13 -5 22
-14 21 -20 -3 -12 71 -72 107 -88 12 -5 27 -16 34 -25 7 -9 19 -16 25 -16 7 0
23 -11 36 -25 13 -14 31 -25 41 -25 9 0 22 -7 29 -15 14 -17 149 -85 169 -85
8 0 29 -11 47 -25 22 -17 45 -25 73 -25 52 0 55 24 7 44 -18 8 -37 19 -40 25
-4 6 -26 20 -49 30 -23 11 -53 31 -66 45 -25 26 -23 56 3 56 20 0 91 -37 107
-56 6 -8 24 -14 40 -14 16 0 29 -4 29 -10 0 -5 9 -10 20 -10 11 0 20 -4 20
-10 0 -5 13 -10 29 -10 17 0 33 -4 36 -10 3 -5 16 -10 28 -10 12 0 31 -7 41
-15 10 -8 23 -12 28 -9 5 3 20 -1 33 -10 13 -9 38 -16 54 -16 16 0 33 -4 36
-10 3 -5 33 -10 65 -10 32 0 62 -4 65 -10 3 -5 29 -10 56 -10 28 0 59 -5 70
-10 14 -8 27 -7 48 5 57 29 52 43 -32 89 -26 14 -59 26 -72 26 -14 0 -25 5
-25 10 0 6 -11 10 -25 10 -13 0 -40 9 -60 20 -20 11 -44 20 -53 20 -21 0 -72
22 -72 31 0 14 40 16 57 3 10 -7 39 -14 66 -14 26 0 47 -4 47 -10 0 -5 18 -10
39 -10 22 0 43 -4 46 -10 3 -5 37 -10 74 -10 54 0 71 4 85 19 17 19 17 20 -7
36 -14 8 -29 15 -33 13 -5 -1 -29 8 -53 20 -25 12 -57 22 -72 22 -15 0 -31 4
-34 10 -3 5 -21 10 -38 10 -18 0 -52 11 -76 25 -23 14 -58 25 -77 25 -19 0
-34 5 -34 10 0 6 -9 10 -20 10 -11 0 -20 5 -20 10 0 6 -17 10 -37 10 -21 0
-45 8 -57 18 -12 10 -37 25 -56 32 -19 7 -42 18 -50 25 -8 6 -60 33 -115 61
-55 27 -107 57 -116 66 -9 10 -21 18 -26 18 -16 0 -70 29 -83 45 -7 8 -18 15
-24 15 -7 0 -27 16 -46 35 -19 19 -40 35 -47 35 -8 0 -16 8 -20 18 -8 24 -94
112 -110 112 -17 0 -93 74 -93 91 0 8 -29 44 -65 79 -36 35 -65 69 -65 76 0 6
-9 19 -20 29 -11 10 -20 23 -20 29 0 7 -20 32 -45 56 -32 31 -45 52 -45 72 0
15 -4 28 -10 28 -5 0 -10 6 -10 14 0 15 -65 144 -81 161 -5 5 -9 17 -9 27 0
10 -4 18 -10 18 -5 0 -10 11 -10 24 0 13 -11 44 -25 67 -14 24 -25 54 -25 67
0 12 -4 22 -10 22 -5 0 -10 14 -10 30 0 17 -4 30 -10 30 -5 0 -10 13 -10 29 0
17 -4 33 -10 36 -5 3 -10 19 -10 35 0 16 -4 32 -10 35 -5 3 -10 28 -10 56 0
27 -4 49 -10 49 -5 0 -10 22 -10 49 0 28 -5 53 -10 56 -6 3 -10 32 -10 64 0
40 -5 63 -15 71 -22 19 -22 441 0 460 10 8 15 30 15 61 0 26 5 51 10 54 6 3
10 43 10 87 0 84 9 125 41 191 11 22 19 45 19 53 0 8 5 14 10 14 6 0 10 7 10
16 0 9 8 24 18 33 10 9 33 46 51 83 18 37 37 70 41 73 5 3 7 12 4 20 -4 9 25
48 75 102 45 48 81 91 81 96 0 14 202 211 233 226 15 8 27 23 27 33 0 10 7 18
15 18 20 0 53 19 88 49 15 14 27 21 27 17 0 -5 6 -3 14 3 25 21 251 131 268
131 9 0 20 5 23 10 3 6 19 10 35 10 16 0 32 5 35 10 3 6 17 10 30 10 13 0 27
5 30 10 3 6 19 10 36 10 16 0 29 5 29 10 0 6 17 10 38 10 20 0 46 7 56 15 14
10 45 15 98 15 59 0 89 5 118 20 43 22 75 26 85 10 3 -5 19 -10 36 -10 16 0
29 -4 29 -10 0 -5 24 -10 53 -10 28 0 65 -7 81 -15 15 -8 46 -15 67 -15 21 0
41 -4 44 -10 3 -5 17 -10 30 -10 14 0 40 -9 60 -20 20 -11 47 -20 60 -20 14 0
25 -4 25 -10 0 -5 9 -10 20 -10 11 0 20 -4 20 -10 0 -5 9 -10 19 -10 11 0 21
-3 23 -7 5 -12 68 -43 86 -43 8 0 24 -7 34 -17 10 -9 28 -21 40 -27 12 -6 29
-24 38 -41 9 -16 28 -36 43 -43 15 -7 27 -20 27 -28 0 -7 7 -14 15 -14 8 0 21
-12 29 -27 8 -16 33 -46 56 -68 40 -39 70 -86 70 -111 0 -7 3 -14 8 -16 12 -5
62 -107 62 -127 0 -11 5 -23 10 -26 6 -3 10 -24 10 -46 0 -21 5 -39 10 -39 6
0 10 -10 10 -22 0 -13 11 -43 25 -67 14 -23 25 -58 25 -77 0 -19 5 -34 10 -34
6 0 10 -53 10 -139 0 -83 4 -142 10 -146 13 -8 13 -82 0 -90 -6 -3 -10 -21
-10 -40 0 -19 -5 -37 -10 -40 -6 -3 -10 -24 -10 -45 0 -21 -5 -42 -10 -45 -5
-3 -10 -15 -10 -26 0 -11 -11 -37 -25 -59 -14 -22 -25 -44 -25 -49 0 -5 -16
-25 -35 -44 -19 -19 -35 -41 -35 -49 0 -20 -223 -238 -243 -238 -9 0 -22 -9
-29 -20 -7 -11 -23 -20 -35 -20 -12 0 -42 -11 -67 -25 -81 -45 -58 10 25 60
18 11 41 25 52 31 10 6 30 23 45 36 15 14 35 28 45 31 9 4 17 13 17 21 0 8 8
17 18 20 16 6 24 17 76 101 10 16 22 32 27 33 5 2 9 12 9 23 0 10 5 19 10 19
6 0 10 9 10 20 0 11 5 20 10 20 6 0 10 11 10 25 0 13 12 45 26 70 19 34 25 58
23 91 -2 24 2 49 9 56 16 16 16 140 0 156 -7 7 -11 34 -9 66 1 34 -3 66 -13
85 -9 16 -16 39 -16 51 0 11 -4 20 -10 20 -5 0 -10 13 -10 29 0 17 -4 33 -10
36 -5 3 -10 17 -10 30 0 13 -4 27 -10 30 -5 3 -10 14 -10 24 0 10 -12 28 -26
42 -14 13 -30 33 -35 44 -30 63 -111 155 -136 155 -8 0 -18 11 -23 25 -5 14
-16 25 -23 25 -8 0 -22 9 -32 20 -10 11 -23 20 -30 20 -7 0 -20 9 -30 20 -10
11 -30 20 -45 20 -15 0 -35 9 -45 20 -12 13 -31 20 -57 20 -21 0 -38 -2 -38
-5 0 -13 50 -55 65 -55 8 0 15 -9 15 -20 0 -15 7 -20 28 -20 19 0 39 -11 62
-35 19 -20 44 -35 56 -35 17 0 28 -10 40 -37 10 -21 41 -64 71 -95 29 -31 53
-65 53 -76 0 -11 8 -30 18 -43 32 -40 72 -119 72 -139 0 -10 5 -22 10 -25 6
-3 10 -28 10 -55 0 -27 5 -52 10 -55 6 -4 10 -58 10 -130 0 -72 -4 -126 -10
-130 -5 -3 -10 -24 -10 -46 0 -21 -4 -39 -10 -39 -5 0 -10 -11 -10 -24 0 -13
-11 -44 -25 -67 -14 -24 -25 -54 -25 -66 0 -16 -6 -23 -20 -23 -11 0 -20 -5
-20 -11 0 -6 -23 -36 -51 -67 -28 -32 -55 -67 -60 -79 -5 -13 -15 -23 -22 -23
-8 0 -22 -9 -32 -20 -10 -11 -26 -20 -35 -20 -9 0 -25 -9 -35 -20 -10 -11 -26
-20 -36 -20 -10 0 -34 -9 -54 -20 -20 -11 -48 -20 -63 -20 -16 0 -37 -7 -48
-15 -10 -8 -29 -15 -41 -15 -12 0 -25 -5 -28 -10 -11 -17 -217 -12 -253 6 -18
8 -34 19 -37 25 -4 5 -15 9 -25 9 -10 0 -41 10 -69 23 -46 20 -51 25 -51 53 0
23 -7 36 -25 48 -14 9 -25 23 -25 32 0 11 -8 14 -27 12 -25 -3 -28 -7 -31 -45
-2 -26 1 -43 7 -43 6 0 11 -9 11 -20 0 -13 7 -20 20 -20 12 0 20 -7 20 -16 0
-29 56 -74 93 -74 23 0 41 -8 57 -25 14 -15 30 -23 40 -20 10 3 23 -1 30 -10
8 -10 30 -15 61 -15 26 0 51 -4 54 -10 3 -5 42 -10 85 -10 43 0 82 -4 85 -10
3 -5 35 -10 71 -10 55 0 64 -3 64 -18 0 -36 20 -42 141 -42 68 0 120 4 124 10
3 6 13 10 21 10 20 0 17 -39 -3 -47 -10 -3 -30 -17 -45 -31 -28 -26 -81 -50
-130 -59 -16 -3 -28 -9 -28 -14 0 -5 -22 -9 -49 -9 -28 0 -53 -4 -56 -10 -3
-5 -33 -10 -65 -10 -32 0 -62 -5 -65 -10 -8 -13 -85 -13 -85 0 0 6 -31 10 -74
10 -41 0 -78 5 -81 10 -3 6 -19 10 -35 10 -16 0 -49 11 -74 25 -25 14 -54 25
-65 25 -11 0 -23 5 -26 10 -8 13 -105 13 -105 0 0 -5 -6 -10 -13 -10 -26 0
-121 52 -148 81 -22 24 -35 29 -73 29 -41 0 -46 -2 -46 -23 0 -24 99 -129 133
-140 9 -4 17 -13 17 -22 0 -10 10 -15 29 -15 16 0 34 -6 40 -14 17 -20 246
-136 269 -136 11 0 25 -6 31 -14 14 -17 66 -26 181 -32 47 -3 95 -10 108 -16
17 -9 25 -9 34 0 8 8 47 12 105 12 55 0 93 4 93 10 0 6 26 10 58 10 36 0 66 6
80 16 13 9 29 13 37 10 8 -3 17 -1 20 4 7 11 64 40 79 40 14 0 120 53 124 63
2 4 12 7 22 7 9 0 23 7 30 15 7 9 29 23 49 32 20 9 49 27 64 40 16 13 35 23
43 23 7 0 19 9 26 20 7 11 21 20 30 20 11 0 18 8 18 18 0 20 29 52 47 52 6 0
14 -8 17 -17 5 -11 -7 -30 -36 -60 -23 -24 -47 -43 -53 -43 -6 0 -22 -12 -36
-26 -13 -14 -34 -30 -46 -35 -13 -5 -23 -14 -23 -22 0 -26 -102 -107 -134
-107 -8 0 -16 -3 -18 -7 -5 -13 -68 -43 -88 -43 -10 0 -22 -4 -25 -10 -3 -5
-19 -10 -36 -10 -16 0 -29 -4 -29 -10 0 -5 -13 -10 -29 -10 -17 0 -33 -4 -36
-10 -3 -5 -21 -10 -40 -10 -19 0 -37 -5 -40 -10 -3 -6 -44 -10 -90 -10 -46 0
-87 -5 -90 -10 -8 -13 -212 -13 -220 0 -3 6 -44 10 -91 10 -49 0 -84 4 -84 10
0 6 -11 10 -24 10 -13 0 -41 9 -63 19 -21 10 -58 24 -83 31 -25 7 -52 16 -60
21 -8 4 -44 23 -79 40 -36 18 -74 40 -85 50 -11 11 -24 19 -29 19 -5 0 -22 14
-37 30 -15 17 -34 30 -42 30 -16 0 -153 137 -161 163 -4 9 -13 17 -22 17 -9 0
-15 9 -15 26 0 16 -13 39 -37 63 -42 41 -73 93 -73 121 0 10 -4 22 -10 25 -5
3 -10 19 -10 35 0 15 -3 30 -7 32 -14 6 -43 69 -43 93 0 46 19 35 50 -30 17
-36 36 -67 41 -71 5 -3 7 -9 4 -13 -6 -11 33 -46 42 -37 4 4 2 16 -5 26 -7 11
-12 28 -12 38 0 10 -5 23 -11 29 -6 6 -12 28 -14 48 -2 21 -9 43 -14 48 -6 6
-11 54 -11 112 0 58 -5 106 -11 112 -7 7 -9 46 -6 109 6 121 15 174 33 194 7
9 11 25 8 37 -4 14 3 33 20 56 20 26 26 45 26 85 0 28 -4 53 -9 56 -17 11 -81
-82 -81 -117 0 -18 -28 -75 -41 -82 -5 -4 -9 -17 -9 -30 0 -13 -4 -27 -10 -30
-5 -3 -10 -17 -10 -31 0 -27 -12 -31 -29 -10 -8 10 -9 16 -1 21 5 3 10 28 10
56 0 27 5 49 10 49 6 0 10 13 10 29 0 17 5 33 10 36 6 3 10 15 10 27 0 21 29
80 43 86 4 2 7 10 7 17 0 17 46 102 70 130 9 11 20 28 23 38 4 9 13 17 22 17
8 0 15 9 15 20 0 11 5 20 10 20 6 0 10 7 10 16 0 9 9 25 21 35 31 27 14 43
-24 22 -44 -24 -107 -84 -101 -95 3 -5 -3 -12 -15 -15 -11 -3 -30 -24 -42 -48
-11 -23 -34 -56 -50 -73 -16 -17 -29 -38 -29 -46 0 -9 -4 -16 -10 -16 -5 0
-10 -9 -10 -20 0 -11 -4 -20 -10 -20 -5 0 -10 -9 -10 -19 0 -11 -4 -23 -10
-26 -5 -3 -10 -17 -10 -30 0 -13 -5 -27 -10 -30 -5 -3 -10 -27 -10 -53 0 -26
-7 -56 -15 -66 -9 -12 -15 -42 -15 -72 0 -29 -4 -56 -10 -59 -5 -3 -10 -30
-10 -60 0 -30 -4 -57 -10 -60 -14 -9 -13 218 0 231 6 6 10 41 8 80 l-3 69 -36
3 c-33 3 -39 -1 -53 -29 -9 -18 -16 -43 -16 -56 0 -12 -4 -23 -10 -23 -5 0
-10 -13 -10 -29 0 -17 -4 -33 -10 -36 -6 -3 -10 -52 -10 -111 0 -63 -4 -104
-10 -104 -5 0 -10 -11 -10 -24 0 -14 5 -28 10 -31 6 -3 10 -42 10 -85 0 -43 5
-82 10 -85 6 -3 10 -24 10 -45 0 -21 5 -42 10 -45 6 -3 10 -21 10 -40 0 -19 5
-37 10 -40 6 -3 10 -19 10 -36 0 -16 5 -29 10 -29 6 0 10 -13 10 -28 0 -15 4
-32 9 -38 16 -17 61 -105 61 -119 0 -7 4 -15 8 -17 5 -1 23 -32 40 -68 17 -36
52 -85 77 -110 25 -24 45 -49 45 -55 0 -18 233 -241 270 -258 19 -8 48 -29 64
-46 19 -20 40 -31 57 -31 15 0 29 -6 32 -13 5 -14 163 -97 185 -97 6 0 12 -4
12 -10 0 -5 14 -10 30 -10 17 0 30 -4 30 -10 0 -5 13 -10 29 -10 17 0 33 -4
36 -10 3 -5 23 -10 44 -10 23 0 44 -6 52 -16 8 -10 22 -14 40 -10 17 3 32 0
39 -9 10 -12 55 -15 254 -15 158 0 246 4 253 11 5 5 27 12 48 14 20 2 42 8 48
14 6 6 30 11 53 11 24 0 46 5 49 10 3 6 19 10 35 10 16 0 32 5 35 10 3 6 17
10 30 10 13 0 27 5 30 10 3 6 19 10 36 10 16 0 29 5 29 10 0 6 9 10 20 10 11
0 20 5 20 10 0 6 7 10 15 10 17 0 90 43 100 60 3 5 17 10 30 10 13 0 35 11 49
25 14 14 36 25 49 25 13 0 36 13 52 30 16 16 34 30 40 30 6 0 35 25 65 55 30
30 59 55 65 55 15 0 115 103 115 118 0 7 9 12 20 12 12 0 20 7 20 16 0 10 19
38 43 65 61 69 87 105 87 122 0 8 7 17 14 20 8 3 27 30 41 60 14 30 32 60 40
67 8 7 15 23 15 36 0 12 5 26 10 29 6 3 10 15 10 26 0 10 5 19 10 19 6 0 10
11 10 24 0 13 8 41 19 63 38 79 51 114 51 143 0 16 5 32 10 35 6 3 10 42 10
85 0 43 5 82 10 85 14 8 14 432 0 440 -5 3 -10 37 -10 75 0 38 -4 72 -10 75
-5 3 -10 28 -10 54 0 32 -5 53 -16 61 -8 8 -14 25 -13 39 2 14 -7 46 -19 70
-12 25 -22 53 -22 62 0 10 -4 21 -10 24 -5 3 -10 19 -10 36 0 16 -4 29 -10 29
-5 0 -10 9 -10 20 0 11 -4 20 -10 20 -5 0 -10 13 -10 29 0 17 -5 33 -10 36
-16 10 -60 83 -60 99 0 8 -6 16 -14 19 -8 3 -35 48 -60 100 -26 52 -53 100
-61 107 -8 7 -15 20 -15 29 0 9 -13 26 -29 39 -16 12 -34 35 -41 51 -6 16 -22
33 -36 40 -13 6 -28 19 -31 28 -9 23 -231 243 -245 243 -5 0 -23 14 -38 30
-15 17 -32 30 -37 30 -16 0 -70 29 -83 45 -7 8 -18 15 -24 15 -7 0 -23 11 -36
25 -13 14 -32 25 -42 25 -10 0 -18 5 -18 10 0 6 -9 10 -20 10 -11 0 -20 5 -20
10 0 6 -10 10 -22 10 -13 0 -43 11 -67 25 -23 14 -58 25 -77 25 -19 0 -34 5
-34 10 0 6 -9 10 -19 10 -11 0 -22 4 -25 9 -3 5 -23 11 -43 14 -73 11 -108 18
-128 27 -45 20 -589 39 -600 20z"/>
<path d="M2482 3924 c-14 -9 -33 -14 -46 -10 -15 4 -28 0 -36 -9 -7 -8 -23
-15 -36 -15 -12 0 -26 -4 -29 -10 -3 -5 -17 -10 -30 -10 -13 0 -37 -11 -53
-25 -17 -14 -39 -25 -49 -25 -11 0 -30 -12 -44 -26 -13 -14 -34 -30 -47 -35
-13 -5 -22 -15 -20 -22 6 -15 88 -23 88 -8 0 6 9 11 19 11 11 0 23 5 26 10 3
6 17 10 30 10 13 0 27 5 30 10 3 6 19 10 35 10 16 0 32 5 35 10 3 6 17 10 30
10 13 0 27 5 30 10 3 6 30 10 58 10 29 1 63 7 77 15 14 8 48 14 77 15 28 0 55
5 58 10 3 6 37 10 76 10 38 0 69 4 69 9 0 14 -62 36 -93 32 -15 -1 -39 4 -52
13 -34 22 -172 22 -203 0z"/>
<path d="M2790 3660 c-8 -5 -50 -10 -92 -10 -42 0 -80 -4 -83 -10 -3 -5 -37
-10 -74 -10 -56 0 -71 -4 -87 -21 -10 -11 -37 -29 -60 -39 -22 -11 -47 -26
-54 -35 -7 -8 -25 -15 -41 -15 -17 0 -29 -5 -29 -13 0 -7 -13 -26 -30 -42 -16
-16 -30 -35 -30 -42 0 -20 48 -16 54 5 7 22 60 52 92 52 13 0 24 5 24 10 0 6
9 10 20 10 11 0 20 5 20 10 0 6 9 10 19 10 11 0 22 4 25 9 9 15 82 23 244 27
102 4 152 2 152 -6 0 -5 9 -10 20 -10 11 0 20 -4 20 -10 0 -5 13 -10 28 -10
16 0 37 -9 47 -20 10 -11 29 -20 42 -20 17 0 53 -30 128 -107 58 -60 105 -113
105 -118 0 -15 21 -35 37 -35 19 0 17 65 -2 80 -9 7 -13 20 -10 28 3 9 -14 35
-45 68 -27 29 -50 60 -50 68 0 9 -9 16 -20 16 -11 0 -20 7 -20 15 0 20 -44 65
-64 65 -8 0 -16 3 -18 8 -1 4 -28 19 -58 35 -39 19 -71 27 -107 27 -46 0 -51
2 -46 20 4 16 0 20 -18 20 -13 0 -31 -5 -39 -10z"/>
<path d="M2314 2936 c-8 -21 -1 -49 13 -53 15 -5 55 35 50 50 -6 18 -56 21
-63 3z"/>
</g>
</svg>
