<?xml version="1.0" standalone="no"?>
<!DOCTYPE svg PUBLIC "-//W3C//DTD SVG 20010904//EN"
 "http://www.w3.org/TR/2001/REC-SVG-20010904/DTD/svg10.dtd">
<svg version="1.0" xmlns="http://www.w3.org/2000/svg"
 width="303.000000" height="302.000000" viewBox="0 0 303.000000 302.000000"
 preserveAspectRatio="xMidYMid meet">

<g transform="translate(0.000000,302.000000) scale(0.100000,-0.100000)"
fill="#000000" stroke="none">
<path d="M1310 3005 c-323 -53 -574 -168 -797 -367 -157 -141 -254 -267 -348
-453 -67 -131 -102 -232 -136 -390 -29 -132 -31 -412 -5 -555 56 -307 197
-573 425 -800 218 -218 439 -341 741 -412 125 -29 432 -37 572 -13 325 54 615
208 849 452 440 459 541 1145 254 1718 -210 417 -594 709 -1060 805 -132 28
-377 35 -495 15z m370 -179 c180 -24 297 -62 456 -145 793 -416 951 -1491 311
-2119 -260 -256 -567 -382 -930 -382 -167 0 -281 18 -424 65 -414 138 -730
465 -854 885 -55 185 -68 422 -35 610 92 512 481 928 987 1056 174 44 318 52
489 30z"/>
<path d="M785 2015 c-14 -13 -25 -31 -25 -40 0 -9 21 -38 47 -66 l46 -49 -24
-27 c-13 -15 -32 -34 -41 -42 -29 -27 -33 -66 -9 -90 33 -33 72 -27 124 20 52
45 60 44 111 -10 37 -39 87 -43 110 -9 25 35 19 55 -30 108 l-47 50 47 50 c51
54 56 76 26 108 -32 34 -65 28 -120 -24 l-50 -47 -50 47 c-56 52 -80 57 -115
21z"/>
<path d="M1910 2020 c-31 -31 -24 -56 26 -110 l47 -50 -47 -50 c-50 -53 -58
-86 -28 -113 32 -30 74 -21 117 23 21 22 44 40 50 40 5 0 30 -18 53 -40 53
-48 91 -53 121 -15 25 33 14 70 -35 114 -19 17 -34 35 -34 39 0 4 18 26 40 47
45 44 54 90 22 118 -32 29 -63 20 -114 -30 l-47 -46 -50 46 c-56 52 -89 59
-121 27z"/>
<path d="M1375 1309 c-144 -34 -306 -166 -371 -303 -48 -102 -54 -154 -23
-201 15 -22 37 -39 59 -46 23 -6 198 -9 497 -7 l463 3 32 33 c48 47 46 109 -4
214 -67 141 -216 264 -363 303 -65 17 -225 19 -290 4z"/>
</g>
</svg>
