<?xml version="1.0" standalone="no"?>
<!DOCTYPE svg PUBLIC "-//W3C//DTD SVG 20010904//EN"
 "http://www.w3.org/TR/2001/REC-SVG-20010904/DTD/svg10.dtd">
<svg version="1.0" xmlns="http://www.w3.org/2000/svg"
 width="303.000000" height="302.000000" viewBox="0 0 303.000000 302.000000"
 preserveAspectRatio="xMidYMid meet">

<g transform="translate(0.000000,302.000000) scale(0.100000,-0.100000)"
fill="#000000" stroke="none">
<path d="M1326 3009 c-571 -78 -1044 -460 -1235 -996 -160 -448 -100 -946 162
-1340 230 -345 565 -568 982 -654 88 -18 126 -20 315 -16 201 4 222 6 331 35
283 75 501 198 698 394 222 220 370 498 427 809 24 128 24 409 0 531 -64 331
-231 635 -463 845 -208 189 -454 315 -728 373 -115 24 -377 35 -489 19z m344
-184 c157 -18 276 -52 410 -117 280 -135 499 -350 625 -613 85 -177 115 -284
135 -479 33 -327 -83 -701 -296 -950 -178 -209 -370 -340 -619 -424 -263 -89
-615 -82 -876 17 -344 131 -634 416 -769 755 -57 144 -81 265 -87 434 -7 179
6 292 49 437 151 513 607 891 1138 944 128 13 154 12 290 -4z"/>
<path d="M950 2063 c-14 -2 -46 -11 -71 -19 -139 -44 -237 -278 -138 -329 65
-34 113 -8 129 69 17 82 76 123 148 104 38 -10 67 -51 76 -108 6 -41 44 -80
78 -80 27 0 74 26 82 45 21 56 -7 162 -60 223 -55 64 -166 108 -244 95z"/>
<path d="M2005 2059 c-88 -11 -161 -61 -200 -138 -47 -95 -45 -180 5 -206 16
-8 39 -15 50 -15 31 0 80 53 80 86 0 42 36 92 76 103 72 20 144 -30 144 -100
0 -31 32 -75 60 -84 34 -11 87 13 100 45 25 61 -9 168 -75 235 -64 63 -140 87
-240 74z"/>
<path d="M1022 1213 c-74 -36 -79 -114 -17 -241 27 -55 59 -97 109 -148 116
-117 236 -164 412 -164 163 1 294 59 408 182 108 115 159 254 122 326 -32 63
-28 62 -538 62 -407 0 -467 -2 -496 -17z"/>
</g>
</svg>
