<?xml version="1.0" standalone="no"?>
<!DOCTYPE svg PUBLIC "-//W3C//DTD SVG 20010904//EN"
 "http://www.w3.org/TR/2001/REC-SVG-20010904/DTD/svg10.dtd">
<svg version="1.0" xmlns="http://www.w3.org/2000/svg"
 width="302.000000" height="302.000000" viewBox="0 0 302.000000 302.000000"
 preserveAspectRatio="xMidYMid meet">

<g transform="translate(0.000000,302.000000) scale(0.100000,-0.100000)"
fill="#000000" stroke="none">
<path d="M1300 3005 c-241 -36 -437 -111 -630 -240 -347 -233 -570 -571 -650
-984 -25 -129 -27 -393 -5 -524 89 -509 411 -923 880 -1134 90 -41 163 -64
305 -99 62 -16 115 -19 310 -19 225 0 240 1 350 29 251 62 481 186 689 371 45
40 169 189 220 263 60 89 145 266 179 372 99 312 94 685 -15 975 -162 432
-462 738 -893 908 -215 85 -507 117 -740 82z m360 -180 c134 -16 163 -22 280
-62 447 -151 785 -542 874 -1012 55 -288 16 -563 -119 -836 -179 -363 -502
-616 -910 -711 -64 -15 -119 -19 -280 -19 -214 0 -300 14 -453 71 -331 125
-598 370 -746 684 -83 178 -116 315 -123 510 -15 401 122 742 410 1016 195
187 429 306 685 349 165 27 223 29 382 10z"/>
<path d="M957 1955 c-84 -21 -137 -91 -137 -180 0 -60 19 -103 63 -142 88 -77
235 -48 290 58 28 52 20 146 -17 193 -51 68 -118 92 -199 71z"/>
<path d="M1934 1950 c-40 -16 -90 -76 -103 -123 -11 -36 -11 -56 -2 -94 14
-56 31 -79 86 -116 105 -71 260 0 280 128 13 82 -33 173 -102 201 -36 15 -126
18 -159 4z"/>
<path d="M1065 1162 c-61 -13 -95 -75 -75 -137 18 -55 159 -151 286 -196 270
-94 507 -49 702 134 47 45 52 54 52 93 0 31 -7 51 -26 73 -22 27 -32 31 -75
31 -43 0 -54 -5 -98 -45 -28 -24 -84 -60 -125 -80 -68 -33 -83 -36 -163 -36
-131 -1 -239 35 -353 117 -53 38 -93 53 -125 46z"/>
</g>
</svg>
