<?xml version="1.0" standalone="no"?>
<!DOCTYPE svg PUBLIC "-//W3C//DTD SVG 20010904//EN"
 "http://www.w3.org/TR/2001/REC-SVG-20010904/DTD/svg10.dtd">
<svg version="1.0" xmlns="http://www.w3.org/2000/svg"
 width="302.000000" height="302.000000" viewBox="0 0 302.000000 302.000000"
 preserveAspectRatio="xMidYMid meet">

<g transform="translate(0.000000,302.000000) scale(0.100000,-0.100000)"
fill="#000000" stroke="none">
<path d="M1305 3005 c-343 -49 -653 -208 -890 -456 -47 -50 -93 -103 -103
-117 -9 -15 -35 -52 -58 -82 -86 -114 -179 -334 -225 -530 -20 -82 -23 -124
-23 -305 -1 -184 2 -223 22 -315 67 -301 197 -544 407 -755 132 -133 252 -220
400 -291 237 -114 413 -154 677 -154 262 0 436 40 673 154 349 167 647 509
759 871 65 210 70 246 70 470 1 183 -2 224 -22 318 -41 191 -137 418 -226 537
-23 30 -49 67 -58 82 -38 58 -195 212 -296 288 -310 233 -722 339 -1107 285z
m375 -180 c306 -43 554 -167 770 -384 246 -248 372 -537 387 -885 9 -226 -30
-418 -126 -617 -64 -132 -76 -151 -141 -235 -202 -261 -474 -432 -794 -502
-114 -24 -418 -24 -532 0 -319 69 -593 242 -794 502 -66 84 -77 103 -141 235
-94 194 -123 332 -123 571 0 143 4 193 22 274 54 240 167 453 334 630 215 230
480 366 798 411 129 18 210 18 340 0z"/>
<path d="M920 1939 c-48 -29 -74 -58 -88 -98 -45 -130 42 -251 181 -251 100 0
177 78 177 179 0 27 -5 62 -11 78 -36 95 -172 144 -259 92z"/>
<path d="M1935 1946 c-37 -17 -80 -62 -94 -99 -18 -48 -13 -124 11 -166 32
-56 79 -84 147 -89 202 -15 276 236 104 349 -34 23 -123 25 -168 5z"/>
<path d="M1063 1065 c-62 -26 -74 -110 -24 -164 l29 -31 440 0 440 0 31 26
c26 22 31 33 31 71 0 55 -12 78 -50 98 -41 21 -848 22 -897 0z"/>
</g>
</svg>
