<?xml version="1.0" standalone="no"?>
<!DOCTYPE svg PUBLIC "-//W3C//DTD SVG 20010904//EN"
 "http://www.w3.org/TR/2001/REC-SVG-20010904/DTD/svg10.dtd">
<svg version="1.0" xmlns="http://www.w3.org/2000/svg"
 width="302.000000" height="302.000000" viewBox="0 0 302.000000 302.000000"
 preserveAspectRatio="xMidYMid meet">

<g transform="translate(0.000000,302.000000) scale(0.100000,-0.100000)"
fill="#000000" stroke="none">
<path d="M1300 3005 c-568 -83 -1043 -478 -1224 -1017 -53 -159 -71 -286 -70
-498 0 -164 4 -210 23 -290 33 -146 69 -244 131 -370 223 -444 646 -752 1130
-820 128 -19 453 -8 550 18 309 81 512 189 709 377 220 210 355 442 433 744
27 105 31 135 35 316 5 177 3 213 -16 313 -82 427 -330 790 -696 1020 -279
175 -673 256 -1005 207z m333 -176 c137 -12 320 -60 437 -115 357 -168 641
-509 729 -874 36 -152 44 -228 38 -385 -8 -208 -37 -331 -123 -515 -148 -314
-415 -559 -746 -684 -156 -58 -238 -71 -458 -71 -220 1 -283 11 -450 71 -413
149 -738 511 -839 934 -63 265 -49 520 44 776 166 457 583 791 1071 858 127
17 154 18 297 5z"/>
<path d="M1961 1955 c-202 -63 -159 -365 53 -365 109 0 186 76 186 186 0 87
-50 154 -134 179 -58 17 -49 17 -105 0z"/>
<path d="M925 1946 c-66 -29 -111 -114 -102 -192 19 -175 257 -226 345 -75 52
89 24 205 -61 256 -50 29 -131 34 -182 11z"/>
<path d="M1321 1144 c-71 -19 -163 -66 -229 -116 -79 -61 -102 -93 -102 -139
0 -51 13 -75 52 -95 46 -24 90 -12 151 39 101 85 183 117 296 117 111 0 219
-38 346 -123 81 -53 121 -58 162 -20 72 68 51 132 -70 214 -92 62 -180 102
-277 124 -82 19 -258 18 -329 -1z"/>
</g>
</svg>
