<?xml version="1.0" standalone="no"?>
<!DOCTYPE svg PUBLIC "-//W3C//DTD SVG 20010904//EN"
 "http://www.w3.org/TR/2001/REC-SVG-20010904/DTD/svg10.dtd">
<svg version="1.0" xmlns="http://www.w3.org/2000/svg"
 width="512.000000" height="512.000000" viewBox="0 0 512.000000 512.000000"
 preserveAspectRatio="xMidYMid meet">

<g transform="translate(0.000000,512.000000) scale(0.100000,-0.100000)"
fill="#000000" stroke="none">
<path d="M2220 4730 c0 -5 -22 -10 -50 -10 -27 0 -50 -4 -50 -10 0 -6 -27 -10
-60 -10 -33 0 -60 -4 -60 -10 0 -5 -18 -10 -40 -10 -22 0 -40 -4 -40 -10 0 -5
-13 -10 -30 -10 -20 0 -30 -5 -30 -15 0 -25 46 -65 75 -65 16 0 25 -6 25 -16
0 -23 -25 -44 -54 -44 -14 0 -26 -4 -26 -10 0 -5 -13 -10 -28 -10 -16 0 -34
-8 -42 -20 -8 -11 -22 -20 -32 -20 -11 0 -18 -7 -18 -20 0 -11 -4 -20 -10 -20
-5 0 -10 -9 -10 -20 0 -11 -4 -20 -10 -20 -5 0 -10 -4 -10 -10 0 -6 27 -10 60
-10 33 0 60 4 60 10 0 6 18 10 40 10 22 0 40 5 40 10 0 6 14 10 30 10 17 0 30
5 30 10 0 6 23 10 50 10 28 0 50 5 50 10 0 6 14 10 30 10 17 0 30 5 30 10 0 6
43 10 110 10 67 0 110 -4 110 -10 0 -6 -27 -10 -60 -10 -33 0 -60 -4 -60 -10
0 -6 -27 -10 -60 -10 -33 0 -60 -4 -60 -10 0 -5 -18 -10 -40 -10 -22 0 -40 -4
-40 -10 0 -5 -13 -10 -30 -10 -16 0 -30 -4 -30 -10 0 -5 -13 -10 -30 -10 -16
0 -30 -4 -30 -10 0 -5 -13 -10 -30 -10 -16 0 -30 -4 -30 -10 0 -5 -9 -10 -20
-10 -11 0 -20 -4 -20 -10 0 -5 -18 -10 -40 -10 -22 0 -40 -4 -40 -10 0 -5 -18
-10 -40 -10 -22 0 -40 -4 -40 -10 0 -5 -22 -10 -50 -10 -27 0 -50 -4 -50 -10
0 -5 5 -10 10 -10 18 0 11 -35 -10 -50 -30 -22 -26 -50 8 -50 16 0 34 -8 42
-20 11 -15 26 -20 60 -20 34 0 49 5 60 20 10 14 26 20 52 20 21 0 38 5 38 10
0 6 18 10 40 10 22 0 40 5 40 10 0 6 14 10 30 10 17 0 30 5 30 10 0 6 23 10
50 10 28 0 50 5 50 10 0 6 18 10 40 10 22 0 40 5 40 10 0 6 18 10 40 10 22 0
40 5 40 10 0 6 18 10 40 10 22 0 40 5 40 10 0 6 14 10 30 10 17 0 30 5 30 10
0 6 23 10 50 10 l50 0 0 -100 c0 -60 -4 -100 -10 -100 -6 0 -10 -27 -10 -60 0
-33 -4 -60 -10 -60 -6 0 -10 -87 -10 -240 0 -153 -4 -240 -10 -240 -6 0 -10
-70 -10 -190 0 -104 -4 -190 -8 -190 -4 0 -14 9 -22 20 -8 11 -22 20 -32 20
-11 0 -18 7 -18 20 0 13 -7 20 -20 20 -13 0 -20 -7 -20 -20 0 -11 -4 -20 -10
-20 -5 0 -10 -18 -10 -40 0 -50 -20 -53 -60 -10 -15 17 -35 30 -44 30 -9 0
-16 5 -16 10 0 6 -27 10 -60 10 l-60 0 0 -30 c0 -16 5 -30 10 -30 6 0 10 -7
10 -15 0 -20 85 -105 105 -105 8 0 15 -9 15 -20 0 -13 7 -20 20 -20 13 0 20
-7 20 -20 0 -11 -7 -20 -15 -20 -8 0 -76 61 -150 135 -102 101 -135 141 -135
160 0 14 -4 25 -10 25 -5 0 -10 -9 -10 -20 0 -11 -4 -20 -8 -20 -4 0 -14 9
-22 20 -17 24 -36 26 -56 6 -19 -20 -18 -26 6 -26 11 0 20 -3 20 -6 0 -11 -29
-34 -44 -34 -12 0 -16 -10 -16 -40 0 -33 3 -40 20 -40 13 0 20 -7 20 -20 0
-13 7 -20 20 -20 11 0 20 -7 20 -15 0 -20 265 -285 285 -285 8 0 15 -9 15 -20
0 -17 -7 -20 -40 -20 -22 0 -40 -4 -40 -10 0 -5 -11 -10 -25 -10 -26 0 -95
-59 -95 -80 0 -35 26 -40 224 -40 124 0 196 -4 196 -10 0 -6 -33 -10 -80 -10
-47 0 -80 -4 -80 -10 0 -6 -60 -10 -160 -10 -100 0 -160 4 -160 10 0 6 -25 10
-55 10 -47 0 -60 -4 -81 -25 l-26 -26 21 -18 c13 -12 21 -30 21 -50 0 -61 -1
-61 324 -61 l296 0 0 -180 c0 -173 1 -180 20 -180 11 0 20 5 20 10 0 6 9 10
20 10 12 0 20 7 20 16 0 20 24 44 44 44 13 0 16 -14 16 -80 0 -47 4 -80 10
-80 6 0 10 -16 10 -35 0 -27 8 -44 35 -70 39 -39 65 -45 65 -15 0 11 5 20 10
20 6 0 10 60 10 160 0 100 4 160 10 160 6 0 10 -13 10 -30 0 -16 5 -30 10 -30
6 0 10 -13 10 -30 0 -16 -4 -30 -10 -30 -6 0 -10 -53 -10 -140 0 -87 4 -140
10 -140 6 0 10 -22 10 -50 0 -27 -4 -50 -10 -50 -5 0 -10 -17 -10 -38 0 -26 6
-42 20 -52 11 -8 20 -22 20 -32 0 -11 7 -18 20 -18 13 0 20 7 20 20 0 22 35
29 42 8 3 -8 14 -3 31 14 l27 27 0 306 c0 348 -3 340 80 255 27 -27 56 -50 64
-50 9 0 16 -7 16 -16 0 -18 23 -44 40 -44 14 0 120 -106 120 -120 0 -6 16 -26
35 -45 35 -35 79 -47 88 -22 2 7 20 -5 45 -31 44 -45 72 -54 72 -22 0 11 5 20
10 20 6 0 10 9 10 20 0 13 7 20 20 20 16 0 20 7 20 36 0 28 -8 43 -40 74 -22
21 -40 45 -40 52 0 7 -9 20 -20 28 -11 8 -20 22 -20 32 0 11 -7 18 -20 18 -13
0 -20 7 -20 20 0 11 -4 20 -10 20 -5 0 -10 8 -10 18 0 10 -9 24 -20 32 -11 8
-20 20 -20 28 0 7 -27 40 -60 72 -33 32 -60 64 -60 70 0 6 -23 34 -51 61 -45
44 -49 51 -35 64 9 9 33 15 60 15 25 0 46 5 46 10 0 6 33 10 80 10 47 0 80 4
80 10 0 6 115 10 326 10 269 0 328 -2 340 -14 17 -17 21 -186 4 -186 -5 0 -10
-18 -10 -40 0 -22 -4 -40 -10 -40 -5 0 -10 -9 -10 -20 0 -11 -4 -20 -10 -20
-5 0 -10 -13 -10 -30 0 -16 -4 -30 -10 -30 -5 0 -10 -13 -10 -30 0 -16 -4 -30
-10 -30 -5 0 -10 -9 -10 -20 0 -11 -4 -20 -10 -20 -5 0 -10 -8 -10 -18 0 -10
-9 -24 -20 -32 -11 -8 -20 -21 -20 -30 0 -9 -9 -22 -20 -30 -11 -8 -20 -21
-20 -28 0 -7 -18 -31 -40 -52 -46 -44 -48 -55 -19 -81 l22 -19 -32 -29 c-17
-16 -31 -34 -31 -41 0 -16 26 -40 44 -40 9 0 16 -8 16 -20 0 -29 69 -29 90 0
8 11 20 20 28 20 15 0 82 65 82 80 0 17 26 40 44 40 9 0 16 7 16 16 0 8 23 37
50 64 28 27 50 55 50 62 0 8 9 20 20 28 11 8 20 21 20 30 0 9 9 22 20 30 11 8
20 22 20 32 0 10 5 18 10 18 6 0 10 9 10 20 0 11 5 20 10 20 6 0 10 18 10 40
0 22 5 40 10 40 6 0 10 9 10 20 0 11 5 20 10 20 6 0 10 9 10 20 0 11 5 20 10
20 6 0 10 14 10 30 0 17 5 30 10 30 6 0 10 14 10 30 0 17 5 30 10 30 6 0 10
18 10 40 0 22 5 40 10 40 6 0 10 33 10 80 0 47 4 80 10 80 6 0 10 33 10 80 0
47 4 80 10 80 6 0 10 27 10 60 0 33 4 60 10 60 6 0 10 27 10 60 0 33 -4 60
-10 60 -5 0 -10 23 -10 50 0 28 -4 50 -10 50 -5 0 -10 23 -10 50 0 28 -4 50
-10 50 -5 0 -10 18 -10 40 0 22 -4 40 -10 40 -5 0 -10 18 -10 40 0 29 -4 40
-15 40 -20 0 -65 -45 -65 -65 0 -10 -10 -15 -30 -15 -23 0 -30 4 -30 20 0 11
-4 20 -10 20 -5 0 -10 9 -10 20 0 11 -4 20 -10 20 -5 0 -10 7 -10 16 0 8 -6
22 -14 30 -8 8 -22 14 -30 14 -9 0 -16 5 -16 10 0 15 -29 12 -46 -4 -16 -17
-19 -66 -4 -66 6 0 10 -18 10 -40 0 -22 5 -40 10 -40 6 0 10 -18 10 -40 0 -33
-3 -40 -20 -40 -17 0 -20 7 -20 50 0 28 -4 50 -10 50 -5 0 -10 14 -10 30 0 17
-4 30 -10 30 -5 0 -10 14 -10 30 0 17 -4 30 -10 30 -5 0 -10 9 -10 19 0 11 -6
22 -12 25 -10 5 -10 7 0 12 14 6 17 64 3 64 -5 0 -11 -6 -14 -12 -3 -9 -11 -6
-24 10 -26 29 -73 30 -73 2 0 -11 5 -20 10 -20 6 0 10 -4 10 -10 0 -14 -38
-12 -42 2 -3 9 -9 8 -21 -4 -19 -18 -24 -108 -7 -108 6 0 10 -9 10 -20 0 -11
5 -20 10 -20 6 0 10 -18 10 -40 0 -22 5 -40 10 -40 6 0 10 -13 10 -30 0 -16 5
-30 10 -30 6 0 10 -22 10 -50 0 -27 5 -50 10 -50 6 0 10 -18 10 -40 0 -22 5
-40 10 -40 6 0 10 -9 10 -20 0 -11 5 -20 10 -20 6 0 10 -13 10 -30 0 -16 5
-30 10 -30 6 0 10 -37 10 -90 l0 -90 -80 0 c-47 0 -80 4 -80 10 0 6 -30 10
-70 10 -40 0 -70 4 -70 10 0 6 -67 10 -180 10 -113 0 -180 4 -180 10 0 6 -87
10 -240 10 l-240 0 0 30 c0 17 -4 30 -10 30 -6 0 -10 27 -10 60 0 33 -4 60
-10 60 -5 0 -10 23 -10 50 0 28 -4 50 -10 50 -6 0 -10 27 -10 60 0 33 -4 60
-10 60 -6 0 -10 37 -10 90 0 53 -4 90 -10 90 -6 0 -10 80 -10 220 0 140 -4
220 -10 220 -6 0 -10 85 -10 236 0 246 3 264 44 264 9 0 16 5 16 10 0 6 67 10
180 10 113 0 180 -4 180 -10 0 -5 18 -10 40 -10 22 0 40 -4 40 -10 0 -5 14
-10 30 -10 17 0 30 -4 30 -10 0 -5 14 -10 30 -10 17 0 30 -4 30 -10 0 -5 14
-10 30 -10 17 0 30 -4 30 -10 0 -5 14 -10 30 -10 17 0 30 -4 30 -10 0 -5 9
-10 20 -10 11 0 20 -4 20 -10 0 -5 9 -10 20 -10 11 0 20 -4 20 -10 0 -5 9 -10
20 -10 11 0 20 -4 20 -10 0 -5 9 -10 20 -10 11 0 20 -4 20 -10 0 -5 13 -10 28
-10 16 0 34 -8 42 -20 8 -11 21 -20 28 -20 8 0 27 -13 42 -30 15 -16 33 -30
40 -30 16 0 40 -26 40 -44 0 -9 8 -16 20 -16 11 0 20 -4 20 -10 0 -5 9 -10 20
-10 11 0 20 5 20 10 0 6 14 10 30 10 21 0 30 -5 30 -16 0 -20 24 -44 44 -44 9
0 16 -4 16 -10 0 -15 29 -12 46 4 8 8 14 26 14 40 0 19 5 26 20 26 15 0 20 7
20 28 0 16 -8 34 -20 42 -11 8 -20 20 -20 28 0 16 -45 62 -60 62 -6 0 -38 27
-70 60 -32 33 -64 60 -70 60 -6 0 -38 27 -70 60 -32 33 -65 60 -72 60 -8 0
-20 9 -28 20 -8 11 -22 20 -32 20 -10 0 -18 5 -18 10 0 6 -9 10 -20 10 -11 0
-20 5 -20 10 0 6 -8 10 -18 10 -10 0 -24 9 -32 20 -8 12 -26 20 -42 20 -15 0
-28 5 -28 10 0 6 -9 10 -20 10 -11 0 -20 5 -20 10 0 6 -13 10 -30 10 -16 0
-30 5 -30 10 0 6 -9 10 -20 10 -11 0 -20 5 -20 10 0 6 -9 10 -20 10 -11 0 -20
5 -20 10 0 6 -13 10 -30 10 -16 0 -30 5 -30 10 0 6 -13 10 -30 10 -16 0 -30 5
-30 10 0 6 -13 10 -30 10 -16 0 -30 5 -30 10 0 6 -22 10 -50 10 -27 0 -50 5
-50 10 0 6 -22 10 -50 10 -27 0 -50 5 -50 10 0 6 -30 10 -70 10 -40 0 -70 4
-70 10 0 6 -47 10 -120 10 -73 0 -120 4 -120 10 0 6 -63 10 -170 10 -107 0
-170 -4 -170 -10z"/>
<path d="M1340 4230 c0 -5 -11 -10 -25 -10 -29 0 -75 -40 -75 -65 0 -23 52
-19 70 5 8 11 22 20 32 20 10 0 18 5 18 10 0 6 9 10 20 10 13 0 20 7 20 20 0
16 -7 20 -30 20 -16 0 -30 -4 -30 -10z"/>
<path d="M1460 4110 c0 -5 -9 -10 -20 -10 -24 0 -25 -6 -5 -26 13 -14 17 -14
30 0 17 17 20 46 5 46 -5 0 -10 -4 -10 -10z"/>
<path d="M1300 4030 c0 -5 -13 -10 -28 -10 -16 0 -34 -8 -42 -20 -8 -11 -20
-20 -27 -20 -19 0 -123 -106 -123 -125 0 -27 50 -18 80 15 15 17 34 30 42 30
7 0 20 9 28 20 8 11 22 20 32 20 11 0 18 7 18 20 0 13 7 20 20 20 16 0 20 7
20 30 0 17 -4 30 -10 30 -5 0 -10 -4 -10 -10z"/>
<path d="M3640 3854 c0 -16 12 -37 30 -54 17 -15 30 -33 30 -39 0 -17 47 -61
65 -61 10 0 15 10 15 30 0 17 -4 30 -10 30 -5 0 -10 8 -10 18 0 10 -9 24 -20
32 -11 8 -20 20 -20 28 0 22 -26 42 -54 42 -21 0 -26 -5 -26 -26z"/>
<path d="M3900 3752 c0 -16 8 -34 20 -42 11 -8 20 -22 20 -32 0 -10 5 -18 10
-18 6 0 10 23 10 50 0 43 -3 50 -20 50 -11 0 -20 5 -20 10 0 6 -4 10 -10 10
-5 0 -10 -13 -10 -28z"/>
<path d="M1400 3630 c0 -5 -7 -10 -15 -10 -18 0 -285 -265 -285 -283 0 -7 -9
-19 -20 -27 -11 -8 -20 -21 -20 -30 0 -9 -9 -22 -20 -30 -11 -8 -20 -21 -20
-30 0 -9 -9 -22 -20 -30 -12 -8 -20 -26 -20 -42 0 -15 -4 -28 -10 -28 -5 0
-10 -17 -10 -38 0 -26 -6 -42 -20 -52 -12 -8 -20 -26 -20 -42 0 -15 -4 -28
-10 -28 -5 0 -10 -13 -10 -30 0 -16 -4 -30 -10 -30 -5 0 -10 -22 -10 -50 0
-27 -4 -50 -10 -50 -5 0 -10 -18 -10 -40 0 -22 -4 -40 -10 -40 -6 0 -10 -30
-10 -70 0 -40 -4 -70 -10 -70 -6 0 -10 -33 -10 -80 0 -47 -4 -80 -10 -80 -6 0
-10 -50 -10 -130 0 -80 4 -130 10 -130 6 0 10 -22 10 -50 0 -27 5 -50 10 -50
6 0 10 -22 10 -50 0 -27 5 -50 10 -50 6 0 10 -22 10 -50 0 -43 3 -50 20 -50
13 0 20 7 20 20 0 13 7 20 20 20 13 0 20 7 20 20 0 16 7 20 30 20 23 0 30 -4
30 -20 0 -11 5 -20 10 -20 6 0 10 -9 10 -20 0 -11 5 -20 10 -20 6 0 10 -7 10
-16 0 -23 25 -44 53 -44 14 0 27 -6 29 -12 3 -9 9 -8 21 4 19 18 24 108 7 108
-5 0 -10 18 -10 40 0 22 -4 40 -10 40 -5 0 -10 9 -10 20 0 13 7 20 20 20 17 0
20 -7 20 -40 0 -22 5 -40 10 -40 6 0 10 -9 10 -20 0 -11 5 -20 10 -20 6 0 10
-18 10 -40 0 -22 5 -40 10 -40 6 0 10 -9 10 -20 0 -11 5 -20 10 -20 6 0 10
-16 10 -36 0 -38 18 -64 44 -64 9 0 16 -4 16 -10 0 -5 5 -10 10 -10 6 0 10 9
10 20 0 15 7 20 26 20 14 0 32 6 40 14 16 17 20 106 4 106 -5 0 -10 14 -10 30
0 17 -4 30 -10 30 -5 0 -10 14 -10 30 0 17 -4 30 -10 30 -5 0 -10 18 -10 40 0
22 -4 40 -10 40 -5 0 -10 18 -10 40 0 22 -4 40 -10 40 -5 0 -10 18 -10 40 0
22 -4 40 -10 40 -5 0 -10 9 -10 20 0 11 -4 20 -10 20 -5 0 -10 18 -10 40 0 22
-4 40 -10 40 -6 0 -10 30 -10 70 l0 70 106 0 c80 0 109 4 120 15 14 13 14 17
0 30 -11 11 -39 15 -116 15 -115 0 -130 7 -130 64 0 20 -4 36 -10 36 -6 0 -10
53 -10 140 0 87 4 140 10 140 6 0 10 18 10 40 0 22 5 40 10 40 6 0 10 14 10
30 0 17 5 30 10 30 6 0 10 14 10 30 0 17 5 30 10 30 6 0 10 9 10 20 0 11 5 20
10 20 6 0 10 13 10 28 0 16 8 34 20 42 11 8 20 21 20 30 0 9 9 22 20 30 11 8
20 22 20 32 0 10 5 18 10 18 6 0 10 9 10 20 0 12 7 20 16 20 20 0 44 24 44 43
0 9 6 17 13 20 8 3 4 11 -12 25 -21 20 -22 22 -7 38 15 15 19 13 45 -15 16
-17 34 -31 41 -31 6 0 29 -18 50 -40 21 -22 46 -40 54 -40 23 0 20 33 -4 50
-11 8 -20 21 -20 30 0 9 -9 22 -20 30 -11 8 -20 22 -20 32 0 10 -7 18 -16 18
-18 0 -44 23 -44 40 0 20 -28 40 -54 40 -17 0 -26 6 -26 16 0 15 -23 44 -34
44 -3 0 -6 -4 -6 -10z"/>
<path d="M1760 3440 c0 -11 5 -20 10 -20 6 0 10 -7 10 -15 0 -15 42 -65 55
-65 3 0 5 16 5 36 0 38 -18 64 -44 64 -9 0 -16 5 -16 10 0 6 -4 10 -10 10 -5
0 -10 -9 -10 -20z"/>
<path d="M1480 2624 c0 -29 27 -44 80 -44 61 0 91 20 66 45 -21 22 -146 21
-146 -1z"/>
<path d="M1600 2470 c0 -5 -9 -10 -20 -10 -11 0 -20 -4 -20 -10 0 -5 18 -10
40 -10 43 0 47 4 26 26 -17 16 -26 18 -26 4z"/>
<path d="M1360 1600 c0 -11 5 -20 10 -20 6 0 10 9 10 20 0 11 -4 20 -10 20 -5
0 -10 -9 -10 -20z"/>
<path d="M1240 1502 c0 -26 6 -42 20 -52 11 -8 20 -22 20 -32 0 -11 7 -18 20
-18 11 0 20 5 20 10 0 6 -4 10 -10 10 -5 0 -10 16 -10 35 0 25 -8 44 -25 60
-13 14 -27 25 -30 25 -3 0 -5 -17 -5 -38z"/>
<path d="M1420 1480 c0 -11 5 -20 10 -20 6 0 10 -13 10 -28 0 -16 8 -34 20
-42 11 -8 20 -20 20 -28 0 -18 46 -62 65 -62 11 0 15 11 15 40 0 22 -4 40 -10
40 -5 0 -10 7 -10 15 0 9 -20 36 -45 60 -48 48 -75 57 -75 25z"/>
<path d="M2580 1321 c0 -22 -6 -42 -12 -45 -10 -5 -10 -7 0 -12 6 -3 12 -19
12 -35 0 -16 5 -29 10 -29 6 0 10 14 10 30 0 17 5 30 10 30 6 0 10 9 10 20 0
11 -4 20 -10 20 -5 0 -10 14 -10 30 0 17 -4 30 -10 30 -5 0 -10 -18 -10 -39z"/>
<path d="M2740 1330 c0 -23 4 -30 20 -30 16 0 20 7 20 30 0 23 -4 30 -20 30
-16 0 -20 -7 -20 -30z"/>
<path d="M4270 1320 c-8 -11 -22 -20 -32 -20 -11 0 -18 -7 -18 -20 0 -15 -7
-20 -25 -20 -29 0 -75 -40 -75 -65 0 -11 10 -15 36 -15 27 0 43 7 64 30 15 17
33 30 40 30 7 0 25 14 40 30 15 17 35 30 44 30 9 0 16 8 16 20 0 16 -7 20 -38
20 -26 0 -42 -6 -52 -20z"/>
<path d="M1371 1284 c-11 -13 -11 -18 -1 -24 11 -7 10 -11 -3 -24 -8 -9 -23
-16 -31 -16 -10 0 -16 -9 -16 -25 0 -18 21 -47 75 -100 41 -41 80 -75 86 -75
6 0 28 -18 49 -40 21 -22 46 -40 54 -40 9 0 16 -8 16 -20 0 -11 7 -20 16 -20
8 0 37 -22 64 -50 27 -27 56 -50 64 -50 9 0 16 -4 16 -10 0 -5 8 -10 18 -10
10 0 24 -9 32 -20 8 -11 22 -20 32 -20 10 0 18 -4 18 -10 0 -5 9 -10 20 -10
11 0 20 -4 20 -10 0 -5 9 -10 20 -10 11 0 20 -4 20 -10 0 -5 9 -10 20 -10 11
0 20 -4 20 -10 0 -5 18 -10 40 -10 22 0 40 -4 40 -10 0 -5 9 -10 20 -10 11 0
20 -4 20 -10 0 -5 14 -10 30 -10 17 0 30 -4 30 -10 0 -5 9 -10 20 -10 11 0 20
-4 20 -10 0 -5 18 -10 40 -10 22 0 40 -4 40 -10 0 -5 18 -10 40 -10 22 0 40
-4 40 -10 0 -5 18 -10 40 -10 22 0 40 -4 40 -10 0 -5 23 -10 50 -10 28 0 50
-4 50 -10 0 -6 30 -10 70 -10 40 0 70 -4 70 -10 0 -6 43 -10 110 -10 67 0 110
-4 110 -10 0 -6 57 -10 150 -10 93 0 150 4 150 10 0 6 27 10 60 10 33 0 60 4
60 10 0 6 23 10 50 10 28 0 50 5 50 10 0 6 14 10 30 10 17 0 30 5 30 10 0 6
30 10 70 10 63 0 70 2 70 20 0 13 -7 20 -18 20 -10 0 -24 9 -32 20 -10 14 -26
20 -52 20 -28 0 -38 4 -38 16 0 23 25 44 54 44 14 0 26 5 26 10 0 6 14 10 30
10 17 0 30 5 30 10 0 6 7 10 16 10 19 0 44 24 44 42 0 8 9 20 20 28 12 8 20
26 20 42 0 26 -3 28 -40 28 -22 0 -40 -4 -40 -10 0 -5 -13 -10 -30 -10 -16 0
-30 -4 -30 -10 0 -5 -22 -10 -50 -10 -27 0 -50 -4 -50 -10 0 -5 -18 -10 -40
-10 -22 0 -40 5 -40 10 0 6 9 10 20 10 11 0 20 5 20 10 0 6 14 10 30 10 17 0
30 5 30 10 0 6 14 10 30 10 17 0 30 5 30 10 0 6 18 10 40 10 22 0 40 5 40 10
0 6 13 10 28 10 16 0 34 8 42 20 15 21 70 28 70 10 0 -5 18 -10 40 -10 22 0
40 5 40 10 0 6 9 10 20 10 11 0 20 5 20 10 0 6 -9 10 -20 10 -26 0 -26 28 1
51 19 16 20 20 6 34 -9 8 -21 15 -27 15 -7 0 -25 14 -40 30 -27 29 -60 40 -60
20 0 -5 -13 -10 -30 -10 -16 0 -30 -4 -30 -10 0 -5 -9 -10 -20 -10 -11 0 -20
-4 -20 -10 0 -5 -13 -10 -30 -10 -16 0 -30 -4 -30 -10 0 -5 -13 -10 -30 -10
-16 0 -30 -4 -30 -10 0 -5 -18 -10 -40 -10 -22 0 -40 -4 -40 -10 0 -5 -18 -10
-40 -10 -22 0 -40 -4 -40 -10 0 -5 -18 -10 -40 -10 -22 0 -40 -4 -40 -10 0 -5
-13 -10 -30 -10 -16 0 -30 -4 -30 -10 0 -5 -18 -10 -40 -10 -22 0 -40 -4 -40
-10 0 -5 -22 -10 -50 -10 -27 0 -50 -4 -50 -10 0 -6 -52 -10 -136 -10 -104 0
-139 3 -150 14 -10 10 -14 39 -14 100 0 79 -2 86 -20 86 -13 0 -20 -7 -20 -20
0 -11 -4 -20 -10 -20 -6 0 -10 -32 -10 -76 0 -87 -10 -104 -64 -104 -20 0 -36
-4 -36 -10 0 -6 -40 -10 -100 -10 -60 0 -100 4 -100 10 0 6 -27 10 -60 10 -33
0 -60 4 -60 10 0 6 -18 10 -40 10 -22 0 -40 5 -40 10 0 6 -13 10 -30 10 -16 0
-30 5 -30 10 0 6 -22 10 -48 10 -36 0 -51 5 -62 20 -8 12 -26 20 -42 20 -15 0
-28 5 -28 10 0 6 -9 10 -20 10 -11 0 -20 5 -20 10 0 6 -9 10 -20 10 -11 0 -20
5 -20 10 0 6 -8 10 -18 10 -10 0 -24 9 -32 20 -8 11 -22 20 -32 20 -10 0 -18
5 -18 10 0 6 -7 10 -16 10 -9 0 -29 14 -44 30 -15 17 -33 30 -40 30 -6 0 -29
18 -50 40 -25 26 -47 40 -64 40 -14 0 -26 -4 -26 -10 0 -22 -34 -8 -70 30 -41
43 -75 51 -99 24z"/>
<path d="M3960 1100 c0 -11 5 -20 10 -20 6 0 10 5 10 10 0 6 9 10 20 10 11 0
20 5 20 10 0 6 -13 10 -30 10 -23 0 -30 -4 -30 -20z"/>
<path d="M4120 1030 c0 -5 -7 -10 -16 -10 -20 0 -44 -24 -44 -44 0 -9 8 -16
20 -16 11 0 20 5 20 10 0 6 9 10 20 10 11 0 20 5 20 10 0 6 7 10 16 10 15 0
44 23 44 34 0 3 -18 6 -40 6 -22 0 -40 -4 -40 -10z"/>
</g>
</svg>
